<svg width="23" height="23" viewBox="0 0 23 23" fill="none" xmlns="http://www.w3.org/2000/svg">
<path d="M10.854 8.2575L13.7625 11.1568V11.01C13.7625 10.28 13.4725 9.57988 12.9563 9.06369C12.4401 8.5475 11.74 8.2575 11.01 8.2575H10.854ZM6.90876 8.9915L8.33088 10.4136C8.28501 10.6063 8.25748 10.799 8.25748 11.01C8.25748 11.74 8.54747 12.4401 9.06367 12.9563C9.57986 13.4725 10.28 13.7625 11.01 13.7625C11.2118 13.7625 11.4137 13.735 11.6064 13.6891L13.0285 15.1112C12.4138 15.414 11.7348 15.5975 11.01 15.5975C9.7933 15.5975 8.62645 15.1142 7.76613 14.2539C6.9058 13.3935 6.42248 12.2267 6.42248 11.01C6.42248 10.2852 6.60598 9.60623 6.90876 8.9915M1.83498 3.91773L3.92688 6.00963L4.33976 6.4225C2.82588 7.61525 1.63313 9.175 0.91748 11.01C2.50476 15.0378 6.42248 17.8913 11.01 17.8913C12.4321 17.8913 13.79 17.616 15.0286 17.1206L15.4232 17.5059L18.1023 20.185L19.2675 19.0198L3.00021 2.7525M11.01 6.4225C12.2267 6.4225 13.3935 6.90583 14.2538 7.76615C15.1142 8.62647 15.5975 9.79332 15.5975 11.01C15.5975 11.5972 15.4782 12.1661 15.2672 12.6799L17.9555 15.3681C19.3317 14.2213 20.4327 12.7166 21.1025 11.01C19.5152 6.98218 15.5975 4.12875 11.01 4.12875C9.72548 4.12875 8.49603 4.35813 7.33998 4.771L9.33096 6.74363C9.85393 6.54178 10.4136 6.4225 11.01 6.4225Z" fill="#635AF5"/>
</svg>
