<svg width="23" height="23" viewBox="0 0 23 23" fill="none" xmlns="http://www.w3.org/2000/svg">
<path d="M11.497 13.8692C13.0169 13.8692 14.2491 12.637 14.2491 11.117C14.2491 9.59709 13.0169 8.36493 11.497 8.36493C9.97704 8.36493 8.74487 9.59709 8.74487 11.117C8.74487 12.637 9.97704 13.8692 11.497 13.8692Z" fill="#635AF5"/>
<path d="M21.5956 10.3688C20.4578 8.60917 18.9815 7.11443 17.3268 6.04584C15.4962 4.86243 13.4751 4.23676 11.4824 4.23676C9.654 4.23676 7.8561 4.75923 6.13861 5.78955C4.38715 6.84008 2.80038 8.37481 1.42218 10.3507C1.26659 10.5741 1.1809 10.8386 1.176 11.1107C1.1711 11.3828 1.24721 11.6503 1.39466 11.879C2.53033 13.6563 3.99196 15.1532 5.62087 16.2071C7.45489 17.3953 9.42867 17.9973 11.4824 17.9973C13.491 17.9973 15.5164 17.3768 17.3393 16.2033C18.9931 15.1381 20.4664 13.6378 21.5999 11.8635C21.7422 11.6401 21.8175 11.3805 21.8168 11.1155C21.816 10.8506 21.7392 10.5914 21.5956 10.3688V10.3688ZM11.4971 15.2452C10.6806 15.2452 9.88244 15.0031 9.20357 14.5495C8.52469 14.0959 7.99558 13.4511 7.68313 12.6968C7.37068 11.9425 7.28892 11.1125 7.44821 10.3117C7.6075 9.51088 8.00067 8.77531 8.578 8.19798C9.15534 7.62064 9.8909 7.22747 10.6917 7.06819C11.4925 6.9089 12.3225 6.99065 13.0768 7.3031C13.8312 7.61556 14.4759 8.14467 14.9295 8.82355C15.3831 9.50242 15.6252 10.3006 15.6252 11.117C15.624 12.2115 15.1886 13.2608 14.4147 14.0347C13.6408 14.8086 12.5915 15.2439 11.4971 15.2452V15.2452Z" fill="#635AF5"/>
</svg>
