<svg width="64" height="64" viewBox="0 0 64 64" fill="none" xmlns="http://www.w3.org/2000/svg">
<path d="M32 0C36.2435 0 40.3131 1.68571 43.3137 4.68629C46.3143 7.68687 48 11.7565 48 16C48 20.2435 46.3143 24.3131 43.3137 27.3137C40.3131 30.3143 36.2435 32 32 32C27.7565 32 23.6869 30.3143 20.6863 27.3137C17.6857 24.3131 16 20.2435 16 16C16 11.7565 17.6857 7.68687 20.6863 4.68629C23.6869 1.68571 27.7565 0 32 0ZM32 40C49.68 40 64 47.16 64 56V58C64 61.3137 61.3137 64 58 64H6C2.68629 64 0 61.3137 0 58V56C0 47.16 14.32 40 32 40Z" fill="url(#paint0_linear_950_2704)"/>
<defs>
<linearGradient id="paint0_linear_950_2704" x1="65.27" y1="33.9409" x2="-0.0876732" y2="33.9409" gradientUnits="userSpaceOnUse">
<stop offset="0.00312487" stop-color="#4961F5"/>
<stop offset="0.982292" stop-color="#7D47F5"/>
</linearGradient>
</defs>
</svg>
