<svg width="1000" height="1000" viewBox="0 0 1000 1000" fill="none" xmlns="http://www.w3.org/2000/svg">
<circle r="98.6585" transform="matrix(-1 0 0 1 696.078 274.658)" fill="#4C60F5"/>
<circle cx="311.696" cy="274.658" r="98.6585" fill="#9649F6"/>
<path fill-rule="evenodd" clip-rule="evenodd" d="M759.809 439.542C754.45 413.233 728.779 396.249 702.47 401.607L652.206 411.844C647.335 412.836 642.783 414.525 638.633 416.785C637.36 417.376 636.116 418.074 634.914 418.88L514.09 499.892L561.915 530.598C581.218 544.182 581.218 571.349 575.498 581.357L551.026 617.387L620.213 584.712C628.058 581.007 637.232 585.289 639.579 593.443L678.475 784.423C683.834 810.732 709.505 827.716 735.814 822.358L786.078 812.121C812.387 806.763 829.37 781.091 824.012 754.782L759.809 439.542ZM499.683 509.552L500.432 509.151L501.304 508.465L499.683 509.552Z" fill="url(#paint0_linear_223_142)"/>
<path d="M298.529 401.607C272.22 396.249 246.549 413.233 241.191 439.542L176.987 754.782C171.629 781.091 188.613 806.763 214.922 812.121L265.186 822.358C291.495 827.716 317.166 810.732 322.524 784.423L361.42 593.443C363.767 585.289 372.941 581.007 380.787 584.712L489.219 635.921C501.373 641.661 515.898 637.649 523.384 626.485L555.498 578.589C563.854 566.127 560.525 549.251 548.063 540.896L366.086 418.88C364.883 418.074 363.64 417.376 362.367 416.785C358.217 414.525 353.665 412.836 348.793 411.844L298.529 401.607Z" fill="url(#paint1_linear_223_142)"/>
<defs>
<linearGradient id="paint0_linear_223_142" x1="831.455" y1="624.802" x2="499.238" y2="624.802" gradientUnits="userSpaceOnUse">
<stop offset="0.00312487" stop-color="#4961F5"/>
<stop offset="0.982292" stop-color="#7D47F5"/>
</linearGradient>
<linearGradient id="paint1_linear_223_142" x1="175.862" y1="612.099" x2="560.484" y2="613.285" gradientUnits="userSpaceOnUse">
<stop stop-color="#8F3EF5"/>
<stop offset="0.961458" stop-color="#8046F5"/>
</linearGradient>
</defs>
</svg>
