<svg width="1000" height="1200" viewBox="0 0 1000 1200" fill="none" xmlns="http://www.w3.org/2000/svg">
<circle r="90.1456" transform="matrix(-1 0 0 1 679.202 304.146)" fill="#4C60F5"/>
<circle cx="327.987" cy="304.146" r="90.1456" fill="#9649F6"/>
<path fill-rule="evenodd" clip-rule="evenodd" d="M737.434 454.801C732.538 430.763 709.082 415.244 685.043 420.14L639.116 429.494C634.665 430.4 630.506 431.943 626.714 434.009C625.551 434.549 624.415 435.186 623.316 435.923L512.917 509.945L556.616 538.001C574.253 550.412 574.253 575.235 569.027 584.38L546.666 617.301L609.884 587.445C617.052 584.06 625.434 587.973 627.579 595.423L663.119 769.924C668.014 793.963 691.471 809.481 715.509 804.586L761.436 795.232C785.475 790.336 800.993 766.88 796.097 742.841L737.434 454.801ZM499.754 518.77L500.438 518.404L501.234 517.778L499.754 518.77Z" fill="url(#paint0_linear_342_70)"/>
<path d="M315.957 420.14C291.918 415.244 268.462 430.763 263.566 454.801L204.902 742.841C200.006 766.88 215.525 790.336 239.564 795.232L285.49 804.586C309.529 809.481 332.985 793.963 337.881 769.924L373.421 595.423C375.566 587.973 383.948 584.06 391.116 587.445L490.192 634.236C501.298 639.481 514.57 635.815 521.409 625.614L550.753 581.851C558.387 570.464 555.346 555.044 543.959 547.41L377.684 435.923C376.585 435.186 375.449 434.549 374.286 434.009C370.494 431.943 366.335 430.4 361.884 429.494L315.957 420.14Z" fill="url(#paint1_linear_342_70)"/>
<path d="M270.545 1050.1C270.545 1051.56 270.223 1052.47 269.578 1052.82C268.992 1053.18 267.439 1053.29 264.92 1053.18C249.627 1052.53 237.762 1052.53 229.324 1053.18C226.688 1053.35 225.369 1052.33 225.369 1050.1C225.369 1048.87 226.688 1047.99 229.324 1047.46C234.539 1046.29 237.674 1045.32 238.729 1044.56C240.018 1043.57 240.604 1041.34 240.486 1037.88L237.41 962.824C237.352 961.301 236.941 960.539 236.18 960.539C235.594 960.539 235.037 961.066 234.51 962.121C224.08 983.098 216.756 998.01 212.537 1006.86C204.041 1024.49 198.035 1037.88 194.52 1047.02C192.938 1051.3 192.117 1053.5 192.059 1053.62C191.473 1054.67 190.623 1055.37 189.51 1055.72C188.924 1055.9 188.426 1055.99 188.016 1055.99C186.844 1055.99 185.789 1054.26 184.852 1050.8C181.16 1037.56 168.445 1008.18 146.707 962.648C146.062 961.301 145.359 960.627 144.598 960.627C143.66 960.627 143.162 961.535 143.104 963.352C142.283 980.754 141.316 1003.93 140.203 1032.87C139.852 1040.61 143.748 1045.21 151.893 1046.67C155.115 1047.26 156.727 1048.4 156.727 1050.1C156.727 1051.56 156.404 1052.47 155.76 1052.82C155.174 1053.18 153.65 1053.29 151.189 1053.18C137.713 1052.65 127.254 1052.65 119.812 1053.18C117.176 1053.35 115.857 1052.33 115.857 1050.1C115.857 1048.87 117.176 1047.99 119.812 1047.46C124.5 1046.47 127.576 1044.91 129.041 1042.8C130.213 1041.16 130.857 1038.21 130.975 1033.93L134.051 956.145C134.168 952.746 133.494 950.139 132.029 948.322C130.74 946.74 128.133 945.041 124.207 943.225C121.395 941.936 120.076 940.559 120.252 939.094C120.369 937.512 121.629 936.896 124.031 937.248C132.996 938.537 140.848 938.771 147.586 937.951C150.164 937.658 151.922 937.717 152.859 938.127C153.797 938.537 154.617 939.562 155.32 941.203L192.059 1025.31C192.527 1026.49 192.938 1027.07 193.289 1027.07C193.641 1027.07 194.168 1026.28 194.871 1024.7C197.215 1019.66 210.311 992.502 234.158 943.225C235.623 940.236 237.469 938.742 239.695 938.742C245.145 938.742 252.762 937.951 262.547 936.369C264.773 936.018 266.15 935.9 266.678 936.018C267.674 936.311 268.172 937.395 268.172 939.27C268.172 940.676 266.619 941.877 263.514 942.873C256.189 945.158 252.586 947.912 252.703 951.135L255.955 1036.65C256.072 1040.05 256.922 1042.45 258.504 1043.86C259.793 1045.09 262.166 1046.03 265.623 1046.67C268.904 1047.32 270.545 1048.46 270.545 1050.1ZM412.84 1051.24C412.488 1052.82 412.107 1053.76 411.697 1054.05C411.346 1054.29 410.525 1054.23 409.236 1053.88C400.857 1052.36 388.611 1052.18 372.498 1053.35C369.451 1053.59 367.781 1053 367.488 1051.59C367.195 1049.95 368.162 1048.69 370.389 1047.81C376.717 1045.24 379.881 1042.83 379.881 1040.61C379.881 1039.73 379.529 1038.47 378.826 1036.83C374.49 1026.46 370.887 1018.11 368.016 1011.78C363.855 1012.01 356.531 1012.13 346.043 1012.13C337.371 1012.13 329.988 1011.9 323.895 1011.43C321.844 1016.47 318.973 1023.5 315.281 1032.52C314.461 1034.57 314.051 1036.42 314.051 1038.06C314.051 1041.34 315.838 1043.74 319.412 1045.27C324.92 1047.61 327.615 1049.4 327.498 1050.63C327.381 1052.62 325.535 1053.41 321.961 1053C310.945 1051.83 300.75 1052.18 291.375 1054.05C288.914 1054.58 287.537 1053.7 287.244 1051.42C287.01 1049.89 288.914 1048.25 292.957 1046.5C297.293 1044.68 300.955 1040.49 303.943 1033.93C315.369 1009.14 322.752 992.854 326.092 985.061C334.178 966.369 339.891 951.105 343.23 939.27C343.699 937.453 346.014 935.754 350.174 934.172C351.17 933.82 352.43 935.52 353.953 939.27C366.609 969.738 380.789 1002.32 396.492 1037C399.012 1042.51 403.26 1046.17 409.236 1047.99C411.932 1048.75 413.133 1049.84 412.84 1051.24ZM365.115 1004.92C361.248 996.135 355.213 982.512 347.01 964.055C346.541 963.059 346.014 962.561 345.428 962.561C344.842 962.561 344.344 963.059 343.934 964.055L327.146 1004.57C333.416 1005.04 340.447 1005.28 348.24 1005.28C353.045 1005.28 358.67 1005.16 365.115 1004.92ZM475.242 939.27C475.477 940.793 474.1 941.994 471.111 942.873C467.361 943.928 464.871 944.895 463.641 945.773C462 947.004 461.18 948.967 461.18 951.662V1044.39C461.18 1057.69 457.459 1067.97 450.018 1075.24C443.279 1081.8 434.461 1085.08 423.562 1085.08C416.414 1085.08 410.789 1083.82 406.688 1081.3C405.457 1080.54 404.842 1079.48 404.842 1078.14C404.842 1076.79 405.398 1074.94 406.512 1072.6C408.152 1069.14 409.939 1067.41 411.873 1067.41C413.045 1067.41 415.389 1068.56 418.904 1070.84C423.533 1073.83 427.723 1075.32 431.473 1075.32C436.746 1075.32 440.379 1073.68 442.371 1070.4C444.598 1066.77 445.711 1059.83 445.711 1049.57V950.783C445.711 948.264 444.979 946.506 443.514 945.51C442.459 944.807 439.705 943.869 435.252 942.697C432.732 941.994 431.531 940.852 431.648 939.27C431.824 937.453 433.172 936.662 435.691 936.896C448.289 938.068 460.096 937.834 471.111 936.193C472.752 935.959 473.777 936.018 474.188 936.369C474.656 936.721 475.008 937.688 475.242 939.27ZM625.008 995.08C625.008 1012.01 618.738 1026.37 606.199 1038.15C593.895 1049.75 579.1 1055.55 561.814 1055.55C543.65 1055.55 528.562 1050.1 516.551 1039.2C504.246 1027.95 498.094 1013.42 498.094 995.607C498.094 978.381 504.334 963.908 516.814 952.189C529.119 940.705 544.119 934.963 561.814 934.963C579.861 934.963 594.861 940.559 606.814 951.75C618.943 963.117 625.008 977.561 625.008 995.08ZM607.166 998.068C607.166 981.018 602.508 967.541 593.191 957.639C584.227 948.146 572.391 943.4 557.684 943.4C545.496 943.4 535.477 947.912 527.625 956.936C519.832 965.9 515.936 977.59 515.936 992.004C515.936 1009.29 520.477 1022.88 529.559 1032.79C538.406 1042.39 550.418 1047.2 565.594 1047.2C577.84 1047.2 587.83 1042.69 595.564 1033.66C603.299 1024.64 607.166 1012.78 607.166 998.068ZM751.57 1053.18C751.629 1054.52 750.486 1055.2 748.143 1055.2C727.107 1055.2 707.244 1037.18 688.553 1001.14C681.346 1001.5 677.508 1001.67 677.039 1001.67V1038.59C677.039 1041.34 677.713 1043.19 679.061 1044.12C680.408 1045 683.396 1045.79 688.025 1046.5C691.248 1047.02 692.859 1048.17 692.859 1049.92C692.859 1051.39 692.596 1052.3 692.068 1052.65C691.541 1053 690.076 1053.12 687.674 1053C677.068 1052.53 665.496 1052.77 652.957 1053.7C650.438 1053.88 649.178 1052.85 649.178 1050.63C649.178 1049.1 650.438 1048.22 652.957 1047.99C658.699 1047.4 661.57 1044.27 661.57 1038.59V954.387C661.57 948.82 658.318 945.393 651.814 944.104C648.592 943.459 646.98 942.434 646.98 941.027C646.98 938.859 648.064 937.775 650.232 937.775C650.877 937.775 651.58 937.834 652.342 937.951C654.744 938.303 658.406 938.479 663.328 938.479C664.969 938.479 669.1 938.391 675.721 938.215C682.342 938.039 688.494 937.951 694.178 937.951C705.896 937.951 715.154 940.148 721.951 944.543C729.568 949.406 733.377 956.584 733.377 966.076C733.377 982.307 724.002 993.029 705.252 998.244C711.229 1011.84 718.26 1023.5 726.346 1033.22C734.607 1043.19 742.049 1048.69 748.67 1049.75C750.486 1050.04 751.453 1051.18 751.57 1053.18ZM716.238 968.186C716.238 959.514 714.012 953.332 709.559 949.641C705.105 945.949 697.986 944.104 688.201 944.104C683.807 944.104 680.848 944.719 679.324 945.949C677.801 947.121 677.039 949.699 677.039 953.684V995.08C691.219 994.611 701.414 992.121 707.625 987.609C713.367 983.449 716.238 976.975 716.238 968.186ZM886.043 1051.24C885.691 1052.82 885.311 1053.76 884.9 1054.05C884.549 1054.29 883.729 1054.23 882.439 1053.88C874.061 1052.36 861.814 1052.18 845.701 1053.35C842.654 1053.59 840.984 1053 840.691 1051.59C840.398 1049.95 841.365 1048.69 843.592 1047.81C849.92 1045.24 853.084 1042.83 853.084 1040.61C853.084 1039.73 852.732 1038.47 852.029 1036.83C847.693 1026.46 844.09 1018.11 841.219 1011.78C837.059 1012.01 829.734 1012.13 819.246 1012.13C810.574 1012.13 803.191 1011.9 797.098 1011.43C795.047 1016.47 792.176 1023.5 788.484 1032.52C787.664 1034.57 787.254 1036.42 787.254 1038.06C787.254 1041.34 789.041 1043.74 792.615 1045.27C798.123 1047.61 800.818 1049.4 800.701 1050.63C800.584 1052.62 798.738 1053.41 795.164 1053C784.148 1051.83 773.953 1052.18 764.578 1054.05C762.117 1054.58 760.74 1053.7 760.447 1051.42C760.213 1049.89 762.117 1048.25 766.16 1046.5C770.496 1044.68 774.158 1040.49 777.146 1033.93C788.572 1009.14 795.955 992.854 799.295 985.061C807.381 966.369 813.094 951.105 816.434 939.27C816.902 937.453 819.217 935.754 823.377 934.172C824.373 933.82 825.633 935.52 827.156 939.27C839.812 969.738 853.992 1002.32 869.695 1037C872.215 1042.51 876.463 1046.17 882.439 1047.99C885.135 1048.75 886.336 1049.84 886.043 1051.24ZM838.318 1004.92C834.451 996.135 828.416 982.512 820.213 964.055C819.744 963.059 819.217 962.561 818.631 962.561C818.045 962.561 817.547 963.059 817.137 964.055L800.35 1004.57C806.619 1005.04 813.65 1005.28 821.443 1005.28C826.248 1005.28 831.873 1005.16 838.318 1004.92Z" fill="#0E0064"/>
<defs>
<linearGradient id="paint0_linear_342_70" x1="802.898" y1="624.076" x2="499.347" y2="624.076" gradientUnits="userSpaceOnUse">
<stop offset="0.00312487" stop-color="#4961F5"/>
<stop offset="0.982292" stop-color="#7D47F5"/>
</linearGradient>
<linearGradient id="paint1_linear_342_70" x1="203.874" y1="612.47" x2="555.308" y2="613.553" gradientUnits="userSpaceOnUse">
<stop stop-color="#8F3EF5"/>
<stop offset="0.961458" stop-color="#8046F5"/>
</linearGradient>
</defs>
</svg>
