<svg width="30" height="30" viewBox="0 0 30 30" fill="none" xmlns="http://www.w3.org/2000/svg">
<path d="M15 20C15.3542 20 15.6513 19.88 15.8913 19.64C16.1304 19.4008 16.25 19.1042 16.25 18.75V14.75L17.375 15.875C17.6042 16.1042 17.8958 16.2188 18.25 16.2188C18.6042 16.2188 18.8958 16.1042 19.125 15.875C19.3542 15.6458 19.4688 15.3542 19.4688 15C19.4688 14.6458 19.3542 14.3542 19.125 14.125L15.875 10.875C15.75 10.75 15.6146 10.6613 15.4688 10.6088C15.3229 10.5571 15.1667 10.5312 15 10.5312C14.8333 10.5312 14.6771 10.5571 14.5312 10.6088C14.3854 10.6613 14.25 10.75 14.125 10.875L10.875 14.125C10.6458 14.3542 10.5312 14.6458 10.5312 15C10.5312 15.3542 10.6458 15.6458 10.875 15.875C11.1042 16.1042 11.3958 16.2188 11.75 16.2188C12.1042 16.2188 12.3958 16.1042 12.625 15.875L13.75 14.75V18.75C13.75 19.1042 13.87 19.4008 14.11 19.64C14.3492 19.88 14.6458 20 15 20ZM15 27.5C13.2708 27.5 11.6458 27.1717 10.125 26.515C8.60417 25.8592 7.28125 24.9688 6.15625 23.8438C5.03125 22.7188 4.14083 21.3958 3.485 19.875C2.82833 18.3542 2.5 16.7292 2.5 15C2.5 13.2708 2.82833 11.6458 3.485 10.125C4.14083 8.60417 5.03125 7.28125 6.15625 6.15625C7.28125 5.03125 8.60417 4.14042 10.125 3.48375C11.6458 2.82792 13.2708 2.5 15 2.5C16.7292 2.5 18.3542 2.82792 19.875 3.48375C21.3958 4.14042 22.7188 5.03125 23.8438 6.15625C24.9688 7.28125 25.8592 8.60417 26.515 10.125C27.1717 11.6458 27.5 13.2708 27.5 15C27.5 16.7292 27.1717 18.3542 26.515 19.875C25.8592 21.3958 24.9688 22.7188 23.8438 23.8438C22.7188 24.9688 21.3958 25.8592 19.875 26.515C18.3542 27.1717 16.7292 27.5 15 27.5ZM15 25C17.7708 25 20.1304 24.0263 22.0788 22.0788C24.0263 20.1304 25 17.7708 25 15C25 12.2292 24.0263 9.86958 22.0788 7.92125C20.1304 5.97375 17.7708 5 15 5C12.2292 5 9.87 5.97375 7.9225 7.92125C5.97417 9.86958 5 12.2292 5 15C5 17.7708 5.97417 20.1304 7.9225 22.0788C9.87 24.0263 12.2292 25 15 25Z" fill="white"/>
</svg>
