<svg width="46" height="46" viewBox="0 0 46 46" fill="none" xmlns="http://www.w3.org/2000/svg">
<path d="M42.5105 19.8985L42.3074 19.0369H23.5804V26.9629H34.7695C33.6079 32.4793 28.2172 35.383 23.814 35.383C20.6102 35.383 17.2329 34.0354 14.9976 31.8693C13.8183 30.7081 12.8795 29.3258 12.2351 27.8014C11.5907 26.277 11.2533 24.6405 11.2421 22.9855C11.2421 19.6469 12.7425 16.3074 14.9257 14.1107C17.1089 11.9141 20.4062 10.685 23.6846 10.685C27.4392 10.685 30.13 12.6786 31.1362 13.5878L36.7686 7.98519C35.1163 6.53332 30.5774 2.87488 23.5031 2.87488C18.0451 2.87488 12.8117 4.96554 8.98617 8.77851C5.21094 12.5331 3.25684 17.9623 3.25684 22.9999C3.25684 28.0374 5.10582 33.1954 8.76426 36.9796C12.6734 41.0154 18.2095 43.1249 23.9101 43.1249C29.0968 43.1249 34.013 41.0926 37.517 37.4054C40.9616 33.7757 42.7432 28.7535 42.7432 23.4886C42.7432 21.2722 42.5204 19.956 42.5105 19.8985Z" fill="#6683F7"/>
</svg>
