<svg width="580" height="435" viewBox="0 0 580 435" fill="none" xmlns="http://www.w3.org/2000/svg">
<g clip-path="url(#clip0_936_2754)">
<path d="M529.972 387.778L530.843 368.219C539.919 363.372 550.042 360.811 560.333 360.76C546.169 372.33 547.939 394.632 538.337 410.191C535.304 415.02 531.223 419.106 526.396 422.146C521.568 425.185 516.118 427.1 510.449 427.749L498.596 435C496.969 425.941 497.328 416.638 499.647 407.731C501.966 398.824 506.19 390.525 512.028 383.406C515.343 379.444 519.144 375.916 523.341 372.903C526.18 380.382 529.972 387.778 529.972 387.778Z" fill="#F2F2F2"/>
<path d="M123.049 213.895C122.266 213.181 121.649 212.304 121.242 211.326C120.835 210.348 120.647 209.293 120.692 208.234C120.738 207.176 121.014 206.14 121.503 205.2C121.993 204.261 122.682 203.439 123.523 202.794L115.403 178.356L128.337 181.828L134.065 204.503C135.056 205.986 135.467 207.781 135.222 209.548C134.976 211.314 134.091 212.93 132.733 214.087C131.375 215.245 129.639 215.865 127.855 215.83C126.07 215.794 124.36 215.106 123.049 213.895V213.895Z" fill="#A0616A"/>
<path d="M146.491 81.118C148.637 82.3472 161.335 79.3014 163.815 80.1678C162.446 88.5127 169.881 85.3812 161.807 96.3401C153.733 107.299 137.472 140.157 133.778 152.437C130.084 164.718 133.74 182.024 133.187 187.844C132.919 191.217 132.936 194.605 133.237 197.975C128.874 197.92 124.575 198.824 120.144 198.246C115.42 184.889 112.243 165.877 110.086 155.369C107.929 144.862 107.85 149.305 108.839 144.051C109.829 138.797 110.068 142.615 109.029 137.589C107.99 132.562 112.193 126.247 116.076 122.646C117.751 117.834 119.915 113.347 121.572 108.586C133.72 97.9981 134.519 91.8819 146.491 81.118Z" fill="#4C60F5"/>
<path d="M499.432 421.447H488.699L483.594 380.087H499.434L499.432 421.447Z" fill="#FFB6B6"/>
<path d="M502.169 431.841L467.563 431.84V431.403C467.563 427.834 468.982 424.411 471.508 421.887C474.034 419.363 477.46 417.946 481.033 417.945H481.033L487.355 413.154L499.149 417.946L502.17 417.946L502.169 431.841Z" fill="#2F2E41"/>
<path d="M449.57 421.447H438.838L433.732 380.087H449.572L449.57 421.447Z" fill="#FFB6B6"/>
<path d="M452.308 431.841L417.702 431.84V431.403C417.702 427.834 419.121 424.411 421.647 421.887C424.173 419.363 427.599 417.946 431.171 417.945H431.172L437.493 413.154L449.288 417.946L452.308 417.946L452.308 431.841Z" fill="#2F2E41"/>
<path d="M444.925 195.329L514.734 197.072C527.992 204.267 528.194 219.839 523.849 238.328C523.849 238.328 525.316 249.317 522.383 252.247C519.45 255.178 517.983 255.178 519.45 260.306C520.916 265.434 513.168 273.81 514.109 274.75C515.05 275.691 517.25 280.819 517.25 280.819L509.918 322.577C509.918 322.577 504.785 395.105 503.318 396.57C501.852 398.035 500.385 396.57 501.852 400.233C503.318 403.896 504.785 402.431 503.318 403.896C502.019 405.295 500.795 406.763 499.652 408.292H481.924C481.924 408.292 480.587 400.966 480.587 400.233C480.587 399.501 479.121 395.105 479.121 394.372C479.121 393.64 480.417 392.345 480.417 392.345C480.865 390.855 481.168 389.326 481.321 387.779C481.321 386.314 485.72 329.903 485.72 329.903L476.921 256.643L455.657 328.438C455.657 328.438 455.657 391.442 454.19 392.907C452.724 394.372 452.724 393.64 453.457 396.57C454.19 399.5 457.123 398.768 454.923 400.966C452.724 403.163 451.99 399.5 452.724 403.163L453.457 406.826L431.459 407.141C431.459 407.141 428.526 400.966 429.993 398.768C431.459 396.57 431.371 397.17 429.582 393.573C427.793 389.977 427.06 389.244 427.793 388.511C428.526 387.779 428.526 383.882 428.526 383.882L432.193 313.786C432.193 313.786 432.926 239.793 432.926 237.595C432.981 236.464 432.773 235.336 432.317 234.299V231.316L435.126 220.745L444.925 195.329Z" fill="#2F2E41"/>
<path d="M486.86 50.3008C498.839 50.3008 508.55 40.5985 508.55 28.63C508.55 16.6616 498.839 6.95926 486.86 6.95926C474.881 6.95926 465.17 16.6616 465.17 28.63C465.17 40.5985 474.881 50.3008 486.86 50.3008Z" fill="#FFB6B6"/>
<path d="M476.015 64.6237C471.342 67.3992 468.547 72.4989 466.942 77.6883C463.972 87.2958 462.183 97.2291 461.617 107.269L459.923 137.326L438.932 201.325C457.124 216.704 525.504 204.82 525.504 204.82C525.504 204.82 527.603 204.121 525.504 202.024C523.405 199.927 521.361 201.785 523.46 199.688C525.559 197.591 524.112 199.927 523.412 197.83C522.713 195.733 523.412 197.131 524.112 196.432C524.812 195.733 518.696 189.441 518.696 189.441L524.293 152.705L531.29 78.6047C522.894 68.1189 506.008 61.9375 506.008 61.9375L501.645 54.091L479.829 55.8346L476.015 64.6237Z" fill="#3F3D56"/>
<path d="M473.04 15.912C473.88 15.9185 474.715 16.028 475.527 16.238C477.129 16.6228 478.756 16.8953 480.396 17.0537C485.417 17.5257 490.135 19.6652 493.797 23.1305C497.458 26.5959 499.852 31.1872 500.595 36.1711C501.855 35.0732 504.723 33.0537 507.074 34.9306C507.11 34.9604 507.131 34.9757 507.213 34.9366C508.775 34.1967 511.546 25.0892 511.63 17.0703C511.674 12.8141 511.003 7.3792 507.558 5.65809L507.377 5.56741L507.329 5.3703C507.099 4.4129 504.527 2.77864 500.057 1.50664C491.935 -0.804919 480.066 -1.1391 473.248 5.48781C472.732 7.72189 470.814 8.33405 469.118 8.87597C467.24 9.47579 465.619 9.99343 465.363 12.2948C465.149 15.5698 465.165 18.8556 465.409 22.1285C466.046 20.1258 467.295 18.3729 468.98 17.1167C470.179 16.3105 471.596 15.8901 473.04 15.912Z" fill="#2F2E41"/>
<path d="M432.669 135.652L468.1 112.982L450.254 89.2806L432.633 110.937L377.729 114.301C376.285 112.875 374.457 111.9 372.467 111.494C370.478 111.087 368.413 111.269 366.525 112.015C364.637 112.761 363.007 114.04 361.833 115.695C360.66 117.351 359.994 119.312 359.917 121.339C359.84 123.367 360.355 125.373 361.399 127.113C362.444 128.852 363.972 130.251 365.798 131.138C367.624 132.025 369.669 132.362 371.684 132.108C373.698 131.854 375.595 131.02 377.144 129.707L432.669 135.652Z" fill="#FFB6B6"/>
<path d="M500.984 81.3379C503.041 93.7718 464.207 117.515 464.207 117.515C464.207 114.597 441.029 136.629 439.983 134.208C437.01 127.329 434.919 111.036 430.764 108.428C428.388 106.937 445.075 92.9262 445.075 92.9262C445.075 92.9262 453.809 84.1347 465.271 73.0456C468.453 69.8505 472.393 67.5118 476.723 66.2471C481.054 64.9825 485.634 64.833 490.038 65.8127C490.038 65.8127 498.928 68.9041 500.984 81.3379Z" fill="#3F3D56"/>
<path d="M461.505 224.099C461.52 237.405 459.29 250.619 454.908 263.184C454.707 263.768 454.498 264.343 454.288 264.927C445.318 289.267 428.633 310.011 406.774 324.003C405.282 324.962 403.773 325.877 402.237 326.767C384.773 336.882 365.003 342.351 344.819 342.652C344.156 342.66 343.492 342.669 342.829 342.669C341.974 342.669 341.128 342.66 340.281 342.643C320.07 342.241 300.3 336.664 282.863 326.444C281.327 325.546 279.815 324.613 278.326 323.646C254.057 307.927 236.362 283.903 228.559 256.078C220.756 228.254 223.381 198.541 235.943 172.513C236.222 171.929 236.51 171.353 236.807 170.769C246.7 151.153 261.851 134.667 280.571 123.148C299.29 111.629 320.844 105.529 342.829 105.529C364.815 105.529 386.368 111.629 405.088 123.148C423.808 134.667 438.958 151.153 448.852 170.769C449.148 171.353 449.436 171.929 449.716 172.513C457.501 188.596 461.532 206.234 461.505 224.099Z" fill="#F2F2F2"/>
<path d="M424.785 263.184V264.927H435.414V263.184H424.785ZM403.528 263.184V264.927H414.157V263.184H403.528ZM382.271 263.184V264.927H392.9V263.184H382.271ZM361.015 263.184V264.927H371.643V263.184H361.015ZM339.758 263.184V264.927H350.386V263.184H339.758ZM318.501 263.184V264.927H329.129V263.184H318.501ZM297.244 263.184V264.927H307.872V263.184H297.244ZM275.996 263.184V264.927H286.616V263.184H275.996ZM254.739 263.184V264.927H265.367V263.184H254.739ZM233.482 263.184V264.927H244.11V263.184H233.482ZM454.908 263.184H446.042V264.927H454.288L454.908 263.184Z" fill="#E6E6E6"/>
<path d="M446.042 250.978V252.722H456.67V250.978H446.042ZM424.785 250.978V252.722H435.414V250.978H424.785ZM403.528 250.978V252.722H414.157V250.978H403.528ZM382.271 250.978V252.722H392.9V250.978H382.271ZM361.015 250.978V252.722H371.643V250.978H361.015ZM339.758 250.978V252.722H350.386V250.978H339.758ZM318.501 250.978V252.722H329.129V250.978H318.501ZM297.244 250.978V252.722H307.872V250.978H297.244ZM275.996 250.978V252.722H286.616V250.978H275.996ZM254.739 250.978V252.722H265.367V250.978H254.739ZM233.482 250.978V252.722H244.111V250.978H233.482Z" fill="#E6E6E6"/>
<path d="M446.042 225.695V227.438H456.67V225.695H446.042ZM424.785 225.695V227.438H435.414V225.695H424.785ZM403.528 225.695V227.438H414.157V225.695H403.528ZM382.271 225.695V227.438H392.9V225.695H382.271ZM361.014 225.695V227.438H371.643V225.695H361.014ZM339.758 225.695V227.438H350.386V225.695H339.758ZM318.501 225.695V227.438H329.129V225.695H318.501ZM297.244 225.695V227.438H307.872V225.695H297.244ZM275.996 225.695V227.438H286.616V225.695H275.996ZM254.739 225.695V227.438H265.367V225.695H254.739ZM233.482 225.695V227.438H244.11V225.695H233.482Z" fill="#E6E6E6"/>
<path d="M446.042 208.258V210.002H456.67V208.258H446.042ZM424.785 208.258V210.002H435.414V208.258H424.785ZM403.528 208.258V210.002H414.157V208.258H403.528ZM382.271 208.258V210.002H392.9V208.258H382.271ZM361.014 208.258V210.002H371.643V208.258H361.014ZM339.758 208.258V210.002H350.386V208.258H339.758ZM318.501 208.258V210.002H329.129V208.258H318.501ZM297.244 208.258V210.002H307.872V208.258H297.244ZM275.996 208.258V210.002H286.616V208.258H275.996ZM254.739 208.258V210.002H265.367V208.258H254.739ZM233.482 208.258V210.002H244.11V208.258H233.482Z" fill="#E6E6E6"/>
<path d="M448.852 170.769H446.042V172.513H449.716C449.436 171.928 449.149 171.353 448.852 170.769ZM424.785 170.769V172.513H435.414V170.769H424.785ZM403.528 170.769V172.513H414.157V170.769H403.528ZM382.271 170.769V172.513H392.9V170.769H382.271ZM361.015 170.769V172.513H371.643V170.769H361.015ZM339.758 170.769V172.513H350.386V170.769H339.758ZM318.501 170.769V172.513H329.129V170.769H318.501ZM297.244 170.769V172.513H307.872V170.769H297.244ZM275.996 170.769V172.513H286.616V170.769H275.996ZM254.739 170.769V172.513H265.367V170.769H254.739ZM236.807 170.769C236.51 171.353 236.222 171.928 235.943 172.513H244.111V170.769H236.807Z" fill="#E6E6E6"/>
<path d="M406.774 176.645V324.003C405.282 324.962 403.773 325.877 402.237 326.767V176.645H406.774Z" fill="#3F3D56"/>
<path d="M344.819 225.468V342.652C344.156 342.66 343.492 342.669 342.829 342.669C341.974 342.669 341.128 342.66 340.281 342.643V225.468H344.819Z" fill="#3F3D56"/>
<path d="M282.863 176.645V326.444C281.327 325.546 279.815 324.613 278.326 323.646V176.645H282.863Z" fill="#3F3D56"/>
<path d="M60.5188 377.21L58.788 353.157C47.4497 347.494 34.8993 344.682 22.2264 344.965C40.0554 358.734 38.6273 386.253 50.9748 405.087C54.8709 410.931 60.0335 415.825 66.0799 419.405C72.1263 422.985 78.9015 425.16 85.9035 425.768L100.741 434.297C102.439 423.089 101.684 411.646 98.5288 400.757C95.3736 389.868 89.8932 379.792 82.4652 371.223C78.2505 366.457 73.4518 362.241 68.1824 358.673C64.9391 367.976 60.5188 377.21 60.5188 377.21Z" fill="#F2F2F2"/>
<path d="M403.912 188.354C413.069 188.354 420.492 180.938 420.492 171.789C420.492 162.64 413.069 155.224 403.912 155.224C394.755 155.224 387.333 162.64 387.333 171.789C387.333 180.938 394.755 188.354 403.912 188.354Z" fill="#4C60F5"/>
<path d="M412.423 164.885C412.174 164.648 411.842 164.515 411.498 164.515C411.153 164.515 410.821 164.648 410.572 164.885C407.054 167.689 403.894 170.913 401.164 174.487C400.493 173.191 399.823 171.895 399.153 170.599C398.379 169.103 396.119 170.425 396.892 171.919C397.873 173.815 398.853 175.71 399.834 177.605C399.952 177.799 400.118 177.959 400.316 178.07C400.514 178.181 400.737 178.239 400.964 178.239C401.191 178.239 401.414 178.181 401.612 178.07C401.81 177.959 401.976 177.799 402.094 177.605C405.004 173.511 408.482 169.851 412.423 166.735C412.667 166.488 412.803 166.156 412.803 165.81C412.803 165.464 412.667 165.132 412.423 164.885Z" fill="white"/>
<path d="M342.829 237.177C351.986 237.177 359.409 229.76 359.409 220.612C359.409 211.463 351.986 204.047 342.829 204.047C333.672 204.047 326.25 211.463 326.25 220.612C326.25 229.76 333.672 237.177 342.829 237.177Z" fill="#4C60F5"/>
<path d="M351.34 213.708C351.091 213.471 350.759 213.338 350.415 213.338C350.07 213.338 349.738 213.471 349.489 213.708C345.971 216.512 342.811 219.736 340.081 223.31C339.41 222.014 338.74 220.718 338.07 219.422C337.296 217.926 335.036 219.248 335.809 220.742C336.79 222.638 337.77 224.533 338.751 226.429C338.869 226.622 339.035 226.782 339.233 226.893C339.431 227.004 339.654 227.062 339.881 227.062C340.108 227.062 340.331 227.004 340.529 226.893C340.727 226.782 340.893 226.622 341.011 226.429C343.921 222.334 347.399 218.674 351.34 215.558C351.584 215.312 351.72 214.979 351.72 214.633C351.72 214.287 351.584 213.955 351.34 213.708Z" fill="white"/>
<path d="M280.874 191.841C290.03 191.841 297.453 184.425 297.453 175.276C297.453 166.128 290.03 158.711 280.874 158.711C271.717 158.711 264.294 166.128 264.294 175.276C264.294 184.425 271.717 191.841 280.874 191.841Z" fill="#4C60F5"/>
<path d="M289.385 168.373C289.135 168.135 288.804 168.002 288.459 168.002C288.115 168.002 287.783 168.135 287.534 168.373C284.016 171.176 280.856 174.401 278.125 177.974C277.455 176.678 276.785 175.382 276.114 174.086C275.341 172.591 273.081 173.912 273.854 175.406C274.834 177.302 275.815 179.197 276.795 181.093C276.914 181.286 277.08 181.446 277.278 181.557C277.475 181.668 277.699 181.726 277.926 181.726C278.152 181.726 278.376 181.668 278.574 181.557C278.771 181.446 278.937 181.286 279.056 181.093C281.966 176.998 285.443 173.338 289.385 170.222C289.628 169.976 289.765 169.644 289.765 169.297C289.765 168.951 289.628 168.619 289.385 168.373Z" fill="white"/>
<path d="M518.641 163.497L529.556 122.899L500.389 117.383L501.957 145.248L463.634 184.673C461.605 184.591 459.596 185.099 457.852 186.138C456.107 187.176 454.703 188.699 453.81 190.521C452.917 192.343 452.573 194.385 452.822 196.398C453.07 198.412 453.9 200.31 455.209 201.86C456.518 203.411 458.251 204.547 460.196 205.131C462.14 205.715 464.213 205.721 466.161 205.148C468.109 204.575 469.848 203.449 471.166 201.905C472.484 200.362 473.324 198.469 473.584 196.457L518.641 163.497Z" fill="#FFB6B6"/>
<path d="M532.54 77.3808C542.441 85.1897 529.734 128.869 529.734 128.869C527.766 126.712 525.48 158.594 523.075 157.508C516.241 154.423 503.714 143.784 498.885 144.651C496.123 145.147 499.016 123.563 499.016 123.563C499.016 123.563 499.549 111.187 500.549 95.2771C500.748 90.774 502.084 86.3944 504.434 82.5461C506.783 78.6978 510.068 75.5059 513.984 73.2675C513.984 73.2675 522.64 69.5719 532.54 77.3808Z" fill="#3F3D56"/>
<path d="M190.587 168.527L202.586 222.028L125.693 217.25L146.603 164.706L190.587 168.527Z" fill="#A0616A"/>
<path d="M177.783 415.456L186.42 415.455L190.529 382.169H177.781L177.783 415.456Z" fill="#A0616A"/>
<path d="M174.858 411.198L188.512 410.384V416.229L201.493 425.186C202.134 425.628 202.617 426.264 202.871 427C203.125 427.736 203.137 428.534 202.905 429.277C202.673 430.02 202.21 430.67 201.582 431.131C200.954 431.592 200.196 431.841 199.416 431.841H183.161L180.359 426.06L179.265 431.841H173.136L174.858 411.198Z" fill="#2F2E41"/>
<path d="M96.1462 411.162L104.588 412.991L115.667 381.332L103.208 378.632L96.1462 411.162Z" fill="#A0616A"/>
<path d="M94.1915 406.382L107.708 408.479L106.468 414.19L117.253 425.694C117.786 426.262 118.123 426.985 118.215 427.758C118.307 428.531 118.15 429.314 117.765 429.991C117.381 430.668 116.79 431.205 116.079 431.523C115.368 431.841 114.573 431.923 113.812 431.758L97.9257 428.315L96.4143 422.071L94.1184 427.489L88.1287 426.191L94.1915 406.382Z" fill="#2F2E41"/>
<path d="M204.549 266.767C198.487 300.052 196.972 314.423 196.972 314.423C196.972 314.423 201.518 319.718 198.487 322.747C195.456 325.775 198.487 331.823 198.487 331.823L191.672 405.202L186.186 404.314L172.97 402.191L168.204 401.421L171.234 332.584C171.234 332.584 168.204 326.528 169.719 325.014C171.234 323.499 168.204 314.423 168.204 314.423L164.419 242.558L140.942 321.233C140.942 321.233 143.22 324.261 140.942 326.528C138.673 328.795 134.135 340.146 134.135 340.146L120.174 388.953L118.989 393.098L111.708 391.736L103.784 390.247L102.328 389.977L99.7368 389.486L98.069 389.173L97.5017 389.072L94.7587 388.555L95.5884 384.876L96.0201 382.939L107.831 330.529L108.102 329.319L108.389 328.042C108.389 328.042 106.874 324.261 109.143 321.985C109.807 321.292 110.292 320.447 110.556 319.525C110.82 318.602 110.855 317.629 110.658 316.69C110.584 316.611 110.516 316.526 110.455 316.436C110.187 316.069 110.002 315.647 109.913 315.201C109.71 314.254 109.888 312.926 111.42 311.395C111.852 310.937 112.214 310.418 112.496 309.856C114.798 305.499 115.958 296.271 115.958 296.271C115.958 296.271 118.007 223.179 124.712 212.013C125.068 211.43 132.186 200.225 132.559 199.996C140.128 195.463 199.096 201.725 199.096 201.725C199.096 201.725 202.667 211.311 202.828 212.309C203.7 217.918 209.688 238.531 204.549 266.767Z" fill="#2F2E41"/>
<path d="M186.631 90.7082C186.631 90.7082 187.907 84.0908 175.647 71.841C169.156 69.6792 157.909 70.9392 154.01 71.841C135.98 95.62 139.208 91.4243 134.515 104.71C133.297 108.156 132.689 111.466 133.23 114.168C135.394 124.977 138.906 180.46 138.185 183.342C137.464 186.225 132.415 189.828 137.464 189.828C142.512 189.828 207.618 188.689 206.175 186.527C204.733 184.366 186.631 90.7082 186.631 90.7082Z" fill="#4C60F5"/>
<path d="M263.954 178.629C262.965 179.011 261.904 179.173 260.846 179.101C259.788 179.03 258.759 178.728 257.831 178.216C256.903 177.704 256.098 176.995 255.473 176.139C254.849 175.283 254.42 174.3 254.217 173.261L228.7 169.64L237.572 159.616L260.443 164.591C262.214 164.366 264.006 164.797 265.48 165.804C266.953 166.81 268.006 168.322 268.439 170.052C268.872 171.783 268.654 173.611 267.827 175.192C267.001 176.773 265.622 177.996 263.954 178.629L263.954 178.629Z" fill="#A0616A"/>
<path d="M155.999 86.4487C158.057 85.0764 160.394 84.4319 162.275 82.5996C169.143 87.541 169.648 79.4954 175.873 91.5989C182.097 103.702 204.299 132.884 213.658 141.658C223.018 150.433 240.155 154.87 245.124 157.958C248.027 159.699 251.071 161.193 254.224 162.425C252.232 166.303 251.128 170.552 248.637 174.257C234.563 172.534 216.11 166.908 205.733 164.157C195.356 161.407 199.303 163.456 195.035 160.231C190.768 157.006 194.296 158.492 189.329 157.183C184.361 155.874 180.574 149.301 179.077 144.223C175.511 140.582 172.454 136.648 168.926 133.044C164.848 117.462 160.313 101.953 155.999 86.4487Z" fill="#4C60F5"/>
<path d="M172.111 62.6182C183.645 62.6182 192.996 53.2764 192.996 41.7527C192.996 30.2291 183.645 20.8873 172.111 20.8873C160.578 20.8873 151.227 30.2291 151.227 41.7527C151.227 53.2764 160.578 62.6182 172.111 62.6182Z" fill="#A0616A"/>
<path d="M186.065 79.8938C185.075 78.4814 177.674 64.4768 175.474 59.1807C175.248 60.3276 175.105 61.4894 175.046 62.6568L175.025 63.0919L174.592 63.1478C173.942 63.2308 158.582 65.0935 150.588 56.0374C145.852 50.6732 144.778 42.6271 147.392 32.118C146.916 32.0247 146.461 31.8495 146.046 31.6C145.355 31.122 144.776 30.4991 144.351 29.7748C143.925 29.0504 143.663 28.242 143.582 27.406L143.14 27.5246C128.918 20.6107 141.17 0.385028 154.16 10.4408C155.299 10.1864 156.487 10.2546 157.589 10.6377C158.653 11.07 159.58 11.7817 160.271 12.6974C160.963 13.6131 161.393 14.6987 161.517 15.8391C168.229 12.3121 177.111 12.886 181.705 15.5323C183.628 16.6404 184.733 18.0361 184.929 19.593C190.355 19.8957 196.191 25.1765 196.191 32.6583V33.1793H195.669C193.487 33.2258 191.357 33.8645 189.51 35.0272C187.662 36.1899 186.166 37.8328 185.182 39.7799C183.847 42.1885 183.187 44.9118 183.27 47.6635C183.353 50.4152 184.176 53.0937 185.653 55.4177C187.261 57.8827 188.358 60.6442 188.881 63.5396C189.404 66.435 189.342 69.4057 188.698 72.2766L186.739 80.8554L186.065 79.8938Z" fill="#2F2E41"/>
<path d="M246.662 432.014C246.662 432.15 246.635 432.285 246.583 432.411C246.531 432.537 246.455 432.652 246.358 432.748C246.262 432.845 246.147 432.921 246.021 432.973C245.895 433.025 245.76 433.051 245.623 433.051H1.03841C0.763009 433.051 0.498881 432.942 0.304142 432.747C0.109402 432.553 0 432.289 0 432.014C0 431.738 0.109402 431.474 0.304142 431.28C0.498881 431.085 0.763009 430.976 1.03841 430.976H245.623C245.76 430.976 245.895 431.002 246.021 431.054C246.147 431.106 246.262 431.183 246.358 431.279C246.455 431.375 246.531 431.49 246.583 431.616C246.635 431.742 246.662 431.877 246.662 432.014Z" fill="#CCCCCC"/>
<path d="M580 432.014C580 432.15 579.974 432.285 579.922 432.411C579.87 432.537 579.793 432.652 579.697 432.748C579.6 432.845 579.486 432.921 579.359 432.973C579.233 433.025 579.098 433.051 578.962 433.051H334.377C334.101 433.051 333.837 432.942 333.643 432.747C333.448 432.553 333.338 432.289 333.338 432.014C333.338 431.738 333.448 431.474 333.643 431.28C333.837 431.085 334.101 430.976 334.377 430.976H578.962C579.098 430.976 579.233 431.002 579.359 431.054C579.486 431.106 579.6 431.183 579.697 431.279C579.793 431.375 579.87 431.49 579.922 431.616C579.974 431.742 580 431.877 580 432.014Z" fill="#CCCCCC"/>
<path d="M280.358 357.243C285.462 357.243 289.6 353.109 289.6 348.01C289.6 342.91 285.462 338.776 280.358 338.776C275.254 338.776 271.117 342.91 271.117 348.01C271.117 353.109 275.254 357.243 280.358 357.243Z" fill="#E6E6E6"/>
<path d="M342.314 366.833C347.418 366.833 351.555 362.699 351.555 357.6C351.555 352.501 347.418 348.367 342.314 348.367C337.21 348.367 333.073 352.501 333.073 357.6C333.073 362.699 337.21 366.833 342.314 366.833Z" fill="#E6E6E6"/>
<path d="M404.27 355.5C409.373 355.5 413.511 351.366 413.511 346.266C413.511 341.167 409.373 337.033 404.27 337.033C399.166 337.033 395.028 341.167 395.028 346.266C395.028 351.366 399.166 355.5 404.27 355.5Z" fill="#E6E6E6"/>
</g>
<defs>
<clipPath id="clip0_936_2754">
<rect width="580" height="435" fill="white"/>
</clipPath>
</defs>
</svg>
