<svg width="614" height="552" viewBox="0 0 614 552" fill="none" xmlns="http://www.w3.org/2000/svg">
<path d="M603.355 509.581C598.833 525.267 585.629 536.248 571.855 545.575C569.932 546.878 568.008 548.151 566.084 549.393C566.071 549.399 566.058 549.411 566.044 549.417C565.952 549.477 565.859 549.536 565.773 549.596C565.376 549.852 564.978 550.108 564.584 550.361L564.801 550.458C564.801 550.458 565.013 550.571 564.781 550.477C564.712 550.448 564.639 550.422 564.57 550.392C556.569 547.166 548.425 543.701 542.293 537.656C535.932 531.379 532.215 521.534 535.659 513.287C536.112 512.207 536.684 511.181 537.364 510.227C537.643 509.828 537.944 509.445 538.258 509.069C540.158 506.751 542.641 504.98 545.452 503.939C548.264 502.898 551.301 502.625 554.253 503.147C557.205 503.669 559.965 504.968 562.249 506.91C564.532 508.853 566.257 511.368 567.246 514.198C568.258 504.777 560.489 496.886 553.013 491.063C545.533 485.244 537.034 478.906 535.588 469.538C534.78 464.326 536.593 459.274 539.895 455.219C539.998 455.096 540.1 454.973 540.205 454.853C544.225 450.13 549.878 447.098 556.037 446.361C567.506 445.169 578.646 451.239 586.978 459.212C600.389 472.041 608.496 491.746 603.355 509.581Z" fill="#F1F1F1"/>
<path d="M581.797 489.064C583.998 492.488 585.688 496.215 586.814 500.127C587.765 503.623 588.189 507.242 588.07 510.864C587.763 518.316 585.671 525.586 581.969 532.061C579.181 536.974 575.782 541.515 571.855 545.575C569.932 546.878 568.008 548.151 566.084 549.393C566.071 549.399 566.057 549.411 566.044 549.417C565.952 549.476 565.859 549.536 565.773 549.596C565.375 549.852 564.978 550.108 564.584 550.361C564.584 550.361 565.013 550.571 564.781 550.476C564.711 550.447 564.639 550.421 564.57 550.392C565.287 544.513 564.584 538.548 562.521 532.997C560.458 527.445 557.094 522.469 552.711 518.485C548.317 514.562 543.059 511.732 537.364 510.227C537.643 509.828 537.944 509.445 538.257 509.069C540.457 509.686 542.597 510.496 544.654 511.49C552.007 515.02 558.027 520.824 561.824 528.041C565.231 534.595 566.698 541.985 566.051 549.344C566.38 549.046 566.709 548.741 567.028 548.44C573.108 542.772 578.509 536.266 582.164 528.757C585.335 522.398 586.893 515.358 586.702 508.255C586.404 500.51 583.318 493.337 578.849 487.092C573.952 480.429 568.167 474.467 561.654 469.372C555.091 464.116 547.909 459.682 540.268 456.17C540.096 456.09 539.961 455.946 539.892 455.769C539.822 455.592 539.823 455.395 539.895 455.219C539.946 455.061 540.057 454.93 540.205 454.853C540.281 454.821 540.363 454.805 540.445 454.809C540.528 454.812 540.609 454.834 540.681 454.873C541.625 455.308 542.561 455.748 543.491 456.207C551.231 460.032 558.466 464.804 565.029 470.413C571.369 475.818 577.337 481.992 581.797 489.064Z" fill="white"/>
<path d="M400.729 538.563H388.713L382.997 492.22L400.731 492.221L400.729 538.563Z" fill="#FFB7B7"/>
<path d="M403.794 534.641L380.13 534.64H380.129C376.129 534.64 372.294 536.229 369.466 539.057C366.638 541.884 365.049 545.72 365.048 549.719V550.209L403.793 550.21L403.794 534.641Z" fill="#2F2E41"/>
<path d="M465.789 538.563H453.772L448.056 492.22L465.791 492.221L465.789 538.563Z" fill="#FFB7B7"/>
<path d="M468.854 534.641L445.189 534.64H445.188C441.189 534.64 437.353 536.229 434.525 539.057C431.697 541.884 430.108 545.72 430.108 549.719V550.209L468.853 550.21L468.854 534.641Z" fill="#2F2E41"/>
<path d="M470.684 328.527V450.887L467.586 529.879H442.028L433.507 381.188L416.468 442.369L405.625 528.33L374.644 526.782L395.556 328.527H470.684Z" fill="#2F2E41"/>
<path d="M440.972 218.557C430.706 218.557 422.384 210.236 422.384 199.971C422.384 189.706 430.706 181.385 440.972 181.385C451.238 181.385 459.561 189.706 459.561 199.971C459.561 210.236 451.238 218.557 440.972 218.557Z" fill="#FFB8B8"/>
<path d="M448.696 223.4L453.645 228.625L458.292 333.173L403.301 331.625L416.468 240.242L428.085 229.11L433.98 223.4H448.696Z" fill="#9649F6"/>
<path d="M457.518 234.82L453.343 228.046L452.096 242.565C452.096 242.565 442.027 275.091 442.802 303.745C443.576 332.399 438.929 399.774 445.125 400.549C451.322 401.323 477.655 402.872 477.655 397.451C477.655 392.03 479.204 247.986 479.204 247.986L457.518 234.82Z" fill="#2F2E41"/>
<path d="M429.333 228.046L418.792 236.369L395.556 244.888C395.556 244.888 395.556 344.015 390.909 367.248C386.262 390.481 377.742 392.804 388.586 393.579C399.429 394.353 398.654 390.481 398.654 390.481C398.654 390.481 430.409 291.354 428.86 266.572C427.311 241.79 430.882 228.046 429.333 228.046Z" fill="#2F2E41"/>
<path d="M458.558 205.786C458.558 205.786 456.978 203.013 457.346 193.748C457.713 184.484 443.604 189.723 431.814 188.84C420.024 187.956 422.52 204.307 422.52 204.307C422.52 204.307 421.669 203.335 419.848 195.444C418.027 187.552 422.162 179.688 422.162 179.688C423.38 171.395 429.942 174.053 429.942 174.053C426.782 175.283 427.389 177.914 427.389 177.914C430.064 173.224 436.627 175.881 436.627 175.881C445.38 170.389 454.251 177.622 454.251 177.622C464.824 180.021 458.623 188.429 458.623 188.429C469.257 193.803 458.558 205.786 458.558 205.786Z" fill="#2F2E41"/>
<path d="M477.629 386.253C476.841 385.42 476.245 384.425 475.884 383.338C475.522 382.25 475.403 381.096 475.536 379.958C475.668 378.819 476.049 377.724 476.651 376.748C477.253 375.773 478.061 374.941 479.019 374.312L475.671 356.711L485.872 352.067L490.251 376.99C491.202 378.669 491.503 380.639 491.099 382.526C490.694 384.412 489.611 386.085 488.055 387.227C486.499 388.369 484.578 388.901 482.657 388.721C480.735 388.541 478.946 387.663 477.629 386.253V386.253Z" fill="#FFB7B7"/>
<path d="M475.331 247.986L477.388 246.883C477.388 246.883 488.498 251.084 487.724 254.181C486.949 257.279 493.92 365.699 491.596 369.572C489.273 373.444 470.684 370.346 470.684 370.346L475.331 247.986Z" fill="#2F2E41"/>
<path d="M386.914 378.953C387.809 378.238 388.537 377.335 389.046 376.308C389.554 375.28 389.831 374.154 389.858 373.008C389.884 371.862 389.659 370.725 389.198 369.675C388.736 368.626 388.051 367.69 387.189 366.935L392.941 349.966L383.481 343.956L375.695 368.033C374.521 369.565 373.95 371.474 374.089 373.398C374.229 375.323 375.07 377.13 376.453 378.476C377.836 379.822 379.665 380.614 381.593 380.702C383.521 380.79 385.414 380.168 386.914 378.954V378.953Z" fill="#FFB7B7"/>
<path d="M395.993 364.16C395.993 364.16 377.154 364.656 375.389 360.5C373.624 356.344 395.53 249.93 395.192 246.755C394.853 243.58 406.438 240.958 406.438 240.958L408.322 242.334L395.993 364.16Z" fill="#2F2E41"/>
<path d="M272.072 552H613.105C613.342 552 613.57 551.906 613.738 551.738C613.906 551.57 614 551.342 614 551.105C614 550.868 613.906 550.64 613.738 550.472C613.57 550.304 613.342 550.21 613.105 550.21H272.072C271.835 550.21 271.607 550.304 271.439 550.472C271.272 550.64 271.177 550.868 271.177 551.105C271.177 551.342 271.272 551.57 271.439 551.738C271.607 551.906 271.835 552 272.072 552Z" fill="#CBCBCB"/>
<path d="M-6.10352e-05 275.66H314.769V79.717H-6.10352e-05V275.66ZM307.445 268.337H7.32373V87.0401H307.445V268.337Z" fill="#E5E5E5"/>
<path d="M3.66202 83.3787H311.107V271.998H3.66202V83.3787Z" fill="white"/>
<path d="M3.66187 131.183V119.602H46.3114V83.3787H57.8939V119.602H133.824V83.3787H145.406V119.602H262.518V83.3787H274.101V119.602H311.107V131.183H274.101V176.222H311.107V187.803H274.101V236.058H311.107V247.639H211.684V271.998H200.101V247.639H145.406V271.998H133.824V247.639H3.66187V236.058H133.824V187.803H3.66187V176.222H46.3114V131.183L3.66187 131.183ZM145.406 131.183V145.338H262.518V131.183H145.406ZM262.518 156.92H145.406V176.222H262.518V156.92ZM262.518 236.058V187.803H211.684V236.058L262.518 236.058ZM145.406 236.058H200.101V187.803H145.406V236.058ZM57.8939 176.222H133.824V131.183H57.8939V176.222Z" fill="#E6E6E6"/>
<path d="M83.7381 55.5324C83.7381 86.2021 139.277 154.525 139.277 154.525C139.277 154.525 194.815 86.2021 194.815 55.5324C194.815 40.8043 188.964 26.6794 178.548 16.2651C168.133 5.85072 154.006 0 139.277 0C124.547 0 110.42 5.85072 100.005 16.2651C89.5895 26.6794 83.7381 40.8043 83.7381 55.5324Z" fill="#9649F6"/>
<path d="M113.887 53.118C113.887 58.1389 115.376 63.0471 118.166 67.2218C120.956 71.3966 124.921 74.6504 129.56 76.5718C134.199 78.4932 139.304 78.996 144.229 78.0164C149.154 77.0369 153.678 74.6191 157.229 71.0688C160.779 67.5184 163.198 62.995 164.177 58.0706C165.157 53.1461 164.654 48.0418 162.732 43.4031C160.811 38.7643 157.557 34.7995 153.381 32.0101C149.206 29.2206 144.297 27.7317 139.276 27.7317C135.941 27.7302 132.639 28.3858 129.558 29.661C126.477 30.9362 123.678 32.8061 121.32 35.1637C118.962 37.5214 117.092 40.3206 115.816 43.4013C114.541 46.4819 113.885 49.7838 113.887 53.118Z" fill="white"/>
<path d="M139.277 194.605C131.008 194.605 124.306 187.903 124.306 179.635C124.306 171.368 131.008 164.666 139.277 164.666C147.545 164.666 154.248 171.368 154.248 179.635C154.248 187.903 147.545 194.605 139.277 194.605Z" fill="#9649F6"/>
</svg>
