<svg width="488" height="327" viewBox="0 0 488 327" fill="none" xmlns="http://www.w3.org/2000/svg">
<g clip-path="url(#clip0_936_2709)">
<path d="M488 173.795C488 239.938 446.067 296.294 387.332 317.738C378.397 321.007 369.174 323.427 359.784 324.966C333.955 329.202 307.472 326.797 282.827 317.979C223.721 296.712 181.481 240.165 181.509 173.763C181.509 89.1848 250.121 20.591 334.754 20.591C366.74 20.5445 397.931 30.5485 423.92 49.1891C462.719 76.9795 488 122.435 488 173.795Z" fill="#E5E5E5"/>
<path d="M387.332 317.738C378.397 321.007 369.173 323.427 359.784 324.967C333.955 329.202 307.472 326.797 282.827 317.98L289.904 289.59L290.332 287.886L304.774 287.942L377.329 288.202L378.258 290.946L387.332 317.738Z" fill="#2F2E41"/>
<path d="M133.115 0H0V150.584H133.115V0Z" fill="#E6E6E6"/>
<path d="M130.509 3.18579H2.37341V147.399H130.509V3.18579Z" fill="white"/>
<path d="M66.5578 142.271C70.5246 142.271 73.7404 139.056 73.7404 135.09C73.7404 131.124 70.5246 127.909 66.5578 127.909C62.591 127.909 59.3752 131.124 59.3752 135.09C59.3752 139.056 62.591 142.271 66.5578 142.271Z" fill="#E6E6E6"/>
<path d="M65.3444 54.2339H24.0902V58.453H65.3444V54.2339Z" fill="#E6E6E6"/>
<path d="M86.3539 66.877H24.0902V71.0961H86.3539V66.877Z" fill="#9649F6"/>
<path d="M80.2422 79.5994H24.0902V83.8185H80.2422V79.5994Z" fill="#E6E6E6"/>
<path d="M110.801 91.9858H24.0902V96.205H110.801V91.9858Z" fill="#9649F6"/>
<path d="M95.6587 103.782H24.9916V108.001H95.6587V103.782Z" fill="#E6E6E6"/>
<path d="M189.286 245.03C189.792 245.55 190.256 246.109 190.675 246.701L255.739 245.11L263.329 231.243L285.759 239.96L274.706 265.813C273.814 267.902 272.267 269.644 270.299 270.78C268.332 271.915 266.049 272.381 263.793 272.109L190.282 263.231C188.548 265.426 186.187 267.041 183.512 267.861C180.838 268.681 177.977 268.668 175.31 267.823C172.643 266.978 170.297 265.342 168.583 263.131C166.87 260.921 165.87 258.241 165.717 255.448C165.563 252.656 166.264 249.883 167.726 247.498C169.188 245.114 171.341 243.231 173.899 242.099C176.458 240.968 179.3 240.642 182.048 241.165C184.796 241.688 187.32 243.035 189.283 245.027L189.286 245.03Z" fill="#9F616A"/>
<path d="M276.859 165.851L307.308 155.875L316.251 143.613L359.771 146.188L366.16 160.496L389.366 171.459L385.8 237.673L379.699 299.64C348.326 283.399 289.776 295.781 289.264 295.983L276.859 165.851Z" fill="#9649F6"/>
<path d="M283.368 255.476L252.396 243.087L252.528 242.536C252.661 241.979 265.843 186.911 267.593 178.061C269.417 168.841 276.078 166.292 276.361 166.188L276.567 166.112L288.824 169.842L294.207 212.127L283.368 255.476Z" fill="#9649F6"/>
<path d="M350.241 296.917C350.967 296.899 351.693 296.939 352.413 297.036L395.483 248.256L390.473 233.267L412.117 222.751L423.566 248.43C424.491 250.505 424.718 252.823 424.213 255.038C423.708 257.252 422.498 259.243 420.764 260.711L364.272 308.563C364.703 311.327 364.281 314.156 363.064 316.674C361.847 319.192 359.893 321.28 357.46 322.66C355.027 324.04 352.231 324.647 349.445 324.401C346.658 324.154 344.013 323.065 341.861 321.278C339.708 319.492 338.151 317.092 337.396 314.4C336.641 311.707 336.724 308.848 337.634 306.203C338.543 303.559 340.237 301.254 342.489 299.595C344.741 297.936 347.445 297.002 350.241 296.917Z" fill="#9F616A"/>
<path d="M392.045 253.004L374.079 210.754L381.086 181.325L388.636 171.788C389.189 171.552 389.786 171.433 390.387 171.438C390.988 171.444 391.582 171.574 392.13 171.821C394.917 172.941 397.285 176.375 399.178 182.027L416.016 229.975L392.045 253.004Z" fill="#9649F6"/>
<path d="M298.83 127.958V96.1049C298.812 90.4998 299.898 84.9459 302.026 79.7603C304.154 74.5747 307.284 69.859 311.235 65.8824C315.186 61.9058 319.883 58.7463 325.055 56.5841C330.228 54.422 335.776 53.2996 341.383 53.281C346.99 53.2624 352.545 54.3481 357.732 56.4759C362.919 58.6037 367.636 61.7321 371.614 65.6824C375.591 69.6327 378.752 74.3276 380.914 79.499C383.077 84.6704 384.2 90.217 384.218 95.8221C384.219 95.9164 384.219 96.0107 384.218 96.1049V127.958C384.217 129.478 383.612 130.935 382.537 132.01C381.461 133.085 380.004 133.689 378.483 133.691H304.565C303.045 133.689 301.587 133.085 300.512 132.01C299.437 130.935 298.832 129.478 298.83 127.958Z" fill="#2F2E41"/>
<path d="M332.751 132.949C350.038 132.949 364.053 118.938 364.053 101.656C364.053 84.373 350.038 70.3625 332.751 70.3625C315.464 70.3625 301.449 84.373 301.449 101.656C301.449 118.938 315.464 132.949 332.751 132.949Z" fill="#9F616A"/>
<path d="M288.73 98.6531C288.74 89.7014 292.302 81.1193 298.633 74.7895C304.965 68.4597 313.549 64.8992 322.503 64.8892H328.876C337.83 64.8992 346.414 68.4597 352.746 74.7895C359.077 81.1193 362.639 89.7015 362.648 98.6531V99.2901H349.181L344.588 86.4302L343.67 99.2901H336.71L334.393 92.8025L333.929 99.2901H288.73V98.6531Z" fill="#2F2E41"/>
<path d="M329.671 137.273C329.039 136.417 328.661 135.4 328.582 134.339C328.502 133.278 328.724 132.217 329.222 131.276C335.974 118.436 345.429 94.7089 332.88 80.0765L331.98 79.0264H368.413V133.711L335.316 139.549C334.981 139.608 334.642 139.638 334.302 139.639C333.398 139.639 332.508 139.424 331.703 139.014C330.898 138.603 330.203 138.007 329.673 137.275L329.671 137.273Z" fill="#2F2E41"/>
<path d="M66.442 11.728C63.4212 11.7279 60.4681 12.6233 57.9562 14.301C55.4443 15.9788 53.4865 18.3635 52.3303 21.1536C51.1741 23.9437 50.8715 27.014 51.4607 29.976C52.0499 32.9381 53.5044 35.659 55.6404 37.7946C57.7764 39.9303 60.4979 41.3847 63.4607 41.9741C66.4235 42.5634 69.4946 42.2612 72.2856 41.1056C75.0766 39.95 77.4622 37.993 79.1406 35.4819C80.8191 32.9709 81.715 30.0187 81.7152 26.9986V26.9978C81.7152 24.9926 81.3201 23.0069 80.5525 21.1543C79.7849 19.3017 78.6599 17.6184 77.2416 16.2004C75.8232 14.7825 74.1395 13.6577 72.2863 12.8904C70.4332 12.123 68.4471 11.728 66.4413 11.728H66.442ZM66.442 16.3086C67.3482 16.3086 68.2341 16.5772 68.9875 17.0805C69.741 17.5838 70.3283 18.2992 70.6751 19.1362C71.0218 19.9732 71.1126 20.8942 70.9358 21.7827C70.759 22.6712 70.3226 23.4874 69.6819 24.128C69.0411 24.7686 68.2247 25.2049 67.3359 25.3816C66.4472 25.5583 65.5259 25.4676 64.6887 25.121C63.8515 24.7743 63.1359 24.1872 62.6325 23.4339C62.129 22.6806 61.8603 21.7951 61.8603 20.8891C61.8603 19.6743 62.343 18.5092 63.2023 17.6502C64.0615 16.7912 65.2269 16.3086 66.442 16.3086ZM66.442 38.3613C64.6319 38.353 62.8511 37.9034 61.2541 37.0513C59.6572 36.1993 58.2922 34.9706 57.2777 33.4719C57.3513 30.4179 63.3873 28.7369 66.442 28.7369C69.4968 28.7369 75.5328 30.4179 75.6064 33.4719C74.5908 34.9695 73.2256 36.1974 71.6289 37.0493C70.0321 37.9012 68.2519 38.3515 66.442 38.3613Z" fill="#9649F6"/>
<path d="M66.6196 137.843C72.912 126.315 87.9858 119.014 100.316 125.595C105.867 128.556 110.279 133.795 111.679 139.987C113.305 147.179 109.88 154.038 106.345 160.081C104.426 163.361 102.323 166.574 100.735 170.033C99.0905 173.616 97.9152 177.757 99.1532 181.654C100.268 185.165 103.062 187.719 106.123 189.596C109.5 191.589 113.093 193.193 116.832 194.378C124.528 196.937 132.646 197.987 140.74 197.47C144.763 197.197 148.752 196.552 152.656 195.545C156.809 194.486 160.885 193.144 165.045 192.109C171.99 190.384 179.909 189.527 186.495 192.991C192.893 196.358 195.756 203.399 196.642 210.249C198.278 222.899 193.261 236.025 184.203 244.883C179.857 249.133 174.389 252.644 168.433 254.08C163.236 255.334 156.563 255.253 152.427 251.37C147.812 247.035 148.898 240.084 152.563 235.511C157.242 229.675 165.168 228.274 172.241 228.132C180.287 227.97 188.325 229.168 196.366 228.423C200.291 228.118 204.142 227.189 207.775 225.672C210.969 224.268 213.882 222.297 216.373 219.855C221.337 215.034 224.686 208.61 226.35 201.931C228.355 193.9 227.918 185.459 226.362 177.391C225.533 173.231 224.465 169.123 223.163 165.085C222.626 163.381 219.935 164.11 220.476 165.826C225.269 181.018 227.941 198.585 218.682 212.69C214.85 218.672 208.88 222.968 201.99 224.702C193.977 226.693 185.568 225.709 177.42 225.413C169.674 225.131 161.167 225.435 154.526 229.946C149.079 233.646 145.269 240.683 146.915 247.326C148.503 253.733 154.662 256.983 160.821 257.483C167.284 258.01 173.644 255.841 179.071 252.45C190.362 245.397 197.869 232.992 199.44 219.84C200.259 212.987 199.426 205.605 196.317 199.385C194.679 196.018 192.129 193.178 188.958 191.186C185.796 189.248 182.143 188.294 178.474 187.956C170.139 187.189 162.132 190.05 154.225 192.238C150.186 193.41 146.046 194.2 141.86 194.598C137.796 194.935 133.71 194.868 129.659 194.399C125.64 193.925 121.68 193.046 117.838 191.776C114.073 190.613 110.468 188.983 107.107 186.926C104.142 185.031 101.577 182.316 101.431 178.616C101.273 174.604 103.296 170.852 105.221 167.47C109.023 160.789 113.719 154.254 114.71 146.432C115.579 139.591 112.825 132.847 108.07 127.968C105.687 125.491 102.818 123.532 99.6422 122.216C96.4669 120.899 93.0538 120.251 89.6167 120.314C82.5614 120.516 75.806 123.584 70.6166 128.294C68.0428 130.632 65.8769 133.383 64.2081 136.433C63.3485 138.007 65.7536 139.414 66.6141 137.839L66.6196 137.843Z" fill="#3F3D56"/>
</g>
<defs>
<clipPath id="clip0_936_2709">
<rect width="488" height="327" fill="white"/>
</clipPath>
</defs>
</svg>
