<svg width="647" height="424" viewBox="0 0 647 424" fill="none" xmlns="http://www.w3.org/2000/svg">
<g clip-path="url(#clip0_1104_3284)">
<path d="M320.173 72.0804C331.013 72.0804 339.801 63.2849 339.801 52.435C339.801 41.5851 331.013 32.7896 320.173 32.7896C309.333 32.7896 300.546 41.5851 300.546 52.435C300.546 63.2849 309.333 72.0804 320.173 72.0804Z" fill="#FD6584"/>
<path d="M364.101 43.1325C363.548 41.3159 362.475 39.7009 361.016 38.4864C359.558 37.2719 357.776 36.511 355.89 36.2973C355.846 36.2936 355.802 36.2936 355.758 36.2973C355.705 36.2807 355.651 36.2684 355.596 36.2605C349.024 35.407 341.718 37.4819 336.8 41.9994C334.974 43.65 333.514 45.6652 332.514 47.915C331.603 46.6686 330.401 45.6635 329.014 44.9866C327.627 44.3097 326.096 43.9814 324.553 44.0301C322.564 44.1618 320.663 44.9043 319.111 46.1565C317.559 47.4087 316.43 49.1095 315.879 51.0272C315.818 51.2615 315.835 51.5092 315.927 51.7332C316.018 51.9573 316.179 52.1458 316.386 52.2707C316.977 52.7768 317.68 53.1349 318.437 53.3155C320.062 53.6613 321.701 53.9777 323.34 54.2646C326.545 54.8238 329.767 55.2775 333.007 55.6258C335.146 55.8539 337.29 56.0353 339.439 56.1702C343.879 56.4498 348.341 56.516 352.788 56.3763C354.993 56.3027 357.11 56.2291 359.125 55.2579C360.592 54.5354 361.846 53.4424 362.763 52.0868C363.626 50.7827 364.194 49.3052 364.425 47.7582C364.656 46.2112 364.545 44.6322 364.101 43.1325Z" fill="#E6E6E6"/>
<path d="M323.723 71.7538C323.685 70.9306 323.547 70.1152 323.311 69.3258C322.755 67.5093 321.681 65.8948 320.221 64.6806C318.761 63.4664 316.979 62.7052 315.093 62.4906C315.051 62.4869 315.009 62.4869 314.968 62.4906C314.912 62.4748 314.856 62.4625 314.799 62.4538C311.161 62.0078 307.471 62.3876 304 63.5648C298.663 65.3527 293.981 68.9579 291.724 74.1083C290.811 72.8611 289.609 71.8555 288.22 71.1786C286.832 70.5017 285.299 70.1738 283.756 70.2234C281.766 70.3551 279.866 71.0976 278.314 72.3498C276.761 73.6019 275.633 75.3028 275.081 77.2206C275.024 77.4549 275.043 77.7013 275.134 77.9246C275.225 78.1479 275.384 78.3367 275.589 78.464C276.181 78.9687 276.883 79.3266 277.64 79.5088C279.271 79.8546 280.903 80.171 282.55 80.4579C285.755 81.0171 288.975 81.4708 292.209 81.8191C298.78 82.5251 305.392 82.7759 311.998 82.5695C314.196 82.4959 316.32 82.4224 318.334 81.4512C319.8 80.7285 321.052 79.6354 321.966 78.28C323.254 76.3581 323.872 74.0636 323.723 71.7538Z" fill="#E6E6E6"/>
<path d="M579.351 310.133C579.633 323.528 577.786 336.882 573.88 349.697C573.743 350.162 573.579 350.628 573.415 351.093H492.882C494.033 345.419 495.861 339.903 498.326 334.665C505.027 320.428 515.969 308.244 526.775 296.142C541.656 279.467 556.181 262.93 558.479 241.245C564.378 250.245 569.086 259.973 572.485 270.185C568.323 271.729 564.504 274.073 561.242 277.085C560.339 277.934 559.382 279.166 559.847 280.343C560.285 281.329 561.488 281.658 562.555 281.877C565.127 282.369 567.698 282.862 570.269 283.328C572.294 283.738 574.345 284.122 576.397 284.505C578.2 292.933 579.189 301.515 579.351 310.133Z" fill="#F2F2F2"/>
<path d="M647 301.262C634.088 309.12 625.882 321.276 619.18 334.884C613.348 336.215 607.964 339.046 603.56 343.098C602.63 343.947 601.673 345.179 602.165 346.356C602.575 347.342 603.806 347.671 604.873 347.89C607.417 348.383 610.016 348.875 612.56 349.341C612.314 349.916 612.067 350.518 611.821 351.093H526.474C530.348 345.863 534.638 340.955 539.303 336.418C540.315 335.404 541.355 334.446 542.422 333.46C553.301 323.619 565.794 315.728 579.351 310.133C600.708 301.196 624.063 298.134 647 301.262Z" fill="#F2F2F2"/>
<path d="M540.698 351.093H464.706C464.291 345.002 464.328 338.889 464.816 332.803C467.852 295.211 488.286 259.398 519.115 237.713C515.176 251.759 517.2 265.723 521.304 279.741C520.729 279.933 520.155 280.097 519.635 280.316C515.473 281.859 511.654 284.203 508.392 287.216C507.489 288.065 506.532 289.297 506.997 290.474C507.407 291.46 508.638 291.788 509.705 292.007C512.276 292.5 514.848 292.993 517.392 293.458C519.443 293.869 521.495 294.252 523.547 294.663C524.504 294.827 525.462 295.019 526.419 295.211C526.556 295.539 526.638 295.841 526.775 296.142C531.589 309.421 536.841 322.81 539.303 336.418C539.913 339.832 540.333 343.278 540.562 346.74C540.644 348.191 540.698 349.642 540.698 351.093Z" fill="#F2F2F2"/>
<path d="M126.534 310.133C126.816 323.528 124.969 336.882 121.063 349.697C120.926 350.162 120.762 350.628 120.597 351.093H40.0642C41.2154 345.419 43.0431 339.903 45.508 334.665C52.2098 320.428 63.1519 308.244 73.9571 296.142C88.8383 279.467 103.364 262.93 105.662 241.245C111.56 250.245 116.268 259.973 119.667 270.185C115.506 271.729 111.686 274.073 108.425 277.085C107.522 277.934 106.564 279.166 107.029 280.343C107.467 281.329 108.671 281.658 109.738 281.877C112.309 282.369 114.88 282.862 117.452 283.328C119.476 283.738 121.528 284.122 123.579 284.505C125.382 292.933 126.372 301.515 126.534 310.133Z" fill="#F2F2F2"/>
<path d="M194.182 301.262C181.271 309.12 173.064 321.276 166.362 334.884C160.53 336.215 155.146 339.046 150.743 343.098C149.813 343.947 148.855 345.179 149.348 346.356C149.758 347.342 150.989 347.671 152.056 347.89C154.6 348.383 157.198 348.875 159.742 349.341C159.496 349.916 159.25 350.518 159.004 351.093H73.6562C77.5306 345.863 81.8211 340.955 86.4858 336.418C87.4979 335.404 88.5374 334.446 89.6043 333.46C100.484 323.619 112.976 315.728 126.534 310.133C147.891 301.196 171.246 298.134 194.182 301.262Z" fill="#F2F2F2"/>
<path d="M87.8809 351.093H11.8886C11.4736 345.002 11.5102 338.889 11.9981 332.803C15.0345 295.211 35.4686 259.398 66.2978 237.713C62.3586 251.759 64.3828 265.723 68.4861 279.741C67.9118 279.933 67.3373 280.097 66.8175 280.316C62.6558 281.859 58.8362 284.203 55.5746 287.216C54.6719 288.065 53.7145 289.297 54.1795 290.474C54.5897 291.46 55.8207 291.788 56.8876 292.007C59.4589 292.5 62.0304 292.993 64.5743 293.458C66.626 293.869 68.6776 294.252 70.7292 294.663C71.6866 294.827 72.6441 295.019 73.6015 295.211C73.7382 295.539 73.8204 295.841 73.9571 296.142C78.7716 309.421 84.0237 322.81 86.4858 336.418C87.0952 339.832 87.5153 343.278 87.7441 346.74C87.8262 348.191 87.8809 349.642 87.8809 351.093Z" fill="#F2F2F2"/>
<path d="M370.789 319.16L438.689 325.193L439.417 325.259V35.2652C439.174 35.096 438.932 34.9268 438.689 34.7575C424.538 24.8503 409.23 16.7112 393.106 10.5215L389.636 58.4197L389.32 62.8048L385.887 110.306L384.829 124.918L370.914 317.467L370.789 319.16Z" fill="#E6E6E6"/>
<path d="M202.871 29.8647C202.386 30.1737 201.901 30.4827 201.416 30.8064V325.259L202.871 325.126L270.036 319.159L269.912 317.467L255.996 124.918L254.938 110.306L251.505 62.8048L251.189 58.4196L247.55 8.18909C231.858 13.6333 216.862 20.9086 202.871 29.8647Z" fill="#E6E6E6"/>
<path d="M201.416 30.8064C200.438 31.4392 199.46 32.0866 198.497 32.7415V329.276C198.497 336.685 202.886 342.895 208.752 344.477C209.71 344.737 210.699 344.868 211.692 344.867H429.868C430.859 344.868 431.845 344.737 432.801 344.477C434.982 343.872 436.958 342.687 438.52 341.048C441.5 337.861 443.128 333.641 443.063 329.276V37.8992C441.857 37.0089 440.644 36.126 439.417 35.2651C439.174 35.0959 438.932 34.9267 438.689 34.7575V329.276C438.691 330.231 438.577 331.182 438.351 332.109C437.314 336.487 433.896 339.695 429.868 339.695H211.692C206.826 339.695 202.871 335.022 202.871 329.276V29.8646C202.386 30.1737 201.901 30.4827 201.416 30.8064Z" fill="#E6E6E6"/>
<path d="M440.876 58.4226H200.682V62.807H440.876V58.4226Z" fill="#E6E6E6"/>
<path d="M367.311 2.49424C365.856 2.13371 364.4 1.79526 362.93 1.47888V120.533H367.311V2.49424Z" fill="#E6E6E6"/>
<path d="M278.63 0C277.167 0.272232 275.704 0.551825 274.249 0.853488V120.533H278.63V0Z" fill="#E6E6E6"/>
<path d="M153.59 337.193C153.589 339.709 154.071 342.202 155.009 344.536C155.369 345.441 155.799 346.317 156.295 347.155C156.936 348.249 157.679 349.278 158.515 350.231C160.362 352.337 162.637 354.025 165.187 355.181C167.738 356.336 170.506 356.934 173.306 356.934H460.955C466.184 356.934 471.198 354.854 474.896 351.154C478.593 347.453 480.67 342.434 480.67 337.2C480.67 331.967 478.593 326.948 474.896 323.247C471.198 319.546 466.184 317.467 460.955 317.467H173.306C168.08 317.472 163.069 319.552 159.373 323.25C155.677 326.948 153.597 331.962 153.59 337.193Z" fill="#E6E6E6"/>
<path d="M200.682 124.92L439.416 124.92V110.305L200.682 110.305V124.92Z" fill="#E6E6E6"/>
<path d="M330.27 113.958H309.828C309.828 111.827 310.674 109.782 312.18 108.275C313.686 106.767 315.729 105.92 317.859 105.92H322.239C323.294 105.92 324.338 106.128 325.312 106.532C326.287 106.936 327.172 107.528 327.918 108.275C328.664 109.021 329.255 109.907 329.659 110.882C330.062 111.858 330.27 112.903 330.27 113.958H330.27Z" fill="#E6E6E6"/>
<path d="M0 348.465C6.38595 356.038 13.2931 363.156 20.6708 369.765H613.583C620.96 363.156 627.867 356.038 634.253 348.465H0Z" fill="#3F3D56"/>
<path d="M291.604 277.236V352.696H344.421V277.236C344.422 276.693 344.249 276.164 343.927 275.727C343.606 275.29 343.153 274.968 342.635 274.808C342.39 274.727 342.135 274.687 341.878 274.69H294.155C293.821 274.689 293.489 274.755 293.18 274.882C292.871 275.01 292.59 275.197 292.353 275.434C292.116 275.67 291.928 275.951 291.799 276.26C291.671 276.569 291.605 276.901 291.604 277.236ZM312.216 303.164C312.23 301.676 312.831 300.255 313.887 299.208C314.942 298.161 316.368 297.574 317.855 297.574C319.341 297.574 320.767 298.161 321.823 299.208C322.879 300.255 323.479 301.676 323.493 303.164V311.92C323.485 313.411 322.888 314.839 321.831 315.891C320.775 316.944 319.345 317.534 317.855 317.534C316.364 317.534 314.935 316.944 313.878 315.891C312.822 314.839 312.224 313.411 312.216 311.92V303.164Z" fill="#2F2E41"/>
<path d="M291.442 350.282V357.559C291.444 357.936 291.593 358.297 291.859 358.564C292.124 358.832 292.485 358.983 292.861 358.986H343.164C343.541 358.984 343.901 358.833 344.167 358.566C344.433 358.298 344.582 357.936 344.582 357.559V350.282H291.442Z" fill="#3F3D56"/>
<path d="M208.517 163.546V301.325C208.518 303.08 209.215 304.764 210.456 306.005C211.696 307.247 213.378 307.945 215.132 307.946H419.121C420.875 307.945 422.557 307.247 423.797 306.005C425.038 304.764 425.735 303.08 425.737 301.325V163.546C425.733 161.791 425.034 160.11 423.794 158.87C422.554 157.631 420.874 156.933 419.121 156.931H215.132C213.38 156.933 211.699 157.631 210.459 158.87C209.219 160.11 208.521 161.791 208.517 163.546Z" fill="#3F3D56"/>
<path d="M213.302 165.26V299.625C213.304 300.563 213.677 301.462 214.339 302.126C215.002 302.789 215.901 303.162 216.838 303.164H417.423C418.36 303.162 419.258 302.789 419.921 302.126C420.584 301.462 420.957 300.563 420.959 299.625V165.26C420.958 164.321 420.586 163.42 419.923 162.755C419.26 162.09 418.361 161.715 417.423 161.713H216.838C215.899 161.715 215 162.09 214.337 162.755C213.674 163.42 213.302 164.321 213.302 165.26Z" fill="#4C60F5"/>
<path d="M254.203 360.701C254.407 360.957 254.666 361.163 254.962 361.305C255.257 361.446 255.581 361.519 255.908 361.517H375.243C375.57 361.517 375.892 361.444 376.186 361.303C376.481 361.162 376.74 360.958 376.946 360.704C377.152 360.45 377.298 360.154 377.375 359.836C377.452 359.519 377.457 359.188 377.39 358.869L375.537 350.062C375.46 349.702 375.295 349.368 375.056 349.089C374.818 348.81 374.513 348.596 374.17 348.465C373.922 348.367 373.657 348.317 373.391 348.318H257.753C257.487 348.317 257.222 348.367 256.974 348.465C256.631 348.596 256.326 348.81 256.088 349.089C255.849 349.368 255.684 349.702 255.607 350.062L253.754 358.869C253.688 359.188 253.694 359.518 253.772 359.835C253.85 360.152 253.997 360.448 254.203 360.701Z" fill="#2F2E41"/>
<path d="M369.226 352.111H372.184C372.382 352.111 372.543 351.95 372.543 351.752V350.263C372.543 350.065 372.382 349.904 372.184 349.904H369.226C369.028 349.904 368.868 350.065 368.868 350.263V351.752C368.868 351.95 369.028 352.111 369.226 352.111Z" fill="#3F3D56"/>
<path d="M361.876 352.111H364.833C365.032 352.111 365.192 351.95 365.192 351.752V350.263C365.192 350.065 365.032 349.904 364.833 349.904H361.876C361.678 349.904 361.517 350.065 361.517 350.263V351.752C361.517 351.95 361.678 352.111 361.876 352.111Z" fill="#3F3D56"/>
<path d="M354.525 352.111H357.482C357.681 352.111 357.841 351.95 357.841 351.752V350.263C357.841 350.065 357.681 349.904 357.482 349.904H354.525C354.326 349.904 354.166 350.065 354.166 350.263V351.752C354.166 351.95 354.326 352.111 354.525 352.111Z" fill="#3F3D56"/>
<path d="M347.174 352.111H350.131C350.33 352.111 350.49 351.95 350.49 351.752V350.263C350.49 350.065 350.33 349.904 350.131 349.904H347.174C346.975 349.904 346.815 350.065 346.815 350.263V351.752C346.815 351.95 346.975 352.111 347.174 352.111Z" fill="#3F3D56"/>
<path d="M339.823 352.111H342.781C342.979 352.111 343.14 351.95 343.14 351.752V350.263C343.14 350.065 342.979 349.904 342.781 349.904H339.823C339.625 349.904 339.464 350.065 339.464 350.263V351.752C339.464 351.95 339.625 352.111 339.823 352.111Z" fill="#3F3D56"/>
<path d="M332.472 352.111H335.43C335.628 352.111 335.789 351.95 335.789 351.752V350.263C335.789 350.065 335.628 349.904 335.43 349.904H332.472C332.274 349.904 332.113 350.065 332.113 350.263V351.752C332.113 351.95 332.274 352.111 332.472 352.111Z" fill="#3F3D56"/>
<path d="M325.121 352.111H328.079C328.277 352.111 328.438 351.95 328.438 351.752V350.263C328.438 350.065 328.277 349.904 328.079 349.904H325.121C324.923 349.904 324.762 350.065 324.762 350.263V351.752C324.762 351.95 324.923 352.111 325.121 352.111Z" fill="#3F3D56"/>
<path d="M317.77 352.111H320.728C320.926 352.111 321.086 351.95 321.086 351.752V350.263C321.086 350.065 320.926 349.904 320.728 349.904H317.77C317.572 349.904 317.411 350.065 317.411 350.263V351.752C317.411 351.95 317.572 352.111 317.77 352.111Z" fill="#3F3D56"/>
<path d="M310.419 352.111H313.377C313.575 352.111 313.736 351.95 313.736 351.752V350.263C313.736 350.065 313.575 349.904 313.377 349.904H310.419C310.221 349.904 310.06 350.065 310.06 350.263V351.752C310.06 351.95 310.221 352.111 310.419 352.111Z" fill="#3F3D56"/>
<path d="M303.068 352.111H306.026C306.224 352.111 306.385 351.95 306.385 351.752V350.263C306.385 350.065 306.224 349.904 306.026 349.904H303.068C302.87 349.904 302.709 350.065 302.709 350.263V351.752C302.709 351.95 302.87 352.111 303.068 352.111Z" fill="#3F3D56"/>
<path d="M295.717 352.111H298.675C298.873 352.111 299.034 351.95 299.034 351.752V350.263C299.034 350.065 298.873 349.904 298.675 349.904H295.717C295.519 349.904 295.358 350.065 295.358 350.263V351.752C295.358 351.95 295.519 352.111 295.717 352.111Z" fill="#3F3D56"/>
<path d="M288.366 352.111H291.324C291.522 352.111 291.683 351.95 291.683 351.752V350.263C291.683 350.065 291.522 349.904 291.324 349.904H288.366C288.168 349.904 288.008 350.065 288.008 350.263V351.752C288.008 351.95 288.168 352.111 288.366 352.111Z" fill="#3F3D56"/>
<path d="M281.015 352.111H283.973C284.171 352.111 284.332 351.95 284.332 351.752V350.263C284.332 350.065 284.171 349.904 283.973 349.904H281.015C280.817 349.904 280.657 350.065 280.657 350.263V351.752C280.657 351.95 280.817 352.111 281.015 352.111Z" fill="#3F3D56"/>
<path d="M273.664 352.111H276.622C276.82 352.111 276.981 351.95 276.981 351.752V350.263C276.981 350.065 276.82 349.904 276.622 349.904H273.664C273.466 349.904 273.305 350.065 273.305 350.263V351.752C273.305 351.95 273.466 352.111 273.664 352.111Z" fill="#3F3D56"/>
<path d="M266.313 352.111H269.271C269.469 352.111 269.63 351.95 269.63 351.752V350.263C269.63 350.065 269.469 349.904 269.271 349.904H266.313C266.115 349.904 265.954 350.065 265.954 350.263V351.752C265.954 351.95 266.115 352.111 266.313 352.111Z" fill="#3F3D56"/>
<path d="M258.963 352.111H261.92C262.119 352.111 262.279 351.95 262.279 351.752V350.263C262.279 350.065 262.119 349.904 261.92 349.904H258.963C258.764 349.904 258.604 350.065 258.604 350.263V351.752C258.604 351.95 258.764 352.111 258.963 352.111Z" fill="#3F3D56"/>
<path d="M369.313 355.79H372.271C372.469 355.79 372.63 355.629 372.63 355.431V353.942C372.63 353.744 372.469 353.583 372.271 353.583H369.313C369.115 353.583 368.954 353.744 368.954 353.942V355.431C368.954 355.629 369.115 355.79 369.313 355.79Z" fill="#3F3D56"/>
<path d="M361.963 355.79H364.92C365.119 355.79 365.279 355.629 365.279 355.431V353.942C365.279 353.744 365.119 353.583 364.92 353.583H361.963C361.764 353.583 361.604 353.744 361.604 353.942V355.431C361.604 355.629 361.764 355.79 361.963 355.79Z" fill="#3F3D56"/>
<path d="M354.612 355.79H357.569C357.768 355.79 357.928 355.629 357.928 355.431V353.942C357.928 353.744 357.768 353.583 357.569 353.583H354.612C354.413 353.583 354.253 353.744 354.253 353.942V355.431C354.253 355.629 354.413 355.79 354.612 355.79Z" fill="#3F3D56"/>
<path d="M347.261 355.79H350.218C350.416 355.79 350.577 355.629 350.577 355.431V353.942C350.577 353.744 350.416 353.583 350.218 353.583H347.261C347.062 353.583 346.902 353.744 346.902 353.942V355.431C346.902 355.629 347.062 355.79 347.261 355.79Z" fill="#3F3D56"/>
<path d="M339.91 355.79H342.868C343.066 355.79 343.227 355.629 343.227 355.431V353.942C343.227 353.744 343.066 353.583 342.868 353.583H339.91C339.712 353.583 339.551 353.744 339.551 353.942V355.431C339.551 355.629 339.712 355.79 339.91 355.79Z" fill="#3F3D56"/>
<path d="M332.559 355.79H335.517C335.715 355.79 335.875 355.629 335.875 355.431V353.942C335.875 353.744 335.715 353.583 335.517 353.583H332.559C332.361 353.583 332.2 353.744 332.2 353.942V355.431C332.2 355.629 332.361 355.79 332.559 355.79Z" fill="#3F3D56"/>
<path d="M325.208 355.79H328.166C328.364 355.79 328.524 355.629 328.524 355.431V353.942C328.524 353.744 328.364 353.583 328.166 353.583H325.208C325.01 353.583 324.849 353.744 324.849 353.942V355.431C324.849 355.629 325.01 355.79 325.208 355.79Z" fill="#3F3D56"/>
<path d="M317.857 355.79H320.814C321.013 355.79 321.173 355.629 321.173 355.431V353.942C321.173 353.744 321.013 353.583 320.814 353.583H317.857C317.659 353.583 317.498 353.744 317.498 353.942V355.431C317.498 355.629 317.659 355.79 317.857 355.79Z" fill="#3F3D56"/>
<path d="M310.506 355.79H313.464C313.662 355.79 313.823 355.629 313.823 355.431V353.942C313.823 353.744 313.662 353.583 313.464 353.583H310.506C310.308 353.583 310.147 353.744 310.147 353.942V355.431C310.147 355.629 310.308 355.79 310.506 355.79Z" fill="#3F3D56"/>
<path d="M303.155 355.79H306.113C306.311 355.79 306.472 355.629 306.472 355.431V353.942C306.472 353.744 306.311 353.583 306.113 353.583H303.155C302.957 353.583 302.796 353.744 302.796 353.942V355.431C302.796 355.629 302.957 355.79 303.155 355.79Z" fill="#3F3D56"/>
<path d="M295.804 355.79H298.762C298.96 355.79 299.121 355.629 299.121 355.431V353.942C299.121 353.744 298.96 353.583 298.762 353.583H295.804C295.606 353.583 295.445 353.744 295.445 353.942V355.431C295.445 355.629 295.606 355.79 295.804 355.79Z" fill="#3F3D56"/>
<path d="M288.453 355.79H291.411C291.609 355.79 291.77 355.629 291.77 355.431V353.942C291.77 353.744 291.609 353.583 291.411 353.583H288.453C288.255 353.583 288.094 353.744 288.094 353.942V355.431C288.094 355.629 288.255 355.79 288.453 355.79Z" fill="#3F3D56"/>
<path d="M281.102 355.79H284.06C284.258 355.79 284.419 355.629 284.419 355.431V353.942C284.419 353.744 284.258 353.583 284.06 353.583H281.102C280.904 353.583 280.743 353.744 280.743 353.942V355.431C280.743 355.629 280.904 355.79 281.102 355.79Z" fill="#3F3D56"/>
<path d="M273.751 355.79H276.709C276.907 355.79 277.068 355.629 277.068 355.431V353.942C277.068 353.744 276.907 353.583 276.709 353.583H273.751C273.553 353.583 273.392 353.744 273.392 353.942V355.431C273.392 355.629 273.553 355.79 273.751 355.79Z" fill="#3F3D56"/>
<path d="M266.4 355.79H269.358C269.556 355.79 269.717 355.629 269.717 355.431V353.942C269.717 353.744 269.556 353.583 269.358 353.583H266.4C266.202 353.583 266.041 353.744 266.041 353.942V355.431C266.041 355.629 266.202 355.79 266.4 355.79Z" fill="#3F3D56"/>
<path d="M259.05 355.79H262.007C262.206 355.79 262.366 355.629 262.366 355.431V353.942C262.366 353.744 262.206 353.583 262.007 353.583H259.05C258.851 353.583 258.691 353.744 258.691 353.942V355.431C258.691 355.629 258.851 355.79 259.05 355.79Z" fill="#3F3D56"/>
<path d="M308.301 360.205H336.987C337.185 360.205 337.346 360.044 337.346 359.845V358.357C337.346 358.158 337.185 357.997 336.987 357.997H308.301C308.103 357.997 307.942 358.158 307.942 358.357V359.845C307.942 360.044 308.103 360.205 308.301 360.205Z" fill="#3F3D56"/>
<path d="M226.918 180.223H414.604C414.799 180.219 414.985 180.138 415.121 179.998C415.258 179.859 415.334 179.671 415.334 179.476C415.334 179.28 415.258 179.093 415.121 178.953C414.985 178.814 414.799 178.733 414.604 178.729H226.918C226.723 178.733 226.537 178.814 226.4 178.953C226.264 179.093 226.187 179.28 226.188 179.476C226.187 179.671 226.264 179.859 226.4 179.998C226.537 180.138 226.723 180.219 226.918 180.223Z" fill="#3F3D56"/>
<path d="M401.828 174.914C404.243 174.914 406.202 172.911 406.202 170.439C406.202 167.967 404.243 165.963 401.828 165.963C399.412 165.963 397.454 167.967 397.454 170.439C397.454 172.911 399.412 174.914 401.828 174.914Z" fill="#3F3D56"/>
<path d="M386.717 174.914C389.133 174.914 391.092 172.911 391.092 170.439C391.092 167.967 389.133 165.963 386.717 165.963C384.302 165.963 382.343 167.967 382.343 170.439C382.343 172.911 384.302 174.914 386.717 174.914Z" fill="#3F3D56"/>
<path d="M371.607 174.914C374.022 174.914 375.981 172.911 375.981 170.439C375.981 167.967 374.022 165.963 371.607 165.963C369.191 165.963 367.232 167.967 367.232 170.439C367.232 172.911 369.191 174.914 371.607 174.914Z" fill="#3F3D56"/>
<path d="M235.215 167.887C235.215 167.992 235.235 168.097 235.275 168.195C235.315 168.293 235.374 168.382 235.448 168.457C235.523 168.533 235.611 168.592 235.709 168.633C235.806 168.674 235.911 168.695 236.017 168.696H246.749C246.961 168.691 247.163 168.603 247.311 168.451C247.46 168.299 247.543 168.095 247.543 167.883C247.543 167.67 247.46 167.466 247.311 167.315C247.163 167.163 246.961 167.075 246.749 167.07H236.017C235.802 167.072 235.598 167.16 235.448 167.313C235.298 167.466 235.214 167.672 235.215 167.887Z" fill="#3F3D56"/>
<path d="M235.215 170.94C235.215 171.046 235.235 171.151 235.275 171.249C235.315 171.347 235.374 171.436 235.448 171.511C235.523 171.586 235.611 171.646 235.709 171.687C235.806 171.728 235.911 171.749 236.017 171.749H246.749C246.961 171.745 247.163 171.657 247.312 171.505C247.46 171.353 247.543 171.149 247.543 170.936C247.543 170.724 247.46 170.52 247.312 170.368C247.163 170.216 246.961 170.128 246.749 170.123H236.017C235.802 170.126 235.598 170.213 235.448 170.366C235.298 170.519 235.214 170.726 235.215 170.94Z" fill="#3F3D56"/>
<path d="M235.215 173.986C235.214 174.2 235.298 174.407 235.448 174.56C235.598 174.713 235.802 174.8 236.017 174.803H246.749C246.961 174.798 247.163 174.71 247.311 174.558C247.46 174.406 247.543 174.202 247.543 173.99C247.543 173.777 247.46 173.573 247.311 173.421C247.163 173.269 246.961 173.182 246.749 173.177H236.017C235.911 173.177 235.806 173.198 235.709 173.239C235.611 173.28 235.523 173.34 235.448 173.415C235.374 173.49 235.315 173.579 235.275 173.677C235.235 173.775 235.215 173.88 235.215 173.986Z" fill="#3F3D56"/>
<path d="M238.532 197.584H234.676C233.506 197.584 232.559 198.533 232.559 199.703C232.559 200.874 233.506 201.822 234.676 201.822H238.532C239.701 201.822 240.649 200.874 240.649 199.703C240.649 198.533 239.701 197.584 238.532 197.584Z" fill="#E6E6E6"/>
<path d="M282.638 197.584H278.781C277.612 197.584 276.664 198.533 276.664 199.703C276.664 200.874 277.612 201.822 278.781 201.822H282.638C283.807 201.822 284.755 200.874 284.755 199.703C284.755 198.533 283.807 197.584 282.638 197.584Z" fill="#E6E6E6"/>
<path d="M295.134 197.584H291.278C290.108 197.584 289.161 198.533 289.161 199.703C289.161 200.874 290.108 201.822 291.278 201.822H295.134C296.303 201.822 297.251 200.874 297.251 199.703C297.251 198.533 296.303 197.584 295.134 197.584Z" fill="#E6E6E6"/>
<path d="M270.641 197.231H246.673C245.503 197.231 244.556 198.18 244.556 199.35C244.556 200.52 245.503 201.469 246.673 201.469H270.641C271.81 201.469 272.758 200.52 272.758 199.35C272.758 198.18 271.81 197.231 270.641 197.231Z" fill="#E6E6E6"/>
<path d="M329.448 197.231H305.48C304.311 197.231 303.363 198.18 303.363 199.35C303.363 200.52 304.311 201.469 305.48 201.469H329.448C330.617 201.469 331.565 200.52 331.565 199.35C331.565 198.18 330.617 197.231 329.448 197.231Z" fill="#E6E6E6"/>
<path d="M250.294 207.149H246.437C245.268 207.149 244.32 208.098 244.32 209.268C244.32 210.439 245.268 211.387 246.437 211.387H250.294C251.463 211.387 252.411 210.439 252.411 209.268C252.411 208.098 251.463 207.149 250.294 207.149Z" fill="#E6E6E6"/>
<path d="M294.399 207.149H290.543C289.374 207.149 288.426 208.098 288.426 209.268C288.426 210.439 289.374 211.387 290.543 211.387H294.399C295.568 211.387 296.516 210.439 296.516 209.268C296.516 208.098 295.568 207.149 294.399 207.149Z" fill="#E6E6E6"/>
<path d="M306.896 207.149H303.039C301.87 207.149 300.922 208.098 300.922 209.268C300.922 210.439 301.87 211.387 303.039 211.387H306.896C308.065 211.387 309.013 210.439 309.013 209.268C309.013 208.098 308.065 207.149 306.896 207.149Z" fill="#E6E6E6"/>
<path d="M282.402 206.796H258.434C257.265 206.796 256.317 207.745 256.317 208.915C256.317 210.085 257.265 211.034 258.434 211.034H282.402C283.571 211.034 284.519 210.085 284.519 208.915C284.519 207.745 283.571 206.796 282.402 206.796Z" fill="#E6E6E6"/>
<path d="M341.21 206.796H317.242C316.072 206.796 315.125 207.745 315.125 208.915C315.125 210.085 316.072 211.034 317.242 211.034H341.21C342.379 211.034 343.327 210.085 343.327 208.915C343.327 207.745 342.379 206.796 341.21 206.796Z" fill="#E6E6E6"/>
<path d="M262.055 216.714H258.199C257.029 216.714 256.082 217.663 256.082 218.833C256.082 220.003 257.029 220.952 258.199 220.952H262.055C263.224 220.952 264.172 220.003 264.172 218.833C264.172 217.663 263.224 216.714 262.055 216.714Z" fill="#E6E6E6"/>
<path d="M306.16 216.714H302.304C301.135 216.714 300.187 217.663 300.187 218.833C300.187 220.003 301.135 220.952 302.304 220.952H306.16C307.33 220.952 308.278 220.003 308.278 218.833C308.278 217.663 307.33 216.714 306.16 216.714Z" fill="#E6E6E6"/>
<path d="M318.657 216.714H314.801C313.631 216.714 312.684 217.663 312.684 218.833C312.684 220.003 313.631 220.952 314.801 220.952H318.657C319.826 220.952 320.774 220.003 320.774 218.833C320.774 217.663 319.826 216.714 318.657 216.714Z" fill="#E6E6E6"/>
<path d="M294.164 216.361H270.196C269.026 216.361 268.079 217.31 268.079 218.48C268.079 219.65 269.026 220.599 270.196 220.599H294.164C295.333 220.599 296.281 219.65 296.281 218.48C296.281 217.31 295.333 216.361 294.164 216.361Z" fill="#E6E6E6"/>
<path d="M352.971 216.361H329.003C327.834 216.361 326.886 217.31 326.886 218.48C326.886 219.65 327.834 220.599 329.003 220.599H352.971C354.14 220.599 355.088 219.65 355.088 218.48C355.088 217.31 354.14 216.361 352.971 216.361Z" fill="#E6E6E6"/>
<path d="M273.817 226.279H269.96C268.791 226.279 267.843 227.228 267.843 228.398C267.843 229.568 268.791 230.517 269.96 230.517H273.817C274.986 230.517 275.934 229.568 275.934 228.398C275.934 227.228 274.986 226.279 273.817 226.279Z" fill="#E6E6E6"/>
<path d="M317.922 226.279H314.066C312.897 226.279 311.949 227.228 311.949 228.398C311.949 229.568 312.897 230.517 314.066 230.517H317.922C319.091 230.517 320.039 229.568 320.039 228.398C320.039 227.228 319.091 226.279 317.922 226.279Z" fill="#E6E6E6"/>
<path d="M330.419 226.279H326.562C325.393 226.279 324.445 227.228 324.445 228.398C324.445 229.568 325.393 230.517 326.562 230.517H330.419C331.588 230.517 332.536 229.568 332.536 228.398C332.536 227.228 331.588 226.279 330.419 226.279Z" fill="#E6E6E6"/>
<path d="M305.925 225.926H281.957C280.788 225.926 279.84 226.874 279.84 228.045C279.84 229.215 280.788 230.164 281.957 230.164H305.925C307.094 230.164 308.042 229.215 308.042 228.045C308.042 226.874 307.094 225.926 305.925 225.926Z" fill="#E6E6E6"/>
<path d="M282.638 264.313H278.781C277.612 264.313 276.664 265.262 276.664 266.432C276.664 267.603 277.612 268.551 278.781 268.551H282.638C283.807 268.551 284.755 267.603 284.755 266.432C284.755 265.262 283.807 264.313 282.638 264.313Z" fill="#E6E6E6"/>
<path d="M295.134 264.313H291.278C290.108 264.313 289.161 265.262 289.161 266.432C289.161 267.603 290.108 268.551 291.278 268.551H295.134C296.303 268.551 297.251 267.603 297.251 266.432C297.251 265.262 296.303 264.313 295.134 264.313Z" fill="#E6E6E6"/>
<path d="M329.448 264.667H305.48C304.311 264.667 303.363 265.615 303.363 266.786C303.363 267.956 304.311 268.905 305.48 268.905H329.448C330.617 268.905 331.565 267.956 331.565 266.786C331.565 265.615 330.617 264.667 329.448 264.667Z" fill="#E6E6E6"/>
<path d="M238.532 264.313H234.676C233.506 264.313 232.559 265.262 232.559 266.432C232.559 267.603 233.506 268.551 234.676 268.551H238.532C239.701 268.551 240.649 267.603 240.649 266.432C240.649 265.262 239.701 264.313 238.532 264.313Z" fill="#E6E6E6"/>
<path d="M270.641 264.667H246.673C245.503 264.667 244.556 265.615 244.556 266.786C244.556 267.956 245.503 268.905 246.673 268.905H270.641C271.81 268.905 272.758 267.956 272.758 266.786C272.758 265.615 271.81 264.667 270.641 264.667Z" fill="#E6E6E6"/>
<path d="M250.294 254.748H246.437C245.268 254.748 244.32 255.697 244.32 256.867C244.32 258.038 245.268 258.986 246.437 258.986H250.294C251.463 258.986 252.411 258.038 252.411 256.867C252.411 255.697 251.463 254.748 250.294 254.748Z" fill="#E6E6E6"/>
<path d="M294.399 254.748H290.543C289.374 254.748 288.426 255.697 288.426 256.867C288.426 258.038 289.374 258.986 290.543 258.986H294.399C295.568 258.986 296.516 258.038 296.516 256.867C296.516 255.697 295.568 254.748 294.399 254.748Z" fill="#E6E6E6"/>
<path d="M306.896 254.748H303.039C301.87 254.748 300.922 255.697 300.922 256.867C300.922 258.038 301.87 258.986 303.039 258.986H306.896C308.065 258.986 309.013 258.038 309.013 256.867C309.013 255.697 308.065 254.748 306.896 254.748Z" fill="#E6E6E6"/>
<path d="M282.402 255.102H258.434C257.265 255.102 256.317 256.05 256.317 257.221C256.317 258.391 257.265 259.34 258.434 259.34H282.402C283.571 259.34 284.519 258.391 284.519 257.221C284.519 256.05 283.571 255.102 282.402 255.102Z" fill="#E6E6E6"/>
<path d="M262.055 245.183H258.199C257.029 245.183 256.082 246.132 256.082 247.302C256.082 248.473 257.029 249.421 258.199 249.421H262.055C263.224 249.421 264.172 248.473 264.172 247.302C264.172 246.132 263.224 245.183 262.055 245.183Z" fill="#E6E6E6"/>
<path d="M306.16 245.183H302.304C301.135 245.183 300.187 246.132 300.187 247.302C300.187 248.473 301.135 249.421 302.304 249.421H306.16C307.33 249.421 308.278 248.473 308.278 247.302C308.278 246.132 307.33 245.183 306.16 245.183Z" fill="#E6E6E6"/>
<path d="M318.657 245.183H314.801C313.631 245.183 312.684 246.132 312.684 247.302C312.684 248.473 313.631 249.421 314.801 249.421H318.657C319.826 249.421 320.774 248.473 320.774 247.302C320.774 246.132 319.826 245.183 318.657 245.183Z" fill="#E6E6E6"/>
<path d="M294.164 245.537H270.196C269.026 245.537 268.079 246.485 268.079 247.656C268.079 248.826 269.026 249.775 270.196 249.775H294.164C295.333 249.775 296.281 248.826 296.281 247.656C296.281 246.485 295.333 245.537 294.164 245.537Z" fill="#E6E6E6"/>
<path d="M273.817 235.619H269.96C268.791 235.619 267.843 236.567 267.843 237.738C267.843 238.908 268.791 239.856 269.96 239.856H273.817C274.986 239.856 275.934 238.908 275.934 237.738C275.934 236.567 274.986 235.619 273.817 235.619Z" fill="#E6E6E6"/>
<path d="M317.922 235.619H314.066C312.897 235.619 311.949 236.567 311.949 237.738C311.949 238.908 312.897 239.856 314.066 239.856H317.922C319.091 239.856 320.039 238.908 320.039 237.738C320.039 236.567 319.091 235.619 317.922 235.619Z" fill="#E6E6E6"/>
<path d="M330.419 235.619H326.562C325.393 235.619 324.445 236.567 324.445 237.738C324.445 238.908 325.393 239.856 326.562 239.856H330.419C331.588 239.856 332.536 238.908 332.536 237.738C332.536 236.567 331.588 235.619 330.419 235.619Z" fill="#E6E6E6"/>
<path d="M305.925 235.972H281.957C280.788 235.972 279.84 236.921 279.84 238.091C279.84 239.261 280.788 240.21 281.957 240.21H305.925C307.094 240.21 308.042 239.261 308.042 238.091C308.042 236.921 307.094 235.972 305.925 235.972Z" fill="#E6E6E6"/>
<path d="M257.218 401.692C257.056 401.773 256.895 401.854 256.733 401.927C255.711 402.435 254.682 402.935 253.646 403.428C250.543 404.907 247.402 406.312 244.222 407.644C235.853 411.147 227.266 414.104 218.515 416.495C217.045 407.32 215.619 385.681 214.252 369.767C213.995 366.772 213.737 363.984 213.48 361.519C213.236 358.283 212.772 355.068 212.091 351.895C212.024 351.647 211.928 351.407 211.804 351.181C211.944 352.454 212.091 356.251 212.23 361.519C212.304 363.984 212.37 366.772 212.444 369.767C212.789 385.085 213.149 405.93 213.509 417.798C212.488 418.048 211.459 418.298 210.429 418.533C209.783 418.688 209.128 418.835 208.474 418.975C207.68 419.151 206.886 419.328 206.092 419.49C205.262 419.666 204.431 419.836 203.6 419.997C190.026 422.666 176.225 424.007 162.391 424C161.472 424 160.561 423.993 159.642 423.985C159.362 423.985 159.083 423.978 158.796 423.971C157.988 423.956 157.15 423.941 156.297 423.919C139.949 423.467 123.709 421.124 107.899 416.937L108.538 369.767L108.648 361.519L108.692 358.392C108.328 359.398 108.11 360.451 108.046 361.519C107.788 363.528 107.524 366.375 107.259 369.767C106.252 382.834 105.215 403.914 104.142 415.907C91.4325 412.287 82.1409 408.983 70.5264 403.171C70.078 402.95 69.6222 402.722 69.1738 402.494C69.2547 401.927 69.3429 401.361 69.4238 400.779C70.7396 391.626 69.1885 379.714 70.644 369.767C71.754 362.093 72.9008 354.721 74.0548 348.467C75.4515 340.94 76.8702 335.024 78.2743 332.147C79.8915 328.829 81.5087 325.562 83.0745 322.435C83.7508 321.089 84.4148 319.767 85.0666 318.469C85.4194 317.77 85.7722 317.079 86.1177 316.402C87.6908 313.319 89.1757 310.472 90.5357 307.948C91.4913 306.175 92.3734 304.571 93.182 303.166C94.1303 301.51 94.9683 300.142 95.6593 299.104C100.763 291.361 108.357 285.595 117.183 282.763L117.403 282.704L117.616 282.792L117.859 282.903L131.87 277.774L138.126 262.699L170.257 260.719L175.446 264.67L178.1 266.694L180.93 268.85L186.135 272.815L187.612 273.271L189.81 273.948L204.843 278.569L204.997 278.503L205.218 278.562C213.249 281.135 220.279 286.15 225.33 292.909C225.83 293.556 226.293 294.226 226.741 294.903C227.961 296.713 229.608 299.575 231.549 303.166C232.35 304.644 233.195 306.248 234.085 307.948C234.621 308.971 239.252 323.436 243.758 338.21C247.971 352.042 252.072 366.147 252.609 369.767C252.705 370.436 252.807 371.113 252.903 371.783C253.513 375.969 254.116 380.185 254.697 384.298C255.557 390.398 256.395 396.284 257.196 401.544C257.203 401.596 257.211 401.64 257.218 401.692Z" fill="#3F3D56"/>
<path opacity="0.2" d="M223.167 348.433L216.921 324.305L211.406 345.125L223.167 348.433Z" fill="black"/>
<path d="M11.6361 348.153C11.9599 349.097 12.5743 349.913 13.3909 350.486C14.2075 351.058 15.1844 351.357 16.1812 351.339L35.6552 350.838C36.6594 350.818 37.6302 350.474 38.4227 349.856C39.2151 349.239 39.7866 348.381 40.0517 347.411L42.8075 317.917C43.7852 318.36 44.8496 318.579 45.9227 318.557C47.8057 318.51 49.5928 317.716 50.8908 316.35C52.1889 314.984 52.8915 313.157 52.8443 311.273C52.797 309.388 52.0037 307.599 50.6388 306.3C49.2739 305.001 47.4493 304.298 45.5663 304.345C45.1374 304.343 44.7095 304.388 44.29 304.478C43.8339 303.984 43.2794 303.591 42.6623 303.324C42.0452 303.058 41.3792 302.924 40.7072 302.93L10.7517 303.705C10.5032 303.714 10.256 303.745 10.0128 303.796C9.35589 303.919 8.73283 304.181 8.18555 304.565C7.63828 304.949 7.17948 305.445 6.84007 306.021C6.50066 306.598 6.2885 307.24 6.21786 307.905C6.14722 308.57 6.21976 309.243 6.43057 309.877L11.6361 348.153ZM43.3726 315.914L45.3336 308.885C45.5566 308.074 45.5618 307.217 45.3485 306.403C45.4437 306.402 45.5276 306.357 45.6228 306.357C46.9673 306.329 48.2681 306.836 49.2398 307.767C50.2114 308.697 50.7748 309.976 50.8063 311.321C50.8378 312.667 50.3348 313.97 49.4077 314.945C48.4806 315.921 47.205 316.488 45.8606 316.523C44.9914 316.55 44.1312 316.34 43.3726 315.914Z" fill="#2F2E41"/>
<path d="M10.0127 303.796C10.6509 307.449 17.8261 310.016 26.4537 309.57C34.3873 309.204 40.8744 306.416 42.0628 303.111C41.623 302.981 41.1656 302.92 40.707 302.93L10.7516 303.705C10.5031 303.714 10.2559 303.744 10.0127 303.796Z" fill="#3F3D56"/>
<path d="M28.0349 331.945C28.0743 331.935 28.1118 331.919 28.1459 331.896L32.3749 329.126C32.4261 329.092 32.4681 329.047 32.4972 328.993C32.5263 328.939 32.5415 328.879 32.5415 328.818C32.5415 328.757 32.5263 328.697 32.4973 328.643C32.4683 328.589 32.4263 328.544 32.3752 328.51L27.9795 325.629C27.9391 325.602 27.8939 325.583 27.8464 325.574C27.7989 325.565 27.7501 325.565 27.7027 325.575C27.6553 325.585 27.6103 325.604 27.5703 325.631C27.5303 325.658 27.4961 325.693 27.4695 325.734C27.443 325.774 27.4248 325.82 27.4158 325.867C27.4068 325.915 27.4073 325.964 27.4173 326.011C27.4272 326.058 27.4464 326.103 27.4738 326.143C27.5012 326.183 27.5361 326.217 27.5767 326.244L31.5028 328.818L27.7435 331.281C27.6707 331.328 27.6172 331.4 27.5924 331.484C27.5676 331.567 27.5732 331.657 27.6081 331.736C27.6431 331.816 27.7051 331.881 27.7833 331.919C27.8614 331.957 27.9506 331.967 28.0349 331.945H28.0349Z" fill="#4C60F5"/>
<path d="M21.3553 332.253C21.4263 332.236 21.4903 332.197 21.5391 332.142C21.5879 332.087 21.6193 332.02 21.6292 331.947C21.6392 331.874 21.6273 331.8 21.595 331.735C21.5627 331.669 21.5115 331.614 21.448 331.578L17.5498 329.341L21.3175 326.54C21.3563 326.511 21.3889 326.475 21.4137 326.433C21.4384 326.392 21.4548 326.346 21.4618 326.298C21.4689 326.25 21.4664 326.202 21.4547 326.155C21.4429 326.108 21.4221 326.064 21.3933 326.025C21.3645 325.986 21.3284 325.954 21.287 325.929C21.2456 325.904 21.1998 325.888 21.1521 325.881C21.1043 325.874 21.0557 325.876 21.0089 325.888C20.9621 325.9 20.9181 325.921 20.8794 325.949L16.661 329.086C16.612 329.122 16.5728 329.17 16.547 329.225C16.5211 329.281 16.5095 329.342 16.5131 329.403C16.5167 329.464 16.5354 329.523 16.5675 329.575C16.5997 329.626 16.6442 329.67 16.6972 329.7L21.0822 332.216C21.1649 332.264 21.2629 332.277 21.3553 332.253Z" fill="#4C60F5"/>
<path d="M27.6142 334.373C27.6498 334.364 27.6838 334.35 27.7149 334.331C27.7562 334.306 27.7921 334.273 27.8207 334.234C27.8492 334.195 27.8698 334.15 27.8812 334.103C27.8926 334.056 27.8947 334.008 27.8873 333.96C27.8799 333.912 27.8632 333.866 27.8381 333.825L21.843 323.96C21.7921 323.877 21.7104 323.818 21.6158 323.795C21.5213 323.772 21.4216 323.788 21.3385 323.838C21.2555 323.889 21.1958 323.97 21.1727 324.065C21.1495 324.159 21.1647 324.259 21.215 324.343L27.21 334.208C27.2509 334.275 27.3122 334.327 27.385 334.357C27.4577 334.387 27.5381 334.392 27.6142 334.373Z" fill="#4C60F5"/>
<path d="M577.158 402.492C576.71 402.72 576.254 402.948 575.805 403.169C564.191 408.981 554.899 412.285 542.19 415.905C541.116 403.912 540.08 382.832 539.073 369.765C538.808 366.373 538.544 363.526 538.286 361.517C538.221 360.449 538.004 359.396 537.639 358.39L537.684 361.517L537.794 369.765L538.433 416.935C522.623 421.122 506.383 423.465 490.035 423.917C489.182 423.94 488.344 423.954 487.535 423.969C487.249 423.976 486.969 423.984 486.69 423.984C485.771 423.991 484.86 423.998 483.941 423.998C466.713 424.011 449.548 421.928 432.822 417.796C433.183 405.928 433.543 385.084 433.888 369.765C433.962 366.771 434.028 363.982 434.101 361.517C434.241 356.249 434.388 352.453 434.528 351.18C434.404 351.405 434.308 351.645 434.241 351.894C433.56 355.066 433.096 358.282 432.852 361.517C432.595 363.982 432.337 366.771 432.08 369.765C430.713 385.68 429.287 407.319 427.816 416.494C419.066 414.102 410.479 411.146 402.11 407.642C397.7 405.803 393.368 403.819 389.114 401.69C389.922 396.393 390.768 390.455 391.635 384.297C392.311 379.521 393.01 374.614 393.723 369.765C394.825 362.275 432.286 281.393 441.114 278.56L441.335 278.501L441.489 278.567L456.522 273.947L458.72 273.27L460.197 272.814L465.402 268.848L468.232 266.692L470.886 264.669L476.075 260.718L508.206 262.697L514.462 277.773L528.473 282.901L528.715 282.791L528.929 282.702L529.149 282.761C537.975 285.593 545.569 291.359 550.673 299.103C551.364 300.14 552.202 301.508 553.15 303.164C553.958 304.569 554.841 306.173 555.796 307.946C557.156 310.47 558.641 313.318 560.214 316.4C560.56 317.077 560.912 317.769 561.265 318.468C561.92 319.763 562.584 321.085 563.257 322.434C564.823 325.561 566.44 328.827 568.058 332.146C569.462 335.022 570.88 340.938 572.277 348.465C573.431 354.719 574.578 362.091 575.688 369.765C577.143 379.713 575.592 391.625 576.908 400.778C576.989 401.359 577.077 401.926 577.158 402.492Z" fill="#3F3D56"/>
<path d="M482.923 255.306C503.561 255.306 520.292 238.56 520.292 217.902C520.292 197.245 503.561 180.499 482.923 180.499C462.284 180.499 445.553 197.245 445.553 217.902C445.553 238.56 462.284 255.306 482.923 255.306Z" fill="#FFB6B6"/>
<path opacity="0.2" d="M423.163 348.433L429.409 324.305L434.925 345.125L423.163 348.433Z" fill="black"/>
<path d="M589.375 332.712C587.14 363.526 589.456 377.093 577.121 402.499C565.898 407.997 554.208 412.484 542.19 415.905C540.94 416.258 539.688 416.601 538.433 416.935C522.623 421.122 506.382 423.465 490.035 423.917C489.182 423.939 488.344 423.954 487.535 423.969C487.249 423.976 486.969 423.984 486.69 423.984C485.771 423.991 484.86 423.998 483.941 423.998C466.713 424.011 449.548 421.928 432.822 417.796C431.146 417.384 429.478 416.95 427.816 416.494C419.065 414.102 410.479 411.146 402.11 407.642C397.7 405.803 393.367 403.819 389.114 401.69C388.151 401.204 387.188 400.719 386.239 400.218C381.366 391.639 378.594 381.206 378.536 368.669C381.91 347.067 581.921 314.083 589.375 332.712Z" fill="#2F2E41"/>
<path opacity="0.2" d="M589.369 337.989C589.484 336.082 589.611 334.111 589.76 332.059C582.306 313.43 382.294 346.414 378.92 368.016C378.93 369.996 379.014 371.918 379.157 373.795C387.328 352.474 577.341 321.124 589.369 337.989Z" fill="black"/>
<path d="M373.562 334.165L389.979 325.949L376.298 288.977L372.692 270.331C372.224 267.909 371.129 265.652 369.516 263.786C367.903 261.92 365.829 260.51 363.501 259.698C361.173 258.885 358.673 258.699 356.251 259.156C353.829 259.614 351.569 260.7 349.697 262.306C346.923 264.685 345.182 268.05 344.84 271.691C344.498 275.331 345.583 278.962 347.865 281.817L361.249 298.562L373.562 334.165Z" fill="#FFB6B6"/>
<path d="M389.979 319.103L368.089 330.057L384.701 382.156C385.894 385.897 388.032 389.267 390.909 391.937C393.786 394.608 397.303 396.489 401.12 397.399C405.826 398.52 410.767 398.112 415.226 396.234C419.685 394.356 423.431 391.105 425.92 386.953L469.97 311.38C473.092 306.172 474.056 299.949 472.655 294.04C471.255 288.131 467.601 283.005 462.476 279.755C459.719 278.008 456.625 276.861 453.396 276.389C450.167 275.917 446.875 276.131 443.734 277.017C440.593 277.903 437.674 279.441 435.166 281.531C432.658 283.621 430.618 286.216 429.179 289.147L402.292 346.49L389.979 319.103Z" fill="#3F3D56"/>
<path d="M154.008 252.725C176.716 252.725 195.125 234.299 195.125 211.57C195.125 188.841 176.716 170.415 154.008 170.415C131.299 170.415 112.89 188.841 112.89 211.57C112.89 234.299 131.299 252.725 154.008 252.725Z" fill="#A0616A"/>
<path d="M113.384 183.21C116.727 178.699 121.532 175.493 125.208 171.25C127.225 168.922 128.899 166.284 131.166 164.2C135.379 160.327 141.27 158.74 146.986 158.543C153.25 158.382 159.464 159.699 165.126 162.388C170.787 165.078 175.736 169.063 179.573 174.022C182.561 172.269 185.549 170.515 188.537 168.762C189.717 171.872 190.897 174.982 192.078 178.091C193.047 177.248 194.282 176.776 195.566 176.758C196.849 176.74 198.097 177.177 199.089 177.993C200.081 178.808 200.753 179.948 200.985 181.212C201.217 182.475 200.995 183.78 200.358 184.896C201.069 182.696 204.327 182.23 206.123 183.683C207.919 185.136 208.4 187.721 208.107 190.013C207.739 192.529 206.628 194.876 204.917 196.755C203.205 198.633 200.972 199.956 198.503 200.554C194.604 201.423 190.066 200.51 186.945 203.006C184.443 205.007 183.688 208.65 181.135 210.585C177.989 212.969 173.542 211.867 169.631 212.393C162.789 213.315 157.371 220.32 158.193 227.181C157.574 225.016 156.924 222.788 155.518 221.03C154.113 219.271 151.747 218.082 149.592 218.728C146.03 219.797 145.447 224.657 146.31 228.277C148.6 237.879 157.277 253.399 157.277 253.399C146.01 257.848 132.586 253.641 123.893 245.2C115.2 236.758 110.672 224.805 108.7 212.844C107.027 202.701 107.264 191.466 113.384 183.21Z" fill="#2F2E41"/>
<path d="M529.754 238.521C537.576 220.57 533.145 204.051 523.608 195.288V195.281C519.859 186.871 514.875 180.381 509.171 178.858C506.415 177.085 503.739 175.003 500.769 173.943C499.386 173.425 497.912 173.192 496.436 173.26C494.961 173.327 493.514 173.692 492.183 174.333L490.669 173.929C489.382 170.64 487.875 170.574 486.199 172.737C479.745 169.728 473.931 168.381 468.756 168.381C451.878 168.381 441.895 182.684 439.249 199.975L453.355 203.735L458.259 195.913L455.994 204.441L463.779 206.508C475.629 221.952 461.449 257.578 443.476 277.399C447.754 276.215 452.015 275.214 456.259 274.397L471.681 251.765L462.125 272.367C467.087 271.638 473.416 272.337 480.333 273.742C482.664 270.696 483.891 266.635 482.686 263.015C484.657 266.833 486.016 270.937 486.714 275.177C501.313 278.746 521.227 280.578 531.959 281.931C540.63 279.098 540.654 247.101 529.754 238.521Z" fill="#2F2E41"/>
<path d="M534.843 177.459C540.573 190.301 529.011 195.824 518.42 195.668C508.85 195.527 500.716 188.798 500.228 179.23C499.993 174.636 501.592 170.136 504.671 166.721C507.751 163.306 512.06 161.256 516.651 161.021C526.209 160.532 530.94 168.712 534.843 177.459Z" fill="#2F2E41"/>
<path d="M269.031 386.503L259.593 370.746L290.975 346.916L304.023 333.127C305.718 331.336 307.853 330.021 310.215 329.315C312.577 328.608 315.083 328.534 317.482 329.1C319.881 329.667 322.09 330.853 323.888 332.542C325.685 334.23 327.009 336.361 327.726 338.722C328.788 342.22 328.451 345.995 326.786 349.249C325.12 352.503 322.257 354.983 318.8 356.164L298.524 363.093L269.031 386.503Z" fill="#A0616A"/>
<path d="M275.853 385.983L261.158 398.241L257.196 401.544L256.733 401.927C255.711 402.435 254.682 402.935 253.646 403.428C250.543 404.907 247.402 406.312 244.222 407.644C235.853 411.147 227.266 414.104 218.515 416.495C216.854 416.951 215.186 417.385 213.509 417.797C212.488 418.048 211.459 418.298 210.429 418.533C209.783 418.688 209.128 418.835 208.474 418.975C207.68 419.151 206.886 419.328 206.092 419.49C205.262 419.666 204.431 419.836 203.6 419.997C201.365 417.869 199.586 415.307 198.37 412.469C197.154 409.631 196.528 406.575 196.529 403.487C196.529 403.288 196.529 403.082 196.536 402.876L198.896 342.301L199.94 315.453C200.1 309.381 202.627 303.613 206.98 299.382C211.333 295.15 217.167 292.79 223.235 292.806C223.94 292.806 224.639 292.843 225.33 292.909C225.83 293.556 226.293 294.226 226.741 294.903C227.961 296.713 229.608 299.575 231.549 303.166C232.35 304.644 233.195 306.248 234.085 307.948C234.621 308.971 239.252 323.436 243.759 338.21L241.774 353.639L238.187 381.451L252.903 371.783L263.268 364.97L264.496 367.022L267.693 372.364L273.868 382.665L275.853 385.983Z" fill="#3F3D56"/>
<path d="M267.796 368.671C267.789 369.921 267.759 371.15 267.693 372.364C267.54 375.713 267.152 379.047 266.532 382.341C265.517 387.873 263.707 393.229 261.158 398.241C260.82 398.911 260.46 399.573 260.092 400.22C259.144 400.721 258.181 401.206 257.218 401.692C257.056 401.773 256.895 401.854 256.733 401.927C252.638 403.965 248.468 405.871 244.222 407.644C235.853 411.147 227.266 414.104 218.515 416.495C216.854 416.951 215.185 417.386 213.509 417.798C210.238 418.607 206.935 419.34 203.6 419.998C190.026 422.667 176.225 424.007 162.391 424C161.472 424 160.561 423.993 159.642 423.985C159.362 423.985 159.083 423.978 158.796 423.971C157.988 423.956 157.15 423.941 156.297 423.919C139.949 423.467 123.709 421.124 107.899 416.937C106.642 416.606 105.389 416.262 104.142 415.907C92.1236 412.485 80.4335 407.999 69.2106 402.501C56.8757 377.095 59.1912 363.528 56.9565 332.714C61.5435 321.243 139.147 329.344 198.896 342.301C215.112 345.818 230.005 349.695 241.774 353.639C253.932 357.708 262.746 361.843 266.201 365.728C267.008 366.532 267.563 367.555 267.796 368.671Z" fill="#2F2E41"/>
<path opacity="0.2" d="M56.9609 337.989C56.8467 336.082 56.7191 334.111 56.5703 332.059C64.0242 313.43 264.036 346.414 267.41 368.016C267.401 369.996 267.316 371.918 267.174 373.795C259.003 352.474 68.989 321.124 56.9609 337.989Z" fill="black"/>
</g>
<defs>
<clipPath id="clip0_1104_3284">
<rect width="647" height="424" fill="white"/>
</clipPath>
</defs>
</svg>
