<svg width="30" height="30" viewBox="0 0 30 30" fill="none" xmlns="http://www.w3.org/2000/svg">
<path d="M20.4683 4.0623C21.9175 4.06663 23.3061 4.64423 24.3308 5.66896C25.3555 6.69369 25.9331 8.08227 25.9375 9.53145V20.4686C25.9331 21.9177 25.3555 23.3063 24.3308 24.331C23.3061 25.3558 21.9175 25.9334 20.4683 25.9377H9.5312C8.08203 25.9334 6.69344 25.3558 5.66872 24.331C4.64399 23.3063 4.06639 21.9177 4.06206 20.4686V9.53145C4.06639 8.08227 4.64399 6.69369 5.66872 5.66896C6.69344 4.64423 8.08203 4.06663 9.5312 4.0623H20.4683ZM20.4683 1.875H9.5312C5.32007 1.875 1.87476 5.32031 1.87476 9.53145V20.4686C1.87476 24.6797 5.32007 28.125 9.5312 28.125H20.4683C24.6794 28.125 28.1248 24.6797 28.1248 20.4686V9.53145C28.1248 5.32031 24.6794 1.875 20.4683 1.875Z" fill="#F4F4F4"/>
<path d="M22.1092 9.53149C21.7847 9.53149 21.4675 9.43527 21.1977 9.255C20.9279 9.07473 20.7176 8.81849 20.5934 8.51871C20.4693 8.21892 20.4368 7.88905 20.5001 7.5708C20.5634 7.25255 20.7196 6.96022 20.9491 6.73077C21.1785 6.50133 21.4709 6.34507 21.7891 6.28177C22.1074 6.21847 22.4372 6.25095 22.737 6.37513C23.0368 6.49931 23.293 6.70959 23.4733 6.97939C23.6536 7.24919 23.7498 7.56638 23.7498 7.89087C23.7503 8.10645 23.7081 8.32 23.6259 8.51926C23.5436 8.71852 23.4228 8.89956 23.2703 9.052C23.1179 9.20444 22.9368 9.32527 22.7376 9.40755C22.5383 9.48984 22.3248 9.53196 22.1092 9.53149ZM15 10.6249C15.8653 10.6249 16.7112 10.8815 17.4307 11.3622C18.1502 11.843 18.711 12.5263 19.0422 13.3257C19.3733 14.1252 19.4599 15.0049 19.2911 15.8536C19.1223 16.7023 18.7056 17.4819 18.0937 18.0938C17.4818 18.7057 16.7023 19.1224 15.8536 19.2912C15.0049 19.46 14.1252 19.3734 13.3257 19.0422C12.5262 18.7111 11.8429 18.1503 11.3622 17.4308C10.8814 16.7113 10.6248 15.8654 10.6248 15C10.626 13.8401 11.0874 12.7279 11.9076 11.9077C12.7279 11.0875 13.84 10.6261 15 10.6249ZM15 8.43755C13.7021 8.43755 12.4333 8.82243 11.3541 9.54353C10.2749 10.2646 9.43374 11.2895 8.93704 12.4887C8.44034 13.6878 8.31038 15.0073 8.5636 16.2803C8.81682 17.5533 9.44183 18.7227 10.3596 19.6404C11.2774 20.5582 12.4467 21.1832 13.7197 21.4365C14.9927 21.6897 16.3122 21.5597 17.5114 21.063C18.7105 20.5663 19.7354 19.7252 20.4565 18.646C21.1776 17.5668 21.5625 16.298 21.5625 15C21.5625 13.2596 20.8711 11.5904 19.6404 10.3597C18.4097 9.12895 16.7405 8.43755 15 8.43755Z" fill="#F4F4F4"/>
</svg>
