<svg width="26" height="26" viewBox="0 0 26 26" fill="none" xmlns="http://www.w3.org/2000/svg">
<path d="M23.9102 0H2.08975C0.936 0 0 0.936 0 2.08975V23.9102C0 25.064 0.936 26 2.08975 26H23.9102C25.064 26 26 25.064 26 23.9102V2.08975C26 0.936 25.064 0 23.9102 0ZM23.9102 23.92C9.35675 23.9167 2.08 23.9135 2.08 23.9102C2.08325 9.35675 2.0865 2.08 2.08975 2.08C16.6432 2.08325 23.92 2.0865 23.92 2.08975C23.9167 16.6432 23.9135 23.92 23.9102 23.92ZM3.8545 9.74675H7.71225V22.1552H3.8545V9.74675ZM5.785 8.05025C7.01675 8.05025 8.021 7.04925 8.021 5.81425C8.021 5.52061 7.96316 5.22985 7.85079 4.95857C7.73843 4.68729 7.57372 4.44079 7.36609 4.23316C7.15846 4.02553 6.91196 3.86082 6.64068 3.74846C6.3694 3.63609 6.07864 3.57825 5.785 3.57825C5.49136 3.57825 5.2006 3.63609 4.92932 3.74846C4.65804 3.86082 4.41154 4.02553 4.20391 4.23316C3.99628 4.44079 3.83157 4.68729 3.71921 4.95857C3.60684 5.22985 3.549 5.52061 3.549 5.81425C3.54575 7.04925 4.54675 8.05025 5.785 8.05025ZM13.9847 16.016C13.9847 14.3975 14.2935 12.831 16.2987 12.831C18.2747 12.831 18.304 14.6802 18.304 16.12V22.1552H22.1585V15.3497C22.1585 12.0087 21.437 9.438 17.5337 9.438C15.6585 9.438 14.4008 10.4683 13.884 11.4432H13.832V9.74675H10.1302V22.1552H13.9847V16.016Z" fill="#F4F4F4"/>
</svg>
