<svg width="99" height="99" viewBox="0 0 99 99" fill="none" xmlns="http://www.w3.org/2000/svg">
<path d="M68.9118 36.9582C63.5175 36.9582 59.1446 32.5853 59.1446 27.191C59.1446 21.7967 63.5175 17.4238 68.9118 17.4238C74.306 17.4238 78.679 21.7967 78.679 27.191C78.679 32.5853 74.306 36.9582 68.9118 36.9582Z" fill="white"/>
<path d="M30.858 36.9582C36.2523 36.9582 40.6252 32.5853 40.6252 27.191C40.6252 21.7967 36.2523 17.4238 30.858 17.4238C25.4637 17.4238 21.0908 21.7967 21.0908 27.191C21.0908 32.5853 25.4637 36.9582 30.858 36.9582Z" fill="white"/>
<path fill-rule="evenodd" clip-rule="evenodd" d="M75.221 43.5147C74.6904 40.9101 72.149 39.2287 69.5444 39.7591L64.5683 40.7726C64.0861 40.8708 63.6354 41.038 63.2246 41.2618C63.0985 41.3203 62.9754 41.3894 62.8564 41.4692L50.8948 49.4893L55.6295 52.5292C57.5405 53.8741 57.5405 56.5636 56.9742 57.5544L54.5514 61.1214L61.401 57.8865C62.1776 57.5197 63.0859 57.9436 63.3182 58.7509L67.1689 77.6579C67.6995 80.2625 70.2409 81.9439 72.8455 81.4135L77.8216 80.4C80.4262 79.8696 82.1075 77.328 81.5771 74.7235L75.221 43.5147ZM49.4685 50.4457L49.5427 50.406L49.629 50.3381L49.4685 50.4457Z" fill="url(#paint0_linear_936_2680)"/>
<path d="M29.5545 39.7591C26.9499 39.2287 24.4085 40.9101 23.878 43.5147L17.5218 74.7235C16.9914 77.328 18.6728 79.8696 21.2774 80.4L26.2535 81.4135C28.8581 81.9439 31.3995 80.2625 31.93 77.6579L35.7807 58.7509C36.013 57.9436 36.9213 57.5197 37.698 57.8865L48.4328 62.9562C49.636 63.5245 51.074 63.1273 51.8151 62.0221L54.9944 57.2803C55.8217 56.0466 55.4921 54.3759 54.2584 53.5487L36.2426 41.4692C36.1235 41.3894 36.0005 41.3203 35.8744 41.2618C35.4636 41.038 35.0129 40.8708 34.5306 40.7726L29.5545 39.7591Z" fill="url(#paint1_linear_936_2680)"/>
<defs>
<linearGradient id="paint0_linear_936_2680" x1="82.3139" y1="61.8554" x2="49.4245" y2="61.8554" gradientUnits="userSpaceOnUse">
<stop offset="0.00312487" stop-color="white"/>
<stop offset="0.982292" stop-color="white"/>
</linearGradient>
<linearGradient id="paint1_linear_936_2680" x1="17.4105" y1="60.5978" x2="55.488" y2="60.7153" gradientUnits="userSpaceOnUse">
<stop stop-color="white"/>
<stop offset="0.961458" stop-color="white"/>
</linearGradient>
</defs>
</svg>
