<svg width="144" height="144" viewBox="0 0 144 144" fill="none" xmlns="http://www.w3.org/2000/svg">
<path d="M29.9999 83.55C29.9999 81.05 31.0759 79.276 33.2279 78.228C35.3759 77.176 37.4499 77.35 39.4499 78.75L71.9999 102L104.55 78.75C106.55 77.35 108.626 77.176 110.778 78.228C112.926 79.276 114 81.05 114 83.55C114 84.65 113.726 85.65 113.178 86.55C112.626 87.45 111.95 88.2 111.15 88.8L75.4499 114.15C74.9499 114.55 74.3999 114.85 73.7999 115.05C73.1999 115.25 72.5999 115.35 71.9999 115.35C71.3999 115.35 70.8259 115.25 70.2779 115.05C69.7259 114.85 69.1499 114.55 68.5499 114.15L32.8499 88.8C32.0499 88.2 31.3739 87.45 30.8219 86.55C30.2739 85.65 29.9999 84.65 29.9999 83.55ZM29.9999 47.85C29.9999 45.35 31.0759 43.576 33.2279 42.528C35.3759 41.476 37.4499 41.65 39.4499 43.05L71.9999 66.3L104.55 43.05C106.55 41.65 108.626 41.476 110.778 42.528C112.926 43.576 114 45.35 114 47.85C114 48.95 113.726 49.95 113.178 50.85C112.626 51.75 111.95 52.5 111.15 53.1L75.4499 78.45C74.9499 78.85 74.3999 79.15 73.7999 79.35C73.1999 79.55 72.5999 79.65 71.9999 79.65C71.3999 79.65 70.7999 79.55 70.1999 79.35C69.5999 79.15 69.0499 78.85 68.5499 78.45L32.8499 53.1C32.0499 52.5 31.3739 51.75 30.8219 50.85C30.2739 49.95 29.9999 48.95 29.9999 47.85Z" fill="#3A60F2"/>
</svg>
