<svg width="586" height="586" viewBox="0 0 586 586" fill="none" xmlns="http://www.w3.org/2000/svg">
<path d="M307.556 136.913C308.854 136.454 310.109 135.881 311.307 135.202C312.977 134.173 314.425 132.821 315.566 131.225C316.707 129.629 317.518 127.821 317.952 125.908C318.231 124.595 318.341 123.252 318.28 121.912C318.14 120.433 317.849 118.972 317.413 117.552C316.604 114.516 315.725 111.211 314.776 107.683L308.377 83.6106L300.641 54.4278C299.95 51.8025 299.247 49.1421 298.52 46.423C297.944 43.7059 296.612 41.207 294.676 39.2152C292.677 37.1816 290.113 35.7971 287.316 35.2421C284.41 34.7417 281.423 35.0124 278.655 36.0274L201.877 56.2561C198.593 57.1319 195.729 59.1518 193.802 61.952C191.891 64.7094 191.038 68.0631 191.399 71.3983C191.641 73.0608 192.01 74.7024 192.501 76.309C192.935 77.9615 193.357 79.6023 193.79 81.2314C194.65 84.4974 195.497 87.736 196.333 90.9473C199.697 103.839 202.932 116.18 206.026 127.994C207.589 133.901 209.089 139.652 210.526 145.246C211.012 147.991 212.194 150.566 213.96 152.723C215.703 154.769 217.991 156.277 220.559 157.072C225.692 158.876 230.79 156.427 235.654 155.372L249.718 151.727L292.039 140.804L303.56 137.886L306.56 137.159C307.24 136.995 307.591 136.948 307.591 136.948C307.591 136.948 307.263 137.077 306.595 137.265L303.618 138.109L292.144 141.226L249.952 152.501L235.888 156.216L228.435 158.173C225.697 158.868 222.82 158.784 220.128 157.931C217.436 157.078 215.036 155.489 213.199 153.345C211.324 151.084 210.061 148.38 209.53 145.492C208.053 139.913 206.538 134.167 204.983 128.252C201.877 116.45 198.607 104.074 195.232 91.2286C194.388 88.0173 193.536 84.7787 192.677 81.5127C192.239 79.8875 191.806 78.2467 191.376 76.5903C190.855 74.9314 190.463 73.2348 190.204 71.5155C189.815 67.9123 190.734 64.2893 192.794 61.3074C194.88 58.2434 198.001 56.034 201.584 55.0841L278.373 34.9726C281.298 33.9279 284.444 33.6614 287.503 34.1991C290.491 34.8227 293.223 36.3294 295.344 38.5237C297.389 40.6483 298.798 43.3037 299.411 46.1886C300.114 48.8959 300.817 51.5681 301.497 54.1934C304.228 64.7414 306.771 74.469 309.092 83.4113C311.412 92.3537 313.498 100.417 315.338 107.519C316.253 111.074 317.104 114.372 317.893 117.411C318.333 118.872 318.631 120.371 318.784 121.888C318.835 123.275 318.701 124.662 318.386 126.014C317.922 127.965 317.067 129.803 315.872 131.414C314.677 133.026 313.168 134.378 311.436 135.39C310.544 135.917 309.592 136.334 308.599 136.632C307.908 136.843 307.556 136.913 307.556 136.913Z" fill="#E0E0E0"/>
<path d="M276.686 106.91C276.455 107.013 276.216 107.096 275.971 107.156L273.908 107.742L266.22 109.863L240.436 116.802H240.225L240.131 116.602L238.35 112.512L225.868 82.6026L226.055 82.6846L219.164 84.4426L217.324 84.888L216.679 85.0169C216.879 84.927 217.087 84.8563 217.301 84.8059L219.117 84.2785L225.985 82.3799H226.126V82.5088L238.772 112.36L240.506 116.497L240.213 116.344L266.091 109.57L273.814 107.601L275.901 107.097C276.157 107.013 276.419 106.951 276.686 106.91Z" fill="#E0E0E0"/>
<path d="M237.271 109.301C237.271 109.301 237.33 109.301 237.447 109.231L237.975 109.067L240.049 108.481L247.808 106.347L274.623 99.1397L274.447 99.3975C274.049 94.7095 273.615 89.5644 273.158 84.267C272.935 81.548 272.701 78.8758 272.49 76.3208L272.806 76.5435L241.162 84.8413L231.786 87.2556L229.255 87.8885L228.599 88.0291C228.446 88.0291 228.376 88.0291 228.364 88.0291L228.587 87.9588L229.232 87.7596L231.751 87.0446L241.127 84.4897L272.771 76.0278L273.053 75.9458V76.2388C273.264 78.7938 273.486 81.4659 273.721 84.185C274.166 89.4824 274.588 94.5923 274.986 99.3272V99.5264H274.787L247.925 106.558L240.131 108.551L238.033 109.067L237.494 109.195L237.271 109.301Z" fill="#E0E0E0"/>
<path d="M251.98 124.01C251.98 124.01 251.851 123.705 251.546 123.201C251.119 122.501 250.472 121.961 249.706 121.666C249.152 121.453 248.555 121.38 247.966 121.454C247.377 121.528 246.816 121.745 246.331 122.088C245.967 122.398 245.671 122.779 245.459 123.207C245.248 123.636 245.126 124.103 245.101 124.58C245.076 125.057 245.149 125.535 245.314 125.983C245.48 126.431 245.736 126.841 246.065 127.187C246.394 127.533 246.791 127.809 247.23 127.996C247.67 128.184 248.143 128.28 248.621 128.279C249.099 128.278 249.572 128.179 250.01 127.989C250.449 127.799 250.844 127.522 251.171 127.174C251.688 126.54 251.98 125.753 252.004 124.936C252.004 124.35 251.933 124.021 252.004 124.01C252.154 124.295 252.23 124.613 252.226 124.936C252.273 125.819 252.008 126.69 251.476 127.397C251.073 127.936 250.538 128.363 249.922 128.636C249.306 128.909 248.631 129.019 247.96 128.955C247.141 128.886 246.364 128.566 245.734 128.038C245.105 127.51 244.654 126.8 244.443 126.005C244.233 125.211 244.273 124.371 244.558 123.6C244.844 122.83 245.361 122.166 246.038 121.701C246.584 121.323 247.217 121.092 247.878 121.028C248.538 120.965 249.204 121.071 249.812 121.337C250.623 121.693 251.285 122.318 251.687 123.107C251.858 123.379 251.958 123.689 251.98 124.01Z" fill="#E0E0E0"/>
<path d="M275.42 117.809C275.42 117.809 275.291 117.493 274.986 117.001C274.555 116.303 273.91 115.764 273.146 115.465C272.541 115.234 271.884 115.174 271.248 115.292C270.611 115.41 270.019 115.701 269.538 116.135C269.056 116.568 268.703 117.125 268.519 117.746C268.334 118.367 268.324 119.027 268.491 119.652C268.657 120.278 268.993 120.846 269.462 121.293C269.931 121.74 270.514 122.049 271.147 122.186C271.78 122.322 272.438 122.281 273.05 122.068C273.661 121.854 274.201 121.475 274.611 120.974C275.128 120.335 275.42 119.544 275.443 118.723C275.443 118.149 275.373 117.821 275.443 117.809C275.595 118.09 275.672 118.405 275.666 118.723C275.716 119.607 275.45 120.479 274.916 121.185C274.518 121.715 273.993 122.137 273.388 122.409C272.783 122.682 272.12 122.797 271.459 122.743C270.641 122.674 269.865 122.353 269.237 121.824C268.609 121.296 268.161 120.586 267.953 119.792C267.745 118.998 267.787 118.16 268.075 117.391C268.363 116.623 268.882 115.962 269.56 115.5C270.108 115.123 270.743 114.892 271.406 114.828C272.068 114.765 272.736 114.871 273.345 115.137C274.158 115.489 274.822 116.116 275.221 116.907C275.36 117.187 275.428 117.497 275.42 117.809Z" fill="#E0E0E0"/>
<path d="M488.349 557.462C462.038 544.57 451.912 514.543 448.595 486.708C448.044 482.02 446.778 477.332 448.36 472.879C449.943 468.425 454.631 464.921 459.072 466.233C462.753 467.323 464.862 471.086 467.276 474.086C470.522 478.096 474.831 481.11 479.711 482.782C482.888 483.849 486.673 484.224 489.333 482.173C492.99 479.36 492.603 473.781 491.877 469.187L487.763 443.508C487.025 438.914 486.286 434.226 487.048 429.644C487.81 425.061 490.341 420.525 494.525 418.627C498.71 416.728 504.511 418.416 506.117 422.776C506.796 424.581 506.714 426.585 507.136 428.472C507.558 430.359 508.765 432.339 510.652 432.597C512.539 432.855 514.168 431.261 515.34 429.702C519.372 424.334 521.669 417.865 523.767 411.454C525.865 405.043 527.845 398.504 531.373 392.784C534.901 387.065 540.233 382.131 546.762 380.736C553.29 379.341 560.931 382.342 563.591 388.542C566.252 394.741 563.545 401.926 560.216 407.856C555.313 416.577 549.175 424.543 541.991 431.507C540.702 432.761 539.296 434.109 539.003 435.902C538.475 439.113 541.851 441.762 545.027 442.254C548.637 442.876 552.293 441.95 555.95 441.809C559.607 441.668 563.72 442.665 565.596 445.852C568.209 450.259 565.033 455.791 561.658 459.612C554.899 467.247 546.879 473.665 537.948 478.586C534.749 480.333 531.361 481.973 528.994 484.763C526.627 487.552 525.63 491.947 527.822 494.936C530.014 497.924 534.35 498.311 537.796 497.104C541.241 495.897 544.113 493.494 547.289 491.701C553.243 488.337 561.47 487.517 566.357 492.357C569.569 495.545 570.565 500.503 569.873 504.991C569.182 509.48 567.025 513.571 564.646 517.415C556.348 530.858 544.863 542.413 530.986 549.75C517.11 557.087 503.737 560.556 488.361 557.462" fill="#F5F5F5"/>
<path d="M492.826 539.003C495.101 523.206 498.283 507.554 502.354 492.123C503.409 488.013 504.452 483.958 505.484 479.957C506.515 475.973 507.546 472.023 508.789 468.237C511.194 460.936 514 453.772 517.192 446.778C520.192 440.086 523.286 433.886 526.216 428.026C529.146 422.166 532.018 416.845 534.83 412.063C539.219 404.494 544.204 397.287 549.738 390.51C551.684 388.166 553.254 386.303 554.344 385.096L555.587 383.724C555.719 383.561 555.868 383.412 556.032 383.279C555.918 383.455 555.793 383.623 555.657 383.783L554.485 385.213C553.453 386.455 551.918 388.295 550.008 390.733C544.588 397.571 539.691 404.807 535.358 412.38C532.592 417.162 529.779 422.541 526.861 428.354C523.943 434.167 520.895 440.437 517.918 447.106C514.76 454.084 511.982 461.228 509.597 468.507C508.367 472.292 507.359 476.207 506.316 480.227C505.273 484.247 504.253 488.279 503.198 492.381C499.136 507.778 495.935 523.39 493.611 539.143" fill="#E0E0E0"/>
<path d="M509.023 468.167C508.711 467.565 508.459 466.933 508.273 466.28C507.839 465.038 507.265 463.233 506.597 460.995C505.237 456.518 503.585 450.271 501.78 443.415C499.975 436.559 498.264 430.312 496.811 425.835C496.108 423.608 495.522 421.815 495.1 420.572C494.842 419.946 494.654 419.294 494.537 418.627C494.897 419.202 495.192 419.815 495.416 420.455C495.932 421.627 496.588 423.432 497.385 425.636C498.956 430.054 500.796 436.254 502.6 443.157C504.405 450.06 505.952 456.119 507.171 460.831C507.734 462.952 508.214 464.745 508.601 466.175C508.818 466.821 508.959 467.489 509.023 468.167Z" fill="#E0E0E0"/>
<path d="M566.439 448.032C565.679 448.317 564.895 448.533 564.095 448.677C562.607 449.04 560.439 449.568 557.778 450.294C552.457 451.712 545.168 453.927 537.233 456.717C529.299 459.506 522.243 462.378 517.192 464.593C514.66 465.671 512.633 466.608 511.226 467.241C510.514 467.616 509.768 467.926 509 468.167C509.654 467.714 510.348 467.322 511.074 466.995C512.445 466.257 514.438 465.237 516.934 464.077C521.939 461.733 528.994 458.768 536.94 455.955C543.721 453.533 550.621 451.46 557.614 449.743C560.298 449.087 562.49 448.653 564.013 448.396C564.809 448.198 565.621 448.077 566.439 448.032Z" fill="#E0E0E0"/>
<path d="M493.412 537.807C493.21 537.614 493.036 537.393 492.896 537.151L491.549 535.17C490.377 533.436 488.794 530.893 486.861 527.728C482.97 521.399 477.86 512.492 472.363 502.565C466.866 492.638 461.815 483.696 458.1 477.285L453.564 469.714C453.083 468.894 452.685 468.214 452.392 467.651C452.232 467.416 452.106 467.16 452.017 466.89C452.213 467.093 452.386 467.317 452.533 467.558C452.896 468.097 453.341 468.73 453.869 469.538C455.041 471.261 456.635 473.804 458.557 476.969C462.448 483.309 467.546 492.205 473.054 502.143C478.563 512.082 483.602 521.013 487.318 527.412L491.783 534.983L492.955 537.057C493.139 537.287 493.293 537.539 493.412 537.807Z" fill="#E0E0E0"/>
<path d="M568.033 500.444C567.815 500.629 567.57 500.779 567.307 500.889L565.138 502.003L557.145 506.023C550.406 509.422 541.136 514.227 530.904 519.524C520.673 524.822 511.355 529.557 504.534 532.815C501.124 534.444 498.358 535.733 496.424 536.589L494.186 537.561C493.933 537.688 493.665 537.782 493.389 537.843C493.611 537.665 493.855 537.515 494.115 537.397L496.283 536.284L504.265 532.264C511.015 528.877 520.286 524.06 530.518 518.762C540.749 513.465 550.066 508.73 556.876 505.472C560.286 503.843 563.064 502.554 564.998 501.698L567.225 500.737C567.48 500.603 567.752 500.505 568.033 500.444Z" fill="#E0E0E0"/>
<path d="M38.0549 133.244C38.0549 133.244 24.9871 136.421 35.3593 164.713C45.7315 193.005 53.5487 207.338 53.5487 207.338C53.5487 207.338 55.213 213.819 49.8804 214.148C44.5478 214.476 33.32 211.265 30.2259 217.347C27.0146 223.664 31.0698 230.485 40.141 237.131C49.2123 243.776 68.5503 259.07 70.32 260.465C72.0898 261.86 73.5313 264.93 69.945 265.739C66.3587 266.548 40.2348 266.114 40.7739 278.514C41.313 290.914 69.6051 305.294 72.664 306.923C75.723 308.552 76.3324 310.006 75.8636 311.74C75.3948 313.475 66.6165 312.502 59.186 312.678C51.7556 312.854 43.1648 314.377 44.079 321.515C44.9931 328.652 60.7682 345.306 102.866 354.635L122.65 357.682L135.542 342.2C161.009 307.415 161.877 284.479 157.81 278.514C153.743 272.548 146.336 277.084 140.628 281.854C134.921 286.624 128.979 293.14 127.478 292.156C125.978 291.171 125.474 289.671 126.693 286.425C127.912 283.178 139.714 253.703 131.932 244.022C124.15 234.341 104.812 251.909 101.577 253.679C98.3426 255.449 97.4284 252.109 97.8152 249.952C98.2019 247.796 102.644 223.512 105.082 212.53C107.519 201.549 106.043 193.778 99.4677 191.13C93.1272 188.586 86.7984 198.431 82.5792 201.678C78.36 204.924 75.3362 198.982 75.3362 198.982C75.3362 198.982 71.7499 183.055 60.8737 154.95C49.9976 126.845 37.797 133.315 37.797 133.315" fill="#EBEBEB"/>
<path d="M123.119 362.476C115.208 341.814 101.765 304.837 90.0566 273.158C78.3483 241.479 67.73 212.824 59.9244 192.114C56.0217 181.789 52.8924 173.362 50.6539 167.608C49.5757 164.725 48.7201 162.486 48.1458 160.939C47.8646 160.189 47.6536 159.615 47.5012 159.193C47.3489 158.771 47.302 158.595 47.302 158.595C47.302 158.595 47.3958 158.783 47.5598 159.169L48.263 160.892L50.8883 167.514C53.1503 173.269 56.385 181.578 60.3346 191.962C68.2456 212.624 78.9343 241.268 90.6426 272.947C102.351 304.626 115.723 341.615 123.529 362.324" fill="#E0E0E0"/>
<path d="M45.7783 222.481C46.2419 222.622 46.6896 222.81 47.1144 223.044C47.9582 223.43 49.1654 224.028 50.6304 224.778C53.5838 226.29 57.6624 228.493 62.0457 230.99L73.3203 237.436L76.7426 239.369C77.1591 239.576 77.5521 239.828 77.9146 240.12C77.4487 239.995 77 239.814 76.5785 239.58C75.7346 239.194 74.5275 238.596 73.0625 237.822C70.109 236.275 66.1008 234.037 61.6941 231.529L50.396 225.165L46.962 223.254C46.5349 223.05 46.1369 222.79 45.7783 222.481Z" fill="#E0E0E0"/>
<path d="M79.5085 239.018C79.3562 238.936 83.5168 230.415 88.7908 219.973C94.0648 209.53 98.4832 201.139 98.6356 201.221C98.7879 201.303 94.6273 209.823 89.3533 220.266C84.0793 230.708 79.696 239.088 79.5085 239.018Z" fill="#E0E0E0"/>
<path d="M95.2953 288.476C95.5615 288.047 95.8805 287.654 96.2447 287.304L98.9872 284.374C101.331 281.89 104.484 278.514 107.847 274.529C111.211 270.545 114.165 266.958 116.262 264.298L118.759 261.145C119.044 260.742 119.37 260.369 119.732 260.032C119.518 260.476 119.259 260.896 118.958 261.286C118.419 262.071 117.634 263.196 116.614 264.567C114.598 267.298 111.715 271.002 108.328 274.94C104.941 278.878 101.706 282.276 99.3036 284.679C98.1316 285.851 97.1237 286.835 96.4205 287.48C96.0791 287.848 95.7023 288.182 95.2953 288.476Z" fill="#E0E0E0"/>
<path d="M61.4832 280.237C61.9426 280.24 62.3996 280.303 62.8427 280.424L66.4876 281.163C69.5465 281.807 73.7774 282.745 78.442 283.823C83.1066 284.901 87.3258 285.898 90.3612 286.659L93.9593 287.585C94.4073 287.677 94.8436 287.818 95.2602 288.007C94.8046 288.004 94.3515 287.941 93.9124 287.82L90.244 287.14C87.1734 286.495 82.9425 285.558 78.2779 284.479C73.6134 283.401 69.4059 282.405 66.3587 281.643L62.7606 280.717C62.317 280.609 61.888 280.448 61.4832 280.237Z" fill="#E0E0E0"/>
<path d="M69.8746 325.664C70.4548 325.704 71.0309 325.791 71.5975 325.922L76.2855 326.848C80.2234 327.656 85.6615 328.817 91.6387 330.141C97.6159 331.465 103.054 332.684 106.957 333.598L111.645 334.77C112.221 334.884 112.785 335.049 113.332 335.263C112.747 335.237 112.165 335.151 111.598 335.005L106.91 334.079C102.972 333.27 97.5338 332.11 91.5566 330.785C85.5794 329.461 80.0945 328.16 76.18 327.281L71.492 326.109C70.9389 326.017 70.3969 325.868 69.8746 325.664Z" fill="#E0E0E0"/>
<path d="M112.289 334.7C112.633 334.175 113.025 333.685 113.461 333.235L116.802 329.391C119.626 326.132 123.494 321.632 127.643 316.499C131.791 311.365 135.425 306.701 138.026 303.278L141.121 299.223C141.469 298.71 141.861 298.228 142.293 297.782C142.011 298.337 141.682 298.866 141.308 299.364C140.628 300.372 139.632 301.802 138.366 303.548C135.847 307.064 132.26 311.752 128.111 316.897C123.962 322.042 120.025 326.461 117.118 329.648C115.665 331.231 114.469 332.508 113.602 333.364C113.198 333.841 112.759 334.288 112.289 334.7Z" fill="#E0E0E0"/>
<path d="M545.144 559.606C545.144 559.782 432.245 559.911 293.012 559.911C153.778 559.911 40.8559 559.782 40.8559 559.606C40.8559 559.431 153.731 559.302 293.012 559.302C432.292 559.302 545.144 559.442 545.144 559.606Z" fill="#263238"/>
<path d="M490.599 76.8596H456.611C454.38 76.918 452.263 77.8589 450.725 79.4761C449.187 81.0932 448.354 83.2544 448.407 85.4856V91.6503C448.461 93.8814 447.627 96.0426 446.089 97.6597C444.551 99.2769 442.434 100.218 440.203 100.276H373.927C371.687 100.221 369.561 99.2812 368.013 97.6625C366.464 96.0439 365.62 93.8781 365.664 91.6386V85.4152C365.708 83.1867 364.871 81.0308 363.335 79.4157C361.799 77.8006 359.688 76.8568 357.46 76.7893H345.506H315.749C308.65 76.7893 301.842 79.6076 296.82 84.6248C291.799 89.642 288.975 96.4476 288.968 103.546L288.886 532.697C288.886 539.792 291.704 546.596 296.719 551.613C301.734 556.631 308.537 559.451 315.631 559.454L490.658 559.56C494.172 559.563 497.652 558.873 500.9 557.53C504.147 556.188 507.099 554.218 509.585 551.734C512.071 549.251 514.043 546.301 515.388 543.055C516.734 539.808 517.426 536.329 517.426 532.815L517.508 103.652C517.513 100.122 516.819 96.6264 515.467 93.3661C514.115 90.1057 512.131 87.1451 509.63 84.6548C507.129 82.1645 504.16 80.1936 500.894 78.8558C497.627 77.5179 494.129 76.8395 490.599 76.8596Z" fill="white"/>
<path d="M490.599 76.8599C490.599 76.8599 490.904 76.8599 491.513 76.8599C492.42 76.8584 493.325 76.925 494.221 77.0591C497.78 77.5076 501.203 78.706 504.265 80.5751C506.534 81.9065 508.589 83.574 510.359 85.5209C512.525 87.8575 514.252 90.5651 515.457 93.514C516.848 96.9642 517.53 100.659 517.461 104.378C517.461 108.328 517.461 112.582 517.461 116.989C517.461 152.641 517.52 204.221 517.555 267.943C517.59 331.664 517.555 407.575 517.555 491.795V531.901C517.618 534.67 517.275 537.434 516.536 540.105C515.789 542.781 514.635 545.327 513.113 547.652C511.563 549.967 509.688 552.047 507.546 553.829C503.146 557.392 497.74 559.491 492.088 559.829C486.485 559.993 480.907 559.829 475.281 559.9H441.246H371.313H317.483C311.285 560.216 305.155 558.491 300.032 554.989C294.963 551.436 291.246 546.273 289.484 540.339C288.648 537.399 288.273 534.346 288.371 531.291V522.267C288.371 510.265 288.371 498.338 288.371 486.486C288.371 462.811 288.371 439.496 288.371 416.541C288.371 370.68 288.371 326.449 288.371 284.304C288.371 242.159 288.371 202.123 288.371 164.643C288.371 145.891 288.371 127.818 288.371 110.426C288.371 108.246 288.371 106.078 288.371 103.933C288.371 102.855 288.464 101.765 288.523 100.687C288.582 99.6084 288.793 98.5419 289.062 97.4988C290.028 93.3284 291.959 89.4427 294.699 86.1538C297.36 82.9902 300.708 80.4757 304.488 78.8021C308.268 77.1285 312.38 76.34 316.51 76.4965H339.833H356.546C358.417 76.3968 360.269 76.9112 361.82 77.9615C363.328 79.0227 364.471 80.5254 365.09 82.2628C365.604 83.9744 365.787 85.7683 365.629 87.5485V90.2441C365.603 91.0966 365.63 91.95 365.711 92.7991C365.961 94.4725 366.709 96.0321 367.856 97.2761C368.922 98.5258 370.352 99.411 371.946 99.8076C372.732 99.9961 373.54 100.079 374.349 100.054H386.479H421.756H437.308C438.539 100.054 439.793 100.054 440.953 100.054C442.116 99.9082 443.233 99.5081 444.223 98.8817C445.176 98.2779 445.998 97.49 446.642 96.5643C447.286 95.6385 447.739 94.5935 447.974 93.4905C448.167 92.4159 448.237 91.3229 448.185 90.2324C448.185 89.1541 448.185 88.0876 448.185 87.0328C448.137 85.9915 448.185 84.9481 448.325 83.9153C448.494 82.9112 448.835 81.9438 449.333 81.0556C450.28 79.3749 451.773 78.0682 453.564 77.3521C455.282 76.8106 457.091 76.6193 458.885 76.7895H476.242H486.907H490.552H486.907H476.242H458.885C457.174 76.7895 455.369 76.6137 453.658 77.3638C451.896 78.071 450.434 79.3675 449.521 81.0322C449.046 81.9026 448.717 82.8448 448.548 83.8215C448.422 84.8399 448.378 85.8668 448.419 86.8922C448.419 87.947 448.419 89.0135 448.419 90.0917C448.464 91.2017 448.394 92.3133 448.208 93.4085C447.967 94.5507 447.501 95.6334 446.837 96.5933C446.173 97.5532 445.324 98.371 444.34 98.9989C443.305 99.6377 442.14 100.038 440.93 100.171C439.688 100.276 438.492 100.171 437.25 100.171H374.349C373.501 100.204 372.653 100.121 371.829 99.9248C370.145 99.5122 368.635 98.5767 367.516 97.2527C366.365 95.9316 365.627 94.3014 365.394 92.5647C365.321 91.7934 365.294 91.0186 365.312 90.2441V87.5954C365.458 85.8702 365.279 84.1331 364.785 82.4737C364.202 80.8291 363.121 79.4073 361.691 78.4069C360.216 77.4163 358.46 76.931 356.686 77.0239H316.651C312.598 76.8712 308.564 77.6472 304.857 79.2926C301.15 80.9379 297.868 83.4091 295.262 86.5171C292.586 89.7398 290.703 93.5453 289.765 97.6277C289.496 98.6473 289.414 99.7021 289.226 100.745C289.039 101.788 289.097 102.855 289.086 103.933V110.426C289.086 127.818 289.086 145.891 289.086 164.643C289.086 202.147 289.086 242.17 289.086 284.304V416.541C289.086 439.465 289.086 462.78 289.086 486.486V531.291C288.984 534.275 289.348 537.256 290.164 540.128C291.897 545.902 295.532 550.921 300.477 554.368C305.473 557.756 311.445 559.403 317.471 559.056H335.544H371.301H441.235H475.316C480.93 559.056 486.556 559.15 492.088 558.986C497.589 558.652 502.848 556.603 507.124 553.125C509.214 551.394 511.041 549.369 512.551 547.113C514.029 544.852 515.152 542.378 515.879 539.776C516.596 537.182 516.932 534.498 516.875 531.807C516.875 529.088 516.875 526.392 516.875 523.685C516.875 512.902 516.875 502.241 516.875 491.701C516.875 407.446 516.957 331.547 516.993 267.849C517.028 204.151 517.11 152.548 517.145 116.895C517.145 112.442 517.145 108.234 517.145 104.285C517.221 100.596 516.556 96.929 515.188 93.5023C514 90.5743 512.297 87.883 510.16 85.5561C505.978 80.9487 500.313 77.9542 494.15 77.0943C493.258 76.9559 492.358 76.8737 491.455 76.8481C490.904 76.895 490.599 76.8599 490.599 76.8599Z" fill="#263238"/>
<path d="M332.133 120.2C332.133 120.306 327.703 120.446 322.253 120.482C316.803 120.517 312.373 120.482 312.373 120.364C312.373 120.247 316.792 120.118 322.253 120.071C327.715 120.024 332.133 120.083 332.133 120.2Z" fill="#263238"/>
<path d="M332.168 125.252C332.168 125.369 327.75 125.498 322.3 125.545C316.85 125.592 312.42 125.545 312.42 125.416C312.42 125.287 316.838 125.17 322.288 125.123C327.738 125.076 332.168 125.135 332.168 125.252Z" fill="#263238"/>
<path d="M332.215 130.303C332.215 130.42 327.797 130.549 322.335 130.596C316.874 130.643 312.455 130.596 312.455 130.467C312.455 130.338 316.874 130.221 322.335 130.174C327.797 130.127 332.215 130.186 332.215 130.303Z" fill="#263238"/>
<path d="M397.003 451.103H309.045V539.061H397.003V451.103Z" fill="#F5F5F5"/>
<path d="M386.619 501.428C379.458 491.431 364.258 484.587 351.905 486.427C341.896 487.915 333.035 492.568 328.183 502.507C327.858 503.155 327.694 503.873 327.705 504.598C327.717 505.324 327.903 506.036 328.248 506.674C328.593 507.313 329.087 507.858 329.688 508.265C330.288 508.672 330.979 508.928 331.699 509.011C348.376 511.002 365.233 510.947 381.896 508.847C384.463 508.519 387.522 507.804 387.698 504.628C387.714 503.47 387.333 502.341 386.619 501.428Z" fill="#3E67F5"/>
<g opacity="0.5">
<path d="M386.619 501.428C379.458 491.431 364.258 484.587 351.905 486.427C341.896 487.915 333.036 492.568 328.183 502.507" fill="white"/>
</g>
<path d="M347.076 500.925C347.018 500.925 346.502 500.468 345.822 499.53C344.914 498.29 344.268 496.879 343.923 495.381C343.63 493.892 343.505 492.374 343.548 490.857C343.496 490.232 343.547 489.602 343.701 488.994C343.896 489.591 343.991 490.217 343.982 490.845C344.061 492.32 344.237 493.789 344.509 495.24C344.857 496.668 345.419 498.035 346.174 499.296C346.542 499.798 346.846 500.346 347.076 500.925Z" fill="#F5F5F5"/>
<path d="M357.683 500.444C357.507 500.444 357.765 497.608 357.39 494.162C357.015 490.717 356.218 488.009 356.37 487.951C358.093 491.878 358.552 496.244 357.683 500.444Z" fill="#F5F5F5"/>
<path d="M368.653 498.815C368.477 498.745 369.309 496.858 369.508 494.373C369.707 491.889 369.25 489.885 369.426 489.838C370.015 491.289 370.252 492.859 370.118 494.419C369.984 495.98 369.481 497.486 368.653 498.815Z" fill="#F5F5F5"/>
<g opacity="0.3">
<path d="M355.737 486.896L355.831 487.071L355.737 486.896Z" fill="black"/>
</g>
<path d="M398.023 166.764H309.045V300.149H398.023V166.764Z" fill="#F5F5F5"/>
<path d="M398.023 310.205H309.045V443.59H398.023V310.205Z" fill="#F5F5F5"/>
<path d="M495.475 285.019H406.496V409.555H495.475V285.019Z" fill="#F5F5F5"/>
<path d="M494.748 418.31H405.77V539.049H494.748V418.31Z" fill="#F5F5F5"/>
<path d="M495.475 166.764H406.496V276.932H495.475V166.764Z" fill="#F5F5F5"/>
<path d="M367.516 206.647V243.624C367.516 245.241 366.215 246.917 363.824 248.183C360.62 249.687 357.107 250.418 353.569 250.316H353.51C344.779 250.316 339.564 246.87 339.564 243.624V206.577C339.564 202.967 342.224 199.205 344.896 195.478C346.689 192.993 347.123 189.419 347.24 187.274C347.24 187.028 347.24 186.805 347.24 186.594H346.994C346.481 186.633 345.974 186.468 345.584 186.134C345.193 185.8 344.95 185.325 344.908 184.813V183.254C344.947 182.739 345.188 182.26 345.579 181.922C345.97 181.584 346.478 181.414 346.994 181.449H360.109C360.498 181.438 360.883 181.534 361.222 181.726C361.561 181.918 361.84 182.199 362.031 182.539C362.139 182.762 362.195 183.006 362.195 183.254V184.813C362.15 185.324 361.906 185.797 361.516 186.13C361.126 186.463 360.621 186.63 360.109 186.594H359.804C359.804 186.805 359.804 187.028 359.804 187.274C359.886 189.384 360.32 192.958 362.148 195.478C364.82 199.205 367.469 202.967 367.481 206.577L367.516 206.647Z" fill="#FAFAFA"/>
<path d="M367.516 206.647V206.272C367.484 205.902 367.433 205.535 367.363 205.17C367.05 203.772 366.528 202.429 365.816 201.185C364.673 199.207 363.408 197.301 362.031 195.478C360.418 192.814 359.604 189.742 359.687 186.629V186.418H359.804C360.266 186.488 360.737 186.384 361.127 186.127C361.517 185.869 361.797 185.476 361.914 185.024C361.914 184.555 361.914 183.981 361.914 183.453C361.942 183.211 361.908 182.966 361.816 182.741C361.724 182.515 361.576 182.317 361.386 182.164C360.986 181.842 360.481 181.679 359.968 181.707H354.682H347.135C346.841 181.681 346.545 181.718 346.266 181.815C345.987 181.911 345.732 182.067 345.517 182.269C345.323 182.474 345.192 182.73 345.142 183.008C345.124 183.328 345.124 183.649 345.142 183.969C345.142 184.297 345.142 184.684 345.142 184.953C345.18 185.239 345.307 185.506 345.506 185.715C345.724 185.935 345.989 186.103 346.281 186.207C346.573 186.31 346.885 186.346 347.193 186.313H347.463V186.606C347.449 188.119 347.284 189.626 346.971 191.106C346.666 192.66 346.066 194.14 345.201 195.466C343.23 197.973 341.602 200.732 340.361 203.67C340.096 204.428 339.923 205.215 339.845 206.014C339.845 206.799 339.845 207.667 339.845 208.499V213.585C339.845 217.023 339.845 220.508 339.845 224.039C339.845 230.251 339.845 236.322 339.845 242.182C339.809 242.887 339.84 243.593 339.939 244.292C340.109 244.947 340.444 245.548 340.911 246.038C341.865 247.051 343.024 247.851 344.31 248.382C346.844 249.398 349.539 249.95 352.268 250.011C354.866 250.146 357.47 249.913 360.003 249.32C362.394 248.847 364.59 247.672 366.309 245.944C366.677 245.52 366.956 245.025 367.129 244.491C367.261 243.947 367.308 243.385 367.27 242.827V239.428C367.27 237.201 367.27 235.068 367.27 233.029C367.27 224.907 367.34 218.332 367.363 213.738C367.363 211.487 367.363 209.729 367.363 208.487C367.363 207.245 367.422 206.659 367.422 206.659C367.483 207.266 367.507 207.877 367.492 208.487C367.492 209.729 367.492 211.487 367.551 213.738C367.551 218.332 367.551 224.907 367.645 233.029C367.645 235.068 367.645 237.201 367.645 239.428V242.827C367.69 243.432 367.642 244.04 367.504 244.632C367.313 245.235 367.002 245.793 366.59 246.272C364.808 248.081 362.52 249.307 360.027 249.788C357.446 250.409 354.79 250.658 352.139 250.527C349.326 250.472 346.547 249.908 343.935 248.862C342.57 248.315 341.339 247.479 340.325 246.413C339.794 245.847 339.412 245.159 339.212 244.409C339.099 243.664 339.059 242.911 339.095 242.159C339.095 236.299 339.095 230.228 339.095 224.016C339.095 220.477 339.095 216.992 339.095 213.562V208.475C339.095 207.62 339.095 206.823 339.095 205.944C339.171 205.097 339.352 204.262 339.634 203.459C340.895 200.472 342.555 197.669 344.568 195.126C346.077 192.542 346.833 189.586 346.748 186.594L347.029 186.875C346.645 186.908 346.258 186.854 345.897 186.719C345.537 186.583 345.21 186.368 344.943 186.09C344.67 185.799 344.494 185.43 344.439 185.035C344.439 184.625 344.439 184.332 344.439 183.981C344.417 183.633 344.417 183.285 344.439 182.937C344.508 182.552 344.692 182.197 344.967 181.918C345.228 181.662 345.541 181.465 345.885 181.34C346.228 181.215 346.594 181.164 346.959 181.191H354.507H359.792C360.409 181.173 361.012 181.377 361.492 181.765C361.725 181.964 361.909 182.215 362.027 182.498C362.145 182.782 362.195 183.089 362.172 183.395C362.172 183.945 362.172 184.438 362.172 185.024C362.043 185.574 361.713 186.057 361.247 186.378C360.781 186.699 360.212 186.834 359.652 186.758L359.851 186.559C359.739 189.601 360.504 192.612 362.054 195.232C363.415 197.083 364.66 199.016 365.781 201.021C366.482 202.29 366.973 203.663 367.235 205.088C367.295 205.457 367.33 205.829 367.34 206.202C367.427 206.337 367.486 206.489 367.516 206.647Z" fill="#263238"/>
<path d="M359.113 186.547C355.217 186.957 351.288 186.957 347.393 186.547C351.288 186.138 355.217 186.138 359.113 186.547Z" fill="#263238"/>
<path d="M366.344 211.581C365.716 211.275 365.021 211.13 364.323 211.161C363.625 211.191 362.946 211.396 362.347 211.757C361.15 212.485 359.856 213.042 358.503 213.41C356.853 213.562 355.199 213.149 353.815 212.238C352.434 211.336 350.979 210.552 349.467 209.894C347.966 209.383 346.351 209.304 344.807 209.667C343.263 210.03 341.853 210.819 340.736 211.945V243.589C340.736 243.589 342.482 248.992 354.741 248.148C367 247.304 366.027 241.889 366.027 241.889L366.344 211.581Z" fill="#3E67F5"/>
<path d="M461.077 463.233V499.905C461.077 501.522 459.787 503.175 457.396 504.441C454.217 505.942 450.727 506.669 447.212 506.562C438.527 506.562 433.347 503.128 433.347 499.905V463.28C433.347 463.28 433.347 463.28 433.347 463.198C433.347 459.612 435.996 455.873 438.644 452.181C440.438 449.708 440.86 446.145 440.988 444.059C440.988 443.813 440.988 443.59 440.988 443.391H440.672C440.161 443.427 439.657 443.26 439.269 442.926C438.881 442.593 438.64 442.12 438.598 441.61V440.063C438.637 439.551 438.877 439.076 439.266 438.742C439.655 438.408 440.161 438.242 440.672 438.281H453.705C454.091 438.268 454.474 438.362 454.811 438.552C455.148 438.743 455.426 439.022 455.615 439.359C455.718 439.579 455.77 439.82 455.767 440.063V441.61C455.728 442.119 455.49 442.592 455.103 442.926C454.717 443.259 454.214 443.427 453.705 443.391H453.459C453.459 443.59 453.459 443.813 453.459 444.059C453.541 446.145 453.963 449.708 455.744 452.181C458.404 455.873 461.03 459.612 461.053 463.198C461.088 463.186 461.077 463.21 461.077 463.233Z" fill="#FAFAFA"/>
<path d="M461.077 463.233C461.084 463.108 461.084 462.983 461.077 462.858C461.051 462.488 461.004 462.121 460.936 461.756C460.622 460.371 460.105 459.04 459.401 457.807C458.266 455.837 457.005 453.942 455.627 452.134C454.021 449.489 453.207 446.438 453.283 443.344V443.122H453.482C453.941 443.191 454.409 443.086 454.795 442.828C455.181 442.57 455.457 442.177 455.568 441.727C455.568 441.27 455.568 440.696 455.568 440.168C455.59 439.928 455.554 439.687 455.462 439.464C455.37 439.242 455.225 439.045 455.041 438.891C454.642 438.575 454.143 438.412 453.634 438.434H448.384H440.883C440.591 438.408 440.296 438.445 440.019 438.542C439.743 438.639 439.49 438.794 439.277 438.996C439.08 439.199 438.95 439.456 438.902 439.735C438.884 440.051 438.884 440.368 438.902 440.684C438.902 441 438.902 441.387 438.902 441.657C438.94 441.943 439.067 442.209 439.266 442.418C439.481 442.634 439.743 442.799 440.031 442.901C440.319 443.002 440.626 443.038 440.93 443.004H441.211V443.297C441.197 444.799 441.032 446.295 440.719 447.763C440.418 449.304 439.821 450.773 438.961 452.087C436.998 454.594 435.381 457.353 434.156 460.291C433.888 461.048 433.719 461.836 433.652 462.635C433.652 463.409 433.652 464.276 433.652 465.097C433.652 466.761 433.652 468.449 433.652 470.16V480.52C433.652 486.697 433.652 492.732 433.652 498.557C433.616 499.254 433.648 499.953 433.745 500.643C433.918 501.298 434.253 501.898 434.718 502.39C435.666 503.399 436.816 504.198 438.094 504.734C440.598 505.717 443.256 506.249 445.946 506.304C448.529 506.439 451.117 506.206 453.634 505.613C456.01 505.151 458.192 503.982 459.893 502.261C460.261 501.84 460.54 501.35 460.713 500.819C460.84 500.278 460.884 499.721 460.842 499.167C460.842 497.995 460.842 496.893 460.842 495.791C460.842 493.576 460.842 491.467 460.842 489.439C460.842 481.364 460.912 474.824 460.936 470.265C460.936 468.027 460.936 466.28 460.994 465.061C461.053 463.843 460.994 463.245 460.994 463.245C461.064 463.848 461.088 464.455 461.065 465.061C461.065 466.233 461.065 468.027 461.065 470.265C461.065 474.824 461.123 481.364 461.17 489.439C461.17 491.467 461.17 493.576 461.17 495.791C461.17 496.893 461.17 498.018 461.17 499.167C461.216 499.769 461.165 500.374 461.018 500.96C460.829 501.558 460.522 502.112 460.115 502.589C458.348 504.392 456.076 505.618 453.599 506.105C451.034 506.725 448.394 506.974 445.758 506.843C442.978 506.785 440.23 506.226 437.648 505.191C436.354 504.634 435.189 503.816 434.226 502.788C433.701 502.225 433.322 501.54 433.124 500.796C433.011 500.059 432.972 499.313 433.007 498.569V465.073C433.007 464.229 433.007 463.432 433.007 462.565C433.085 461.718 433.266 460.884 433.546 460.08C434.799 457.118 436.447 454.338 438.445 451.818C439.939 449.249 440.689 446.315 440.613 443.344L440.883 443.614C440.503 443.645 440.121 443.592 439.765 443.458C439.408 443.325 439.086 443.114 438.82 442.84C438.546 442.551 438.374 442.181 438.328 441.786C438.328 441.387 438.328 441.094 438.328 440.742C438.305 440.395 438.305 440.047 438.328 439.699C438.402 439.319 438.585 438.969 438.855 438.691C439.116 438.437 439.427 438.241 439.768 438.116C440.109 437.991 440.473 437.939 440.836 437.965H448.337H453.587C454.201 437.944 454.801 438.148 455.275 438.539C455.508 438.736 455.691 438.985 455.809 439.266C455.927 439.547 455.977 439.852 455.955 440.156C455.955 440.707 455.955 441.2 455.955 441.774C455.812 442.315 455.481 442.787 455.021 443.105C454.562 443.423 454.003 443.566 453.447 443.508L453.646 443.309C453.537 446.326 454.294 449.311 455.826 451.912C457.187 453.745 458.425 455.668 459.529 457.666C460.228 458.927 460.718 460.292 460.983 461.71C461.046 462.073 461.077 462.442 461.077 462.811C461.112 463.104 461.1 463.233 461.077 463.233Z" fill="#263238"/>
<path d="M452.732 443.251C448.875 443.657 444.986 443.657 441.129 443.251C444.986 442.844 448.875 442.844 452.732 443.251Z" fill="#263238"/>
<path d="M459.916 468.132C459.294 467.823 458.603 467.677 457.909 467.705C457.214 467.734 456.538 467.937 455.943 468.296C454.757 469.021 453.475 469.577 452.134 469.949C450.484 470.097 448.832 469.684 447.446 468.777C446.074 467.873 444.628 467.088 443.122 466.433C441.631 465.928 440.028 465.852 438.497 466.215C436.965 466.578 435.567 467.364 434.46 468.484V499.963C434.46 499.963 436.183 505.343 448.36 504.499C460.537 503.655 459.588 498.276 459.588 498.276L459.916 468.132Z" fill="#3E67F5"/>
<g opacity="0.5">
<path d="M459.916 468.132C459.294 467.823 458.603 467.677 457.909 467.705C457.214 467.734 456.538 467.937 455.943 468.296C454.757 469.021 453.475 469.577 452.134 469.949C450.484 470.097 448.832 469.684 447.446 468.777C446.074 467.873 444.628 467.088 443.122 466.433C441.631 465.928 440.028 465.852 438.497 466.215C436.965 466.578 435.567 467.364 434.46 468.484V499.963C434.46 499.963 436.183 505.343 448.36 504.499C460.537 503.655 459.588 498.276 459.588 498.276L459.916 468.132Z" fill="white"/>
</g>
<path d="M480.157 329.965C479.756 329.801 479.32 329.741 478.89 329.791C478.46 329.84 478.049 329.996 477.695 330.246C477.52 330.363 477.332 330.504 477.156 330.645C471.207 335.044 463.975 337.363 456.576 337.243C442.172 337.243 430.241 329.168 428.108 318.62V316.628C428.126 316.428 428.102 316.227 428.038 316.037C427.975 315.848 427.872 315.673 427.737 315.525C427.602 315.378 427.437 315.259 427.254 315.179C427.071 315.098 426.873 315.056 426.672 315.056C426.472 315.056 426.274 315.098 426.091 315.179C425.908 315.259 425.743 315.378 425.608 315.525C425.473 315.673 425.37 315.848 425.306 316.037C425.242 316.227 425.219 316.428 425.237 316.628V322.206C425.246 322.338 425.273 322.469 425.319 322.593C424.329 324.782 423.806 327.153 423.783 329.555C423.783 341.732 436.675 351.623 452.626 351.623C465.999 351.623 477.238 344.673 480.52 335.215C480.56 335.174 480.584 335.12 480.59 335.063C480.97 334.309 481.182 333.481 481.211 332.637C481.299 332.138 481.246 331.624 481.06 331.153C480.874 330.681 480.561 330.27 480.157 329.965Z" fill="#3E67F5"/>
<g opacity="0.3">
<path d="M427.03 324.058C427.03 324.058 440.613 355.304 477.426 333.434C477.426 333.434 467.944 343.279 455.58 345.67C444.376 347.815 427.78 341.497 427.03 324.058Z" fill="black"/>
</g>
<path d="M481.165 331.535C480.942 332.074 480.063 332.227 479.207 331.864C478.352 331.5 477.836 330.762 478.035 330.223C478.235 329.684 479.137 329.543 479.993 329.906C480.848 330.27 481.399 330.996 481.165 331.535Z" fill="#263238"/>
<path d="M494.889 130.092C494.792 130.109 494.693 130.109 494.596 130.092H493.764H490.681L480.333 130.186H480.25V130.104C480.168 129.553 480.086 128.932 479.993 128.392C479.278 123.376 478.645 118.899 478.223 115.969H478.282H474.766C474.684 115.979 474.601 115.979 474.519 115.969H474.766H475.504H478.258H478.317V116.028C478.75 118.946 479.418 123.423 480.168 128.428C480.25 129.014 480.333 129.6 480.415 130.139L480.321 130.057H490.67H494.877L494.889 130.092Z" fill="#263238"/>
<path d="M479.887 127.162C479.887 127.162 479.887 127.162 479.969 127.162H480.18H481.012H484.13L494.865 127.056L494.772 127.138C495.076 125.322 495.416 123.365 495.756 121.349C495.932 120.306 496.108 119.274 496.283 118.302L496.377 118.419H483.72H478.692C478.633 118.419 478.61 118.419 478.61 118.419H478.961H479.969H483.72L496.377 118.313H496.494V118.43L495.979 121.466C495.627 123.493 495.287 125.451 494.982 127.326V127.396H494.9H484.165H479.922L479.887 127.162Z" fill="#263238"/>
<path d="M484.036 134.1C484.036 134.1 484.036 133.971 483.954 133.748C483.865 133.444 483.675 133.18 483.415 132.998C483.228 132.866 483.012 132.781 482.786 132.751C482.559 132.72 482.329 132.745 482.114 132.823C481.853 132.921 481.628 133.096 481.469 133.326C481.311 133.555 481.226 133.827 481.226 134.106C481.226 134.385 481.311 134.657 481.469 134.886C481.628 135.116 481.853 135.291 482.114 135.389C482.329 135.472 482.561 135.498 482.789 135.465C483.016 135.432 483.232 135.341 483.415 135.202C483.668 135.016 483.854 134.753 483.942 134.452C484.013 134.229 484.013 134.1 484.024 134.1C484.055 134.219 484.055 134.344 484.024 134.463C483.951 134.8 483.765 135.102 483.497 135.319C483.296 135.476 483.059 135.58 482.807 135.623C482.555 135.666 482.297 135.646 482.055 135.565C481.752 135.462 481.489 135.266 481.302 135.005C481.115 134.745 481.015 134.432 481.015 134.112C481.015 133.791 481.115 133.479 481.302 133.218C481.489 132.958 481.752 132.762 482.055 132.658C482.298 132.573 482.558 132.549 482.812 132.59C483.066 132.631 483.305 132.735 483.509 132.893C483.778 133.103 483.965 133.402 484.036 133.737C484.07 133.855 484.07 133.981 484.036 134.1Z" fill="#263238"/>
<path d="M493.412 134.042C493.412 134.042 493.412 133.913 493.33 133.702C493.243 133.397 493.053 133.131 492.791 132.952C492.606 132.817 492.39 132.73 492.163 132.7C491.935 132.669 491.704 132.695 491.49 132.776C491.296 132.838 491.118 132.942 490.97 133.081C490.821 133.22 490.705 133.39 490.63 133.579C490.556 133.768 490.524 133.972 490.538 134.175C490.551 134.378 490.61 134.575 490.709 134.753C490.809 134.93 490.946 135.083 491.112 135.201C491.278 135.319 491.468 135.398 491.669 135.433C491.869 135.468 492.075 135.459 492.271 135.404C492.467 135.35 492.649 135.253 492.803 135.12C493.057 134.928 493.245 134.662 493.342 134.358C493.4 134.136 493.4 134.007 493.412 134.007C493.442 134.126 493.442 134.251 493.412 134.37C493.345 134.706 493.162 135.009 492.896 135.225C492.672 135.402 492.403 135.512 492.12 135.545C491.836 135.577 491.55 135.529 491.292 135.408C491.034 135.286 490.815 135.095 490.659 134.856C490.504 134.616 490.418 134.339 490.412 134.054C490.411 133.734 490.509 133.423 490.691 133.161C490.873 132.899 491.132 132.699 491.431 132.589C491.672 132.503 491.93 132.479 492.182 132.52C492.434 132.561 492.672 132.665 492.873 132.823C493.148 133.028 493.336 133.329 493.4 133.667C493.44 133.788 493.444 133.918 493.412 134.042Z" fill="#263238"/>
<path d="M496.446 120.804C498.686 120.321 500.11 118.113 499.626 115.874C499.143 113.634 496.935 112.21 494.695 112.693C492.456 113.177 491.032 115.385 491.515 117.624C491.999 119.864 494.206 121.288 496.446 120.804Z" fill="#3E67F5"/>
<path d="M496.084 115.172V118.325H495.346V115.758H494.713V115.172H496.084Z" fill="white"/>
<path d="M463.549 498.792H342.4C333.416 498.792 326.132 506.075 326.132 515.059V522.864C326.132 531.849 333.416 539.132 342.4 539.132H463.549C472.534 539.132 479.817 531.849 479.817 522.864V515.059C479.817 506.075 472.534 498.792 463.549 498.792Z" fill="#3E67F5"/>
<g opacity="0.3">
<path d="M463.549 498.792H342.4C333.416 498.792 326.132 506.075 326.132 515.059V522.864C326.132 531.849 333.416 539.132 342.4 539.132H463.549C472.534 539.132 479.817 531.849 479.817 522.864V515.059C479.817 506.075 472.534 498.792 463.549 498.792Z" fill="black"/>
</g>
<path d="M457.584 498.792H336.434C327.45 498.792 320.167 506.075 320.167 515.059V522.864C320.167 531.849 327.45 539.132 336.434 539.132H457.584C466.568 539.132 473.851 531.849 473.851 522.864V515.059C473.851 506.075 466.568 498.792 457.584 498.792Z" fill="#3E67F5"/>
<path d="M392.386 516.747C392.386 518.809 390.885 520.063 388.413 520.063H386.069V522.958H384.709V513.418H388.436C390.885 513.418 392.386 514.672 392.386 516.747ZM391.026 516.747C391.026 515.375 390.112 514.602 388.366 514.602H386.022V518.88H388.366C390.112 518.88 391.026 518.106 391.026 516.747Z" fill="white"/>
<path d="M399.992 520.567H394.964L393.921 522.911H392.515L396.839 513.371H398.187L402.512 522.911H401.082L399.992 520.567ZM399.511 519.477L397.46 514.789L395.398 519.477H399.511Z" fill="white"/>
<path d="M406.965 519.653V522.958H405.617V519.63L401.832 513.418H403.285L406.332 518.446L409.403 513.418H410.751L406.965 519.653Z" fill="white"/>
<path d="M356.499 355.597C356.846 353.349 356.746 351.055 356.203 348.847C355.66 346.639 354.686 344.56 353.336 342.73C351.986 340.9 350.288 339.355 348.339 338.184C346.389 337.013 344.228 336.239 341.978 335.907C341.73 335.81 341.458 335.789 341.198 335.848C340.938 335.906 340.701 336.041 340.519 336.235C340.336 336.429 340.215 336.674 340.173 336.937C340.13 337.2 340.167 337.47 340.279 337.712C340.689 342.094 342.477 346.233 345.387 349.535C348.298 352.837 352.18 355.132 356.476 356.089" fill="#455A64"/>
<path d="M332.344 387.417C336.692 396.382 342.892 402.418 350.686 402.711C352.233 402.711 353.405 401.75 354.882 401.656C355.745 401.853 356.578 402.168 357.355 402.594C357.767 402.769 358.208 402.868 358.655 402.887C366.648 402.453 373.47 396.828 378.064 387.417C384.451 374.232 382.482 360.074 373.657 355.773C372.496 355.193 371.283 354.723 370.036 354.366C368.61 353.968 367.131 353.794 365.652 353.85C362.21 354.069 358.823 354.833 355.62 356.112L355.186 356.276C348.014 353.1 342.294 353.089 336.727 355.773C327.902 360.074 325.945 374.232 332.344 387.417Z" fill="#3E67F5"/>
<path d="M332.496 374.067C332.082 373.241 331.836 372.341 331.77 371.419C331.508 369.189 331.777 366.929 332.555 364.823C333.333 362.716 334.598 360.824 336.247 359.3C336.89 358.636 337.664 358.113 338.52 357.765C338.579 357.847 337.7 358.421 336.54 359.605C335.045 361.152 333.887 362.992 333.138 365.01C332.39 367.027 332.068 369.177 332.192 371.325C332.309 373.024 332.602 374.032 332.496 374.067Z" fill="#FAFAFA"/>
<path d="M334.114 380.326C333.95 380.326 333.668 379.74 333.481 378.943C333.293 378.146 333.282 377.455 333.481 377.408C333.68 377.361 333.926 377.994 334.114 378.802C334.301 379.611 334.278 380.291 334.114 380.326Z" fill="#FAFAFA"/>
<path d="M374.747 334.02C374.747 334.137 373.083 334.77 370.598 336.259C369.149 337.137 367.767 338.12 366.461 339.2C364.9 340.552 363.457 342.034 362.148 343.63C360.828 345.244 359.652 346.969 358.632 348.787C357.83 350.277 357.14 351.824 356.569 353.417C355.597 356.159 355.315 357.941 355.198 357.917C355.19 357.491 355.237 357.065 355.339 356.651C355.402 356.157 355.5 355.667 355.632 355.186C355.775 354.545 355.951 353.911 356.159 353.288C356.676 351.642 357.338 350.045 358.14 348.518C360.112 344.767 362.823 341.454 366.109 338.778C367.439 337.698 368.858 336.734 370.352 335.895C370.925 335.566 371.516 335.268 372.122 335.004C372.567 334.783 373.025 334.587 373.493 334.418C373.894 334.237 374.315 334.104 374.747 334.02Z" fill="#263238"/>
<path d="M483.286 211.37C476.125 201.385 460.924 194.54 448.571 196.38C438.562 197.869 429.702 202.522 424.85 212.46C424.528 213.109 424.366 213.826 424.378 214.551C424.391 215.275 424.577 215.986 424.922 216.624C425.266 217.261 425.759 217.807 426.359 218.214C426.958 218.622 427.646 218.879 428.366 218.965C445.042 220.956 461.9 220.9 478.563 218.801C481.141 218.473 484.188 217.758 484.364 214.582C484.38 213.42 484 212.287 483.286 211.37Z" fill="#3E67F5"/>
<path d="M443.743 210.878C443.684 210.878 443.168 210.421 442.489 209.483C441.583 208.242 440.937 206.831 440.59 205.334C440.297 203.845 440.171 202.328 440.215 200.81C440.17 200.181 440.222 199.549 440.367 198.935C440.566 199.532 440.661 200.158 440.649 200.787C440.732 202.266 440.912 203.738 441.188 205.194C441.525 206.625 442.087 207.993 442.852 209.249C443.217 209.752 443.517 210.299 443.743 210.878Z" fill="#263238"/>
<path d="M454.361 210.386C454.173 210.386 454.431 207.55 454.068 204.104C453.705 200.658 452.896 197.951 453.048 197.892C453.996 199.809 454.546 201.898 454.666 204.034C454.987 206.15 454.883 208.31 454.361 210.386Z" fill="#263238"/>
<path d="M465.284 208.768C465.12 208.698 465.94 206.799 466.14 204.315C466.339 201.83 465.882 199.826 466.058 199.791C466.647 201.242 466.884 202.812 466.75 204.372C466.615 205.933 466.113 207.439 465.284 208.768Z" fill="#263238"/>
<g opacity="0.3">
<path d="M452.392 196.896L452.486 197.072L452.392 196.896Z" fill="black"/>
</g>
<g opacity="0.3">
<path d="M452.497 197.025C451.403 199.03 450.983 201.335 451.3 203.597C451.616 205.86 452.653 207.961 454.255 209.589C455.292 205.33 454.664 200.836 452.497 197.025Z" fill="black"/>
</g>
<g opacity="0.3">
<path d="M442.301 209.12C441.165 207.058 440.485 204.776 440.309 202.428C440.321 201.391 440.171 200.359 439.863 199.369C438.631 200.902 438.024 202.845 438.164 204.807C438.331 206.869 439.298 208.783 440.86 210.14C441.093 210.358 441.374 210.518 441.68 210.609C441.834 210.646 441.997 210.636 442.145 210.58C442.294 210.523 442.422 210.423 442.512 210.292C442.723 209.929 442.512 209.483 442.301 209.12Z" fill="black"/>
</g>
<g opacity="0.3">
<path d="M466.28 200.717C466.239 200.307 466.12 199.909 465.929 199.545C465.83 199.368 465.683 199.223 465.504 199.127C465.325 199.031 465.123 198.989 464.921 199.006C464.37 199.099 464.1 199.721 463.936 200.26C463.014 202.572 462.735 205.091 463.127 207.55C463.256 208.1 463.62 208.722 464.194 208.722C464.768 208.722 464.921 208.253 465.12 207.866C466.244 205.663 466.65 203.163 466.28 200.717Z" fill="black"/>
</g>
<path d="M329.895 275.76V276.862H329.086V275.772C328.22 275.75 327.382 275.464 326.683 274.951L327.117 273.967C327.693 274.39 328.374 274.645 329.086 274.705V272.748C327.996 272.479 326.824 272.127 326.824 270.756C326.824 269.76 327.551 268.881 329.086 268.74V267.568H329.895V268.658C330.597 268.692 331.281 268.897 331.887 269.256L331.477 270.252C330.992 269.967 330.453 269.787 329.895 269.724V271.705C330.984 271.963 332.168 272.314 332.168 273.674C332.168 274.741 331.43 275.596 329.895 275.76ZM329.086 271.553V269.806C328.394 269.912 328.09 270.275 328.09 270.697C328.09 271.119 328.512 271.389 329.086 271.553ZM330.914 273.826C330.914 273.346 330.481 273.111 329.895 272.947V274.682C330.609 274.576 330.914 274.248 330.914 273.826Z" fill="#263238"/>
<path d="M338.04 268.81V275.678H336.762V269.877H335.309V268.81H338.04Z" fill="#263238"/>
<path d="M340.97 274.928C340.953 275.225 340.878 275.516 340.747 275.783L340.243 277.166H339.446L339.845 275.654C339.702 275.596 339.582 275.494 339.5 275.364C339.418 275.234 339.379 275.081 339.388 274.928C339.374 274.816 339.384 274.702 339.418 274.594C339.451 274.487 339.507 274.387 339.582 274.303C339.657 274.218 339.749 274.151 339.852 274.104C339.955 274.058 340.066 274.034 340.179 274.034C340.292 274.034 340.403 274.058 340.506 274.104C340.609 274.151 340.701 274.218 340.776 274.303C340.85 274.387 340.906 274.487 340.94 274.594C340.973 274.702 340.984 274.816 340.97 274.928Z" fill="#263238"/>
<path d="M346.795 273.568C346.795 274.74 345.928 275.783 344.076 275.783C343.154 275.798 342.251 275.519 341.497 274.987L342.036 273.99C342.617 274.438 343.331 274.677 344.064 274.67C344.966 274.67 345.517 274.272 345.517 273.615C345.517 272.959 345.084 272.549 343.666 272.549H342.013L342.365 268.81H346.396V269.877H343.396L343.244 271.471H343.9C345.986 271.471 346.795 272.349 346.795 273.568Z" fill="#263238"/>
<path d="M347.533 272.244C347.533 269.982 348.776 268.728 350.405 268.728C352.034 268.728 353.276 270.005 353.276 272.244C353.276 274.482 352.045 275.76 350.405 275.76C348.764 275.76 347.533 274.506 347.533 272.244ZM351.999 272.244C351.999 270.58 351.342 269.818 350.405 269.818C349.467 269.818 348.822 270.58 348.822 272.244C348.822 273.908 349.467 274.67 350.405 274.67C351.342 274.67 351.999 273.896 351.999 272.244Z" fill="#263238"/>
<path d="M381.685 284.433C381.685 284.608 369.086 284.737 353.557 284.737C338.028 284.737 325.429 284.608 325.429 284.433C325.429 284.257 338.028 284.128 353.557 284.128C369.086 284.128 381.685 284.269 381.685 284.433Z" fill="#263238"/>
<path d="M351.6 289.015C351.6 289.191 345.74 289.32 338.532 289.32C331.324 289.32 325.453 289.191 325.453 289.015C325.453 288.839 331.313 288.71 338.532 288.71C345.752 288.71 351.6 288.851 351.6 289.015Z" fill="#263238"/>
<path d="M428.542 247.655V248.757H427.78V247.667C426.937 247.631 426.122 247.35 425.436 246.858L425.87 245.862C426.441 246.296 427.124 246.556 427.839 246.612V244.643C426.749 244.386 425.577 244.022 425.577 242.663C425.577 241.666 426.303 240.787 427.839 240.635V239.533H428.647V240.623C429.352 240.648 430.038 240.854 430.64 241.221L430.23 242.206C429.745 241.921 429.206 241.741 428.647 241.678V243.659C429.737 243.928 430.921 244.268 430.921 245.64C430.816 246.636 430.124 247.503 428.542 247.655ZM427.733 243.46V241.713C427.03 241.819 426.737 242.17 426.737 242.604C426.737 243.038 427.159 243.296 427.78 243.46H427.733ZM429.561 245.722C429.561 245.241 429.128 245.018 428.542 244.854V246.589C429.257 246.483 429.561 246.12 429.561 245.722Z" fill="#263238"/>
<path d="M439.289 246.507V247.585H434.214V246.729L436.945 244.139C437.613 243.495 437.73 243.096 437.73 242.709C437.73 242.088 437.297 241.725 436.453 241.725C436.148 241.709 435.843 241.765 435.564 241.889C435.285 242.014 435.039 242.202 434.847 242.44L433.956 241.748C434.268 241.363 434.666 241.056 435.118 240.852C435.57 240.649 436.063 240.554 436.558 240.576C438.058 240.576 439.02 241.326 439.02 242.545C439.006 242.973 438.893 243.392 438.69 243.768C438.486 244.144 438.198 244.468 437.848 244.714L436.007 246.472L439.289 246.507Z" fill="#263238"/>
<path d="M441.692 246.835C441.673 247.128 441.598 247.415 441.469 247.679L440.965 249.062H440.168L440.567 247.561C440.423 247.504 440.301 247.403 440.217 247.272C440.133 247.142 440.091 246.99 440.098 246.835C440.098 246.623 440.182 246.421 440.331 246.271C440.481 246.122 440.683 246.038 440.895 246.038C441.106 246.038 441.309 246.122 441.458 246.271C441.608 246.421 441.692 246.623 441.692 246.835Z" fill="#263238"/>
<path d="M447.598 246.507V247.585H442.524V246.729L445.254 244.139C445.923 243.495 446.04 243.096 446.04 242.709C446.04 242.088 445.606 241.725 444.762 241.725C444.457 241.709 444.153 241.765 443.874 241.889C443.594 242.014 443.349 242.202 443.157 242.44L442.266 241.748C442.579 241.361 442.978 241.053 443.432 240.85C443.887 240.646 444.382 240.552 444.879 240.576C446.368 240.576 447.329 241.326 447.329 242.545C447.315 242.973 447.202 243.392 446.999 243.768C446.796 244.144 446.507 244.468 446.157 244.714L444.317 246.472L447.598 246.507Z" fill="#263238"/>
<path d="M453.33 245.475C453.33 246.647 452.462 247.679 450.611 247.679C449.688 247.698 448.783 247.419 448.032 246.882L448.571 245.897C449.15 246.339 449.859 246.574 450.587 246.565C451.501 246.565 452.04 246.167 452.04 245.522C452.04 244.878 451.619 244.444 450.2 244.444H448.536L448.899 240.705H452.931V241.784H449.978L449.825 243.366H450.482C452.521 243.366 453.33 244.256 453.33 245.475Z" fill="#263238"/>
<path d="M480.332 256.34C480.332 256.504 467.733 256.644 452.204 256.644C436.675 256.644 424.076 256.504 424.076 256.34C424.076 256.176 436.687 256.035 452.204 256.035C467.722 256.035 480.332 256.176 480.332 256.34Z" fill="#263238"/>
<path d="M450.271 260.923C450.271 261.087 444.411 261.227 437.191 261.227C429.972 261.227 424.123 261.087 424.123 260.923C424.123 260.759 429.983 260.618 437.191 260.618C444.399 260.618 450.271 260.759 450.271 260.923Z" fill="#263238"/>
<path d="M327.644 418.404V419.506H326.836V418.404C325.97 418.38 325.132 418.094 324.433 417.584L324.878 416.599C325.447 417.027 326.126 417.283 326.836 417.337V415.38C325.746 415.111 324.585 414.759 324.585 413.4C324.585 412.392 325.312 411.524 326.836 411.372V410.259H327.644V411.372C328.347 411.406 329.031 411.611 329.637 411.97L329.238 412.966C328.749 412.683 328.206 412.503 327.644 412.438V414.419C328.734 414.689 329.918 415.029 329.918 416.388C329.918 417.373 329.191 418.24 327.644 418.404ZM326.836 414.196V412.45C326.144 412.567 325.851 412.919 325.851 413.353C325.851 413.786 326.273 414.021 326.836 414.185V414.196ZM328.664 416.47C328.664 415.99 328.23 415.767 327.644 415.591V417.337C328.359 417.232 328.664 416.88 328.664 416.458V416.47Z" fill="#263238"/>
<path d="M333.411 414.888C333.411 412.626 334.653 411.372 336.282 411.372C337.911 411.372 339.153 412.638 339.153 414.888C339.153 417.138 337.923 418.404 336.282 418.404C334.641 418.404 333.411 417.138 333.411 414.888ZM337.876 414.888C337.876 413.236 337.22 412.462 336.282 412.462C335.344 412.462 334.7 413.236 334.7 414.888C334.7 416.541 335.344 417.314 336.282 417.314C337.22 417.314 337.876 416.541 337.876 414.888Z" fill="#263238"/>
<path d="M341.474 417.572C341.455 417.865 341.38 418.152 341.251 418.416L340.747 419.799H339.962L340.349 418.299C340.208 418.237 340.09 418.135 340.008 418.006C339.927 417.876 339.886 417.725 339.892 417.572C339.878 417.46 339.888 417.346 339.922 417.239C339.955 417.131 340.011 417.032 340.086 416.947C340.161 416.863 340.253 416.795 340.356 416.749C340.459 416.702 340.57 416.678 340.683 416.678C340.796 416.678 340.907 416.702 341.01 416.749C341.113 416.795 341.205 416.863 341.279 416.947C341.354 417.032 341.41 417.131 341.444 417.239C341.477 417.346 341.488 417.46 341.474 417.572Z" fill="#263238"/>
<path d="M347.299 416.201C347.299 417.373 346.431 418.416 344.58 418.416C343.657 418.435 342.752 418.156 342.001 417.619L342.54 416.623C343.117 417.068 343.827 417.308 344.556 417.302C345.47 417.302 346.01 416.904 346.01 416.248C346.01 415.591 345.588 415.181 344.169 415.181H342.505L342.869 411.442H346.912V412.544H343.959L343.806 414.138H344.462C346.49 414.103 347.299 414.982 347.299 416.201Z" fill="#263238"/>
<path d="M348.084 414.888C348.084 412.626 349.326 411.372 350.955 411.372C352.585 411.372 353.827 412.638 353.827 414.888C353.827 417.138 352.596 418.404 350.955 418.404C349.315 418.404 348.084 417.138 348.084 414.888ZM352.549 414.888C352.549 413.236 351.893 412.462 350.955 412.462C350.018 412.462 349.373 413.236 349.373 414.888C349.373 416.541 350.018 417.314 350.955 417.314C351.893 417.314 352.502 416.541 352.502 414.888H352.549Z" fill="#263238"/>
<path d="M379.447 427.077C379.447 427.241 366.836 427.382 351.319 427.382C335.801 427.382 323.191 427.241 323.191 427.077C323.191 426.913 335.79 426.772 351.319 426.772C366.848 426.772 379.447 426.901 379.447 427.077Z" fill="#263238"/>
<path d="M349.373 431.659C349.373 431.823 343.513 431.964 336.305 431.964C329.098 431.964 323.238 431.823 323.238 431.659C323.238 431.495 329.098 431.354 336.305 431.354C343.513 431.354 349.373 431.483 349.373 431.659Z" fill="#263238"/>
<path d="M423.971 381.205V382.307H423.174V381.217C422.305 381.194 421.463 380.908 420.76 380.396L421.205 379.412C421.777 379.841 422.461 380.097 423.174 380.15V378.193C422.084 377.923 420.912 377.572 420.912 376.212C420.912 375.204 421.639 374.337 423.174 374.185V373.071H423.971V374.161C424.674 374.195 425.358 374.401 425.963 374.759L425.565 375.755C425.076 375.47 424.533 375.29 423.971 375.228V377.208C425.061 377.478 426.245 377.818 426.245 379.177C426.245 380.185 425.518 381.053 423.971 381.205ZM423.174 376.997V375.251C422.471 375.368 422.178 375.72 422.178 376.154C422.178 376.587 422.6 376.833 423.174 376.997ZM424.991 379.271C424.991 378.791 424.557 378.568 423.971 378.392V380.138C424.686 380.021 424.991 379.728 424.991 379.271Z" fill="#263238"/>
<path d="M432.116 374.255V381.123H430.839V375.321H429.386V374.255H432.116Z" fill="#263238"/>
<path d="M435.058 380.385C435.04 380.678 434.964 380.964 434.835 381.228L434.331 382.611H433.534L433.921 381.111C433.781 381.05 433.662 380.948 433.581 380.818C433.499 380.689 433.458 380.538 433.464 380.385C433.464 380.173 433.548 379.971 433.698 379.821C433.847 379.672 434.05 379.588 434.261 379.588C434.472 379.588 434.675 379.672 434.825 379.821C434.974 379.971 435.058 380.173 435.058 380.385Z" fill="#263238"/>
<path d="M435.761 377.689C435.761 375.427 437.004 374.173 438.633 374.173C440.262 374.173 441.504 375.439 441.504 377.689C441.504 379.939 440.332 381.205 438.633 381.205C436.933 381.205 435.761 379.951 435.761 377.689ZM440.227 377.689C440.227 376.036 439.57 375.263 438.633 375.263C437.695 375.263 437.05 376.036 437.05 377.689C437.05 379.341 437.695 380.115 438.633 380.115C439.57 380.115 440.227 379.353 440.227 377.689Z" fill="#263238"/>
<path d="M442.371 377.689C442.371 375.427 443.614 374.173 445.243 374.173C446.872 374.173 448.114 375.439 448.114 377.689C448.114 379.939 446.884 381.205 445.243 381.205C443.602 381.205 442.371 379.951 442.371 377.689ZM446.837 377.689C446.837 376.036 446.18 375.263 445.243 375.263C444.305 375.263 443.661 376.036 443.661 377.689C443.661 379.341 444.305 380.115 445.243 380.115C446.18 380.115 446.837 379.353 446.837 377.689Z" fill="#263238"/>
<path d="M475.832 389.889C475.832 390.053 463.221 390.194 447.704 390.194C432.187 390.194 419.576 390.053 419.576 389.889C419.576 389.725 432.175 389.573 447.704 389.573C463.233 389.573 475.832 389.713 475.832 389.889Z" fill="#263238"/>
<path d="M445.7 394.472C445.7 394.636 439.84 394.776 432.632 394.776C425.424 394.776 419.564 394.636 419.564 394.472C419.564 394.308 425.424 394.155 432.632 394.155C439.84 394.155 445.7 394.296 445.7 394.472Z" fill="#263238"/>
<path d="M433.359 127.197C433.359 127.361 419.775 127.502 403.027 127.502C386.279 127.502 372.684 127.361 372.684 127.197C372.684 127.033 386.268 126.893 403.027 126.893C419.787 126.893 433.359 127.022 433.359 127.197Z" fill="#3E67F5"/>
<path d="M38.2072 491.127C36.3941 491.201 34.6581 491.881 33.2771 493.058C31.896 494.235 30.9496 495.841 30.5892 497.62C29.8276 500.478 29.2289 503.378 28.7961 506.304C28.7961 506.304 21.9164 512.492 28.7961 514.145C35.6757 515.797 38.1721 506.527 38.1721 506.527L39.2269 491.08L38.2072 491.127Z" fill="#FFBE9D"/>
<path d="M107.097 372.696C107.097 372.696 128.592 300.513 130.783 297.407C134.393 292.262 169.19 276.791 169.19 276.791L178.566 257.758L236.357 248.464L250.691 266.911L290.972 296.516L288.16 398.621L286.659 469.914L294.289 558.915L111.34 558.575L119.614 539.823L128.299 377.947L107.097 372.696Z" fill="#3E67F5"/>
<path d="M131.885 362.957C131.832 362.766 131.808 362.568 131.815 362.371C131.815 361.913 131.815 361.363 131.721 360.695C131.721 359.241 131.592 357.179 131.545 354.542C131.452 349.338 131.452 342.154 131.674 334.219C131.897 326.285 132.319 319.112 132.717 313.92C132.905 311.33 133.092 309.232 133.245 307.791L133.421 306.126C133.438 305.932 133.474 305.74 133.526 305.552C133.559 305.746 133.559 305.944 133.526 306.138C133.526 306.583 133.526 307.134 133.456 307.802C133.374 309.349 133.256 311.424 133.116 313.955C132.835 319.147 132.483 326.308 132.26 334.243C132.038 342.177 131.967 349.338 131.956 354.542C131.956 357.073 131.956 359.148 131.956 360.695C131.956 361.363 131.956 361.867 131.956 362.371C131.96 362.568 131.936 362.766 131.885 362.957Z" fill="#263238"/>
<g opacity="0.3">
<path d="M173.327 342.224C173.283 341.416 173.519 340.617 173.995 339.962C174.798 338.979 175.898 338.282 177.13 337.978C178.362 337.674 179.66 337.778 180.828 338.274C183.887 339.739 185.41 343.255 186.032 346.595C186.7 350.252 186.606 354.026 187.297 357.683C187.989 361.339 189.641 365.066 192.864 366.953C196.837 369.297 202.053 368.242 206.225 370.211C212.437 373.13 213.878 381.205 214.195 388.073C214.781 401.07 214.195 414.079 213.656 427.077L210.069 510.078L206.799 551.719L189.97 558.868L167.702 412.544L173.327 342.224Z" fill="black"/>
</g>
<path d="M178.144 330.363C178.018 330.471 177.87 330.551 177.71 330.598C177.253 330.761 176.761 330.81 176.28 330.738C175.4 330.582 174.579 330.189 173.905 329.6C173.232 329.011 172.732 328.25 172.46 327.398C172.098 326.231 171.982 325.002 172.12 323.788C172.275 322.429 172.502 321.08 172.8 319.745C173.362 316.909 173.972 313.815 174.628 310.568C175.941 304.064 177.159 298.18 178.074 293.926L179.246 288.898C179.359 288.277 179.52 287.666 179.726 287.07C179.702 287.701 179.62 288.329 179.48 288.945C179.234 290.246 178.929 291.957 178.554 294.02C177.745 298.286 176.585 304.181 175.273 310.685C174.605 313.932 173.972 317.026 173.397 319.85C172.823 322.675 172.225 325.23 172.917 327.269C173.153 328.065 173.597 328.784 174.202 329.352C174.808 329.921 175.553 330.318 176.363 330.504C176.959 330.589 177.568 330.541 178.144 330.363Z" fill="#263238"/>
<path d="M184.074 303.208C184.074 303.267 183.594 303.267 182.797 303.513C181.679 303.882 180.696 304.576 179.972 305.505C179.428 306.165 179.063 306.953 178.911 307.794C178.759 308.636 178.826 309.502 179.105 310.31C179.411 311.313 180.012 312.201 180.83 312.857C181.647 313.514 182.643 313.91 183.688 313.993C184.733 314.077 185.78 313.844 186.691 313.325C187.602 312.806 188.336 312.025 188.797 311.084C189.201 310.331 189.404 309.488 189.388 308.634C189.372 307.78 189.136 306.945 188.704 306.208C188.141 305.173 187.279 304.332 186.231 303.794C185.481 303.419 185.059 303.349 185.059 303.29C185.059 303.231 185.176 303.29 185.399 303.29C185.73 303.335 186.054 303.425 186.36 303.56C187.515 304.045 188.481 304.892 189.114 305.974C189.562 306.72 189.838 307.557 189.923 308.423C190.015 309.429 189.811 310.439 189.337 311.33C188.834 312.383 188.024 313.259 187.013 313.842C186.002 314.425 184.838 314.687 183.675 314.594C182.511 314.502 181.404 314.058 180.498 313.323C179.592 312.587 178.931 311.594 178.601 310.474C178.272 309.519 178.231 308.488 178.484 307.509C178.755 306.487 179.294 305.555 180.046 304.811C180.799 304.067 181.736 303.538 182.762 303.278C183.086 303.192 183.422 303.152 183.758 303.161C183.865 303.158 183.972 303.174 184.074 303.208Z" fill="#263238"/>
<path d="M203.752 377.829L98.0847 358.702L48.7552 369.532L159.134 389.397L203.752 377.829Z" fill="#3E67F5"/>
<g opacity="0.6">
<path d="M203.752 377.829L98.0847 358.702L48.7552 369.532L159.134 389.397L203.752 377.829Z" fill="black"/>
</g>
<path d="M136.186 423.912C137.616 404.434 142.961 354.964 146.969 335.848C148.141 330.129 149.547 324.281 152.829 319.44C156.11 314.6 161.9 311.06 167.666 311.951C172.823 312.748 176.972 316.932 179.058 321.714C181.096 326.552 182.006 331.79 181.719 337.032C180.722 360.659 178.683 387.123 178.707 409.028" fill="#455A64"/>
<path d="M171.968 377.525C170.685 378.006 169.378 378.421 168.053 378.767C161.746 380.716 155.709 383.453 150.086 386.912C148.953 387.685 147.779 388.397 146.57 389.045C146.57 389.045 146.84 388.752 147.402 388.307C147.965 387.862 148.797 387.264 149.852 386.549C152.621 384.71 155.533 383.096 158.56 381.72C161.588 380.344 164.724 379.219 167.936 378.357C169.166 378.029 170.174 377.794 170.866 377.665C171.225 377.571 171.596 377.524 171.968 377.525Z" fill="#263238"/>
<path d="M173.726 355.046C173.726 355.139 172.143 355.491 169.612 356.276C163.004 358.307 156.832 361.55 151.411 365.84C149.336 367.48 148.129 368.606 148.059 368.535C148.278 368.214 148.533 367.919 148.821 367.656C149.336 367.117 150.121 366.379 151.165 365.511C153.817 363.243 156.714 361.278 159.802 359.651C162.891 358.029 166.149 356.752 169.518 355.842C170.533 355.558 171.562 355.328 172.6 355.151C172.968 355.058 173.347 355.023 173.726 355.046Z" fill="#263238"/>
<path d="M171.358 336.95C171.358 337.055 170.104 337.114 168.123 337.477C165.548 337.955 163.051 338.787 160.705 339.95C158.364 341.125 156.195 342.616 154.259 344.38C152.77 345.74 151.915 346.724 151.915 346.642C151.915 346.56 152.055 346.349 152.395 345.892C152.877 345.245 153.406 344.634 153.977 344.064C157.77 340.245 162.711 337.775 168.041 337.032C168.841 336.921 169.648 336.866 170.456 336.868C171.042 336.879 171.346 336.903 171.358 336.95Z" fill="#263238"/>
<path d="M158.22 393.299C158.215 393.334 158.215 393.37 158.22 393.405V461.029C158.22 463.994 155.876 467.053 151.434 469.374C146.992 471.694 140.652 473.277 132.682 473.288H132.577C116.579 473.288 107.015 466.971 107.015 461.029V393.405C107.018 393.37 107.018 393.335 107.015 393.299C107.015 393.299 107.015 393.217 107.015 393.17C107.015 386.56 111.903 379.657 116.802 372.836C120.083 368.289 120.868 361.726 121.021 357.882C121.021 357.413 121.021 357.003 121.021 356.628H120.575C120.11 356.668 119.641 356.614 119.196 356.471C118.751 356.327 118.339 356.097 117.984 355.792C117.63 355.488 117.339 355.116 117.13 354.698C116.921 354.28 116.797 353.824 116.766 353.358V350.498C116.794 350.03 116.916 349.571 117.124 349.151C117.332 348.73 117.621 348.355 117.976 348.048C118.331 347.741 118.744 347.509 119.191 347.364C119.637 347.219 120.108 347.165 120.575 347.205H144.601C145.315 347.181 146.022 347.356 146.642 347.71C147.263 348.064 147.774 348.583 148.117 349.209C148.309 349.611 148.409 350.052 148.41 350.498V353.358C148.379 353.825 148.255 354.282 148.045 354.701C147.836 355.119 147.544 355.492 147.188 355.797C146.832 356.101 146.419 356.332 145.973 356.474C145.527 356.617 145.056 356.669 144.59 356.628H144.156C144.156 357.003 144.156 357.413 144.156 357.882C144.308 361.726 145.094 368.289 148.387 372.836C153.274 379.657 158.138 386.56 158.173 393.17C158.22 393.217 158.22 393.276 158.22 393.299Z" fill="#FAFAFA"/>
<path d="M158.22 393.299C158.236 393.069 158.236 392.838 158.22 392.608C158.177 391.932 158.095 391.259 157.974 390.592C157.411 388.021 156.467 385.548 155.173 383.255C153.092 379.616 150.783 376.113 148.258 372.766C146.766 370.557 145.7 368.089 145.117 365.488C144.422 362.589 144.06 359.62 144.039 356.639V356.428H144.25C145.138 356.488 146.024 356.28 146.793 355.831C147.18 355.607 147.512 355.301 147.767 354.934C148.023 354.568 148.194 354.15 148.27 353.709C148.27 352.807 148.27 351.787 148.27 350.814C148.31 350.345 148.237 349.873 148.055 349.438C147.873 349.003 147.589 348.619 147.227 348.318C146.461 347.697 145.493 347.38 144.508 347.427H134.78H120.939C120.37 347.377 119.798 347.45 119.26 347.64C118.722 347.83 118.232 348.133 117.821 348.529C117.43 348.936 117.169 349.45 117.071 350.006C117.041 350.603 117.041 351.202 117.071 351.799C117.071 352.397 117.071 353.076 117.071 353.627C117.154 354.197 117.407 354.728 117.798 355.151C118.216 355.577 118.725 355.904 119.287 356.107C119.849 356.309 120.45 356.383 121.044 356.323H121.325V356.616C121.306 359.374 121.008 362.122 120.435 364.82C119.866 367.627 118.768 370.3 117.2 372.696C115.547 375.04 113.848 377.384 112.278 379.868C110.652 382.337 109.315 384.983 108.293 387.756C107.796 389.164 107.477 390.629 107.343 392.116C107.261 393.581 107.343 395.151 107.343 396.675V425.154C107.343 436.535 107.343 447.657 107.343 458.392C107.28 459.704 107.343 461.019 107.531 462.319C107.86 463.556 108.493 464.692 109.371 465.624C111.138 467.502 113.283 468.984 115.665 469.972C118.003 470.951 120.439 471.677 122.931 472.14C125.372 472.601 127.844 472.88 130.326 472.972C135.107 473.216 139.897 472.777 144.554 471.671C146.779 471.129 148.937 470.343 150.989 469.327C152.975 468.38 154.753 467.045 156.216 465.401C156.9 464.594 157.421 463.663 157.751 462.658C157.997 461.643 158.084 460.595 158.009 459.553V453.318C158.009 449.251 158.009 445.336 158.009 441.598C158.009 426.69 158.079 414.642 158.103 406.25C158.126 397.859 158.208 393.288 158.208 393.288C158.244 393.572 158.244 393.859 158.208 394.143C158.208 394.729 158.208 395.561 158.208 396.64C158.208 398.855 158.208 402.09 158.208 406.25C158.208 414.618 158.208 426.69 158.302 441.598C158.302 445.325 158.302 449.239 158.302 453.318V461.147C158.287 461.706 158.2 462.262 158.044 462.799C157.699 463.87 157.145 464.862 156.415 465.717C154.916 467.424 153.086 468.807 151.036 469.784C148.951 470.8 146.762 471.586 144.508 472.128C139.859 473.241 135.078 473.699 130.303 473.488C127.793 473.4 125.293 473.122 122.826 472.656C120.29 472.184 117.811 471.445 115.43 470.452C112.963 469.459 110.74 467.943 108.914 466.01C107.969 465.023 107.288 463.814 106.933 462.494C106.724 461.15 106.654 459.787 106.722 458.428V396.698C106.722 395.151 106.722 393.651 106.722 392.092C106.864 390.557 107.195 389.046 107.707 387.592C108.745 384.772 110.106 382.082 111.762 379.575C113.332 377.079 115.055 374.723 116.708 372.391C118.223 370.047 119.285 367.439 119.837 364.703C120.402 362.051 120.704 359.35 120.739 356.639L121.009 356.909C120.34 356.968 119.665 356.878 119.035 356.645C118.404 356.412 117.834 356.042 117.364 355.561C116.896 355.06 116.597 354.425 116.508 353.744C116.508 353.053 116.508 352.479 116.508 351.846C116.474 351.217 116.474 350.587 116.508 349.959C116.63 349.3 116.944 348.693 117.411 348.213C117.874 347.765 118.427 347.42 119.033 347.202C119.639 346.984 120.285 346.897 120.927 346.947H134.768H144.437C145.527 346.906 146.594 347.265 147.438 347.955C147.846 348.299 148.166 348.736 148.37 349.23C148.574 349.723 148.656 350.259 148.61 350.791C148.61 351.799 148.61 352.725 148.61 353.744C148.528 354.245 148.336 354.721 148.048 355.138C147.76 355.556 147.384 355.904 146.945 356.159C146.108 356.644 145.144 356.865 144.179 356.792L144.367 356.604C144.472 362.781 145.668 368.5 148.457 372.555C150.965 375.919 153.251 379.442 155.302 383.103C156.589 385.419 157.507 387.922 158.021 390.522C158.134 391.216 158.2 391.917 158.22 392.62C158.261 392.844 158.261 393.075 158.22 393.299Z" fill="#263238"/>
<path d="M142.843 356.464C139.289 356.773 135.72 356.875 132.155 356.769C128.585 356.874 125.012 356.773 121.454 356.464C125.013 356.162 128.585 356.06 132.155 356.159C135.72 356.06 139.289 356.162 142.843 356.464Z" fill="#263238"/>
<path d="M156.087 402.336C153.931 400.93 151.083 401.551 148.762 402.652C146.441 403.754 144.25 405.289 141.73 405.688C138.765 406.168 135.776 404.985 133.139 403.496C130.502 402.008 128.006 400.168 125.17 399.148C122.419 398.218 119.462 398.079 116.636 398.746C113.81 399.414 111.228 400.86 109.184 402.922V460.983C109.184 460.983 112.371 470.886 134.827 469.339C157.282 467.792 155.513 457.865 155.513 457.865L156.087 402.336Z" fill="#3E67F5"/>
<path d="M96.5963 362.816C96.9284 360.673 96.8325 358.485 96.3139 356.38C95.7954 354.274 94.8645 352.292 93.5752 350.548C92.2859 348.804 90.6638 347.333 88.8025 346.22C86.9412 345.108 84.8778 344.375 82.7315 344.064C82.3382 343.963 81.9213 344.008 81.5595 344.193C81.079 344.521 81.0673 345.213 81.1141 345.787C81.5068 349.975 83.2149 353.932 85.994 357.09C88.773 360.248 92.4802 362.445 96.5845 363.367" fill="#455A64"/>
<path d="M73.543 393.183C77.6919 401.738 83.6574 407.505 91.0527 407.786C92.5294 407.786 93.6428 406.86 95.0492 406.778C95.8669 406.969 96.6553 407.268 97.3932 407.669C97.7639 407.832 98.1608 407.927 98.5652 407.95C106.207 407.54 112.711 402.172 117.095 393.183C123.201 380.607 121.314 367.094 112.887 362.98C111.781 362.429 110.628 361.978 109.441 361.632C108.078 361.266 106.669 361.1 105.257 361.14C101.999 361.373 98.7971 362.108 95.7641 363.32L95.3539 363.473C88.4977 360.449 83.0362 360.425 77.7739 362.992C69.3004 367.094 67.4252 380.607 73.543 393.183Z" fill="#3E67F5"/>
<path d="M73.6837 380.443C73.2837 379.654 73.0447 378.793 72.9805 377.911C72.7312 375.782 72.9887 373.625 73.7322 371.615C74.4756 369.604 75.6838 367.798 77.2583 366.344C77.8794 365.714 78.6207 365.216 79.4382 364.879C79.4382 364.972 78.6647 365.512 77.5513 366.648C76.1284 368.137 75.0238 369.899 74.3048 371.829C73.5914 373.761 73.288 375.82 73.4141 377.876C73.5079 379.447 73.836 380.408 73.6837 380.443Z" fill="#FAFAFA"/>
<path d="M75.2424 386.42C75.0783 386.42 74.7971 385.869 74.6213 385.096C74.4455 384.322 74.4337 383.678 74.6213 383.642C74.8088 383.607 75.0549 384.193 75.2424 384.967C75.4299 385.74 75.4065 386.385 75.2424 386.42Z" fill="#FAFAFA"/>
<path d="M114.012 342.224C114.012 342.329 112.442 342.939 110.062 344.369C108.678 345.202 107.362 346.142 106.125 347.181C104.62 348.466 103.228 349.878 101.964 351.401C100.726 352.945 99.62 354.592 98.6589 356.323C97.8886 357.742 97.2303 359.22 96.69 360.741C95.7641 363.343 95.518 365.054 95.3656 365.031C95.366 364.637 95.4092 364.244 95.4945 363.859C95.552 363.387 95.646 362.921 95.7758 362.464C95.9111 361.846 96.0793 361.236 96.2798 360.636C96.7728 359.067 97.4043 357.546 98.1667 356.089C100.04 352.503 102.629 349.34 105.773 346.795C107.049 345.754 108.419 344.832 109.863 344.04C110.461 343.677 111.035 343.431 111.551 343.185C111.976 342.972 112.414 342.788 112.864 342.634C113.229 342.452 113.614 342.315 114.012 342.224Z" fill="#263238"/>
<path d="M48.7552 369.531L35.4764 537.034L159.24 566.955C159.24 566.955 202.416 552.317 203.002 551.32C203.588 550.324 203.752 377.864 203.752 377.864L159.134 389.432L48.7552 369.531Z" fill="#3E67F5"/>
<g opacity="0.4">
<path d="M48.7552 369.531L35.4764 537.034L159.24 566.955C159.24 566.955 202.416 552.317 203.002 551.32C203.588 550.324 203.752 377.864 203.752 377.864L159.134 389.432L48.7552 369.531Z" fill="black"/>
</g>
<path d="M242.874 174.417L235.97 272.173C235.428 279.865 231.989 287.066 226.347 292.323C220.705 297.58 213.28 300.502 205.569 300.501C201.394 300.509 197.262 299.66 193.428 298.006C189.595 296.352 186.143 293.927 183.286 290.883C180.428 287.839 178.227 284.24 176.818 280.31C175.41 276.38 174.824 272.202 175.097 268.036C175.706 258.73 176.269 251.101 176.269 251.101C176.269 251.101 152.606 247.421 152.313 223.758C152.149 210.092 154.505 179.081 156.521 155.325C157.182 147.565 160.737 140.338 166.48 135.078C172.222 129.817 179.732 126.908 187.52 126.927H201.807C207.649 127.271 213.364 128.781 218.613 131.37C223.862 133.959 228.539 137.574 232.367 142.001C236.195 146.428 239.097 151.578 240.902 157.145C242.707 162.713 243.377 168.586 242.874 174.417Z" fill="#FFBE9D"/>
<path d="M176.316 251.101C176.316 251.101 191.235 251.98 207.128 241.994C207.128 241.994 199.51 259.211 175.894 257.078L176.316 251.101Z" fill="#EB996E"/>
<path d="M161.009 179.726C161.431 180.171 163.986 178.273 167.631 178.284C171.276 178.296 173.925 180.113 174.323 179.667C174.511 179.468 174.089 178.683 172.929 177.827C171.354 176.743 169.485 176.167 167.573 176.175C165.68 176.177 163.836 176.772 162.299 177.874C161.185 178.742 160.81 179.539 161.009 179.726Z" fill="#263238"/>
<path d="M200.412 183.91C200.408 184.79 200.746 185.637 201.353 186.273C201.961 186.909 202.791 187.284 203.67 187.321C204.102 187.357 204.537 187.307 204.95 187.173C205.362 187.039 205.744 186.823 206.071 186.539C206.399 186.255 206.667 185.908 206.858 185.519C207.05 185.13 207.161 184.706 207.186 184.274C207.196 183.392 206.86 182.542 206.252 181.905C205.643 181.267 204.809 180.894 203.928 180.863C203.496 180.825 203.06 180.874 202.647 181.007C202.234 181.141 201.852 181.356 201.523 181.641C201.195 181.925 200.928 182.272 200.737 182.662C200.546 183.052 200.435 183.477 200.412 183.91Z" fill="#263238"/>
<path d="M164.291 183.91C164.284 184.791 164.621 185.639 165.229 186.276C165.837 186.913 166.669 187.287 167.549 187.321C167.982 187.359 168.417 187.31 168.831 187.177C169.244 187.043 169.626 186.828 169.954 186.543C170.282 186.259 170.549 185.911 170.74 185.522C170.931 185.132 171.042 184.707 171.065 184.274C171.078 183.393 170.745 182.543 170.138 181.906C169.531 181.268 168.699 180.894 167.819 180.863C167.385 180.821 166.947 180.868 166.532 181C166.117 181.132 165.733 181.347 165.403 181.632C165.073 181.917 164.805 182.266 164.614 182.657C164.423 183.049 164.313 183.475 164.291 183.91Z" fill="#263238"/>
<path d="M196.392 179.738C196.814 180.171 199.381 178.273 203.014 178.284C206.647 178.296 209.308 180.113 209.706 179.667C209.894 179.468 209.472 178.683 208.311 177.827C206.736 176.743 204.867 176.167 202.955 176.175C201.063 176.177 199.219 176.772 197.681 177.874C196.568 178.742 196.193 179.539 196.392 179.738Z" fill="#263238"/>
<path d="M183.195 206.694C183.195 206.495 180.957 206.108 177.335 205.639C176.409 205.534 175.53 205.358 175.378 204.725C175.294 203.766 175.506 202.804 175.988 201.971L178.742 194.939C182.551 184.871 185.317 176.597 184.906 176.445C184.496 176.292 181.074 184.332 177.265 194.4C176.288 196.845 175.409 199.201 174.628 201.467C174.052 202.59 173.883 203.878 174.147 205.112C174.284 205.44 174.493 205.733 174.759 205.968C175.025 206.204 175.341 206.376 175.683 206.471C176.195 206.611 176.723 206.686 177.253 206.694C180.898 206.893 183.184 206.905 183.195 206.694Z" fill="#263238"/>
<path d="M193.896 209.214C193.31 209.214 193.298 213.128 189.923 215.929C186.547 218.73 182.34 218.273 182.305 218.847C182.305 219.094 183.242 219.609 185.024 219.668C187.335 219.697 189.584 218.913 191.376 217.453C193.092 216.041 194.196 214.022 194.458 211.815C194.611 210.175 194.165 209.19 193.896 209.214Z" fill="#263238"/>
<path d="M195.454 167.912C195.818 168.897 199.439 168.428 203.658 168.944C207.878 169.459 211.382 170.62 211.944 169.741C212.202 169.319 211.593 168.381 210.21 167.397C208.361 166.207 206.256 165.472 204.069 165.252C201.886 164.987 199.672 165.248 197.611 166.014C196.087 166.67 195.302 167.444 195.454 167.912Z" fill="#263238"/>
<path d="M161.513 169.319C162.158 170.151 164.666 169.319 167.678 169.248C170.69 169.178 173.233 169.811 173.831 168.944C174.077 168.522 173.679 167.69 172.565 166.916C171.07 165.975 169.327 165.501 167.561 165.556C165.795 165.61 164.085 166.19 162.65 167.221C161.584 168.065 161.232 168.92 161.513 169.319Z" fill="#263238"/>
<path d="M234.892 192.208C235.302 192.032 251.16 187.403 250.644 203.576C250.128 219.75 233.99 215.894 233.978 215.437C233.966 214.98 234.892 192.208 234.892 192.208Z" fill="#FFBE9D"/>
<path d="M239.088 209.425C239.158 209.425 239.369 209.636 239.838 209.87C240.497 210.176 241.249 210.214 241.936 209.975C243.671 209.401 245.194 206.741 245.358 203.822C245.451 202.438 245.227 201.051 244.702 199.767C244.566 199.256 244.309 198.786 243.952 198.396C243.595 198.006 243.148 197.708 242.651 197.529C242.329 197.432 241.983 197.452 241.675 197.585C241.366 197.718 241.114 197.955 240.963 198.255C240.729 198.701 240.823 199.029 240.741 199.052C240.658 199.076 240.401 198.771 240.553 198.103C240.661 197.707 240.895 197.357 241.221 197.107C241.677 196.785 242.241 196.655 242.792 196.744C243.452 196.898 244.061 197.218 244.564 197.673C245.066 198.128 245.444 198.704 245.663 199.345C246.303 200.772 246.588 202.332 246.495 203.893C246.284 207.151 244.514 210.14 242.159 210.749C241.719 210.86 241.261 210.871 240.817 210.782C240.373 210.693 239.954 210.505 239.592 210.233C239.088 209.788 239.088 209.46 239.088 209.425Z" fill="#EB996E"/>
<path d="M243.893 191.622C241.432 191.024 237.166 193.31 236.111 195.618C235.056 197.927 234.822 200.541 233.767 202.85C232.712 205.159 230.345 207.256 227.907 206.67C227.07 206.407 226.319 205.926 225.728 205.278C225.137 204.629 224.728 203.836 224.543 202.979C224.203 201.257 224.203 199.485 224.543 197.763C225.493 190.204 227.075 182.715 227.38 175.108C227.684 167.502 226.606 159.591 222.61 153.11C218.613 146.629 211.276 141.859 203.682 142.468C198.654 142.878 194.048 145.504 189.055 146.195C186.084 146.589 183.063 146.3 180.22 145.352C177.377 144.403 174.787 142.82 172.647 140.722C172.096 140.183 169.577 138.507 169.577 138.507C169.577 138.12 169.94 134.745 171.276 133.514C181.179 124.349 199.041 121.794 212.132 125.087C225.223 128.381 237.494 137.616 243.12 149.887C248.745 162.158 247.081 179.187 243.975 191.622" fill="#263238"/>
<path d="M153.977 151.059C156.099 155.97 161.513 158.829 166.869 159.368C172.225 159.907 177.511 158.524 182.656 157.024C187.801 155.524 201.619 153.274 206.975 153.438C207.772 153.438 208.733 153.438 209.167 152.77C209.729 151.868 208.827 150.778 207.995 150.133C200.963 144.601 183.887 141.214 174.933 140.839C165.979 140.464 156.591 144.355 151.739 151.844" fill="#263238"/>
<path d="M156.31 151.669C156.31 151.669 218.426 131.744 245.241 185.41C245.241 185.41 249.249 171.968 249.249 164.76C249.249 159.955 246.378 131.287 216.89 122.275C216.89 122.275 172.46 105.328 156.31 151.669Z" fill="#3E67F5"/>
<g opacity="0.4">
<path d="M156.31 151.669C161.474 146.231 168.553 143.019 176.046 142.714C194.364 141.894 228.634 152.196 245.194 185.41C245.194 185.41 249.202 171.968 249.202 164.76C249.202 159.955 246.331 131.287 216.843 122.275C216.89 122.275 172.46 105.328 156.31 151.669Z" fill="black"/>
</g>
<path d="M242.604 179.117C233.188 165.098 220.85 153.283 206.436 144.484C192.208 135.565 168.616 126.752 152.36 122.427C147.485 121.138 142.398 120.001 137.417 120.868C132.436 121.736 127.561 125.041 126.33 129.94C124.783 136.069 135.706 145.527 140.781 149.242C145.79 152.581 150.978 155.645 156.321 158.419C156.321 158.419 156.181 147.051 174.382 144.707C199.123 141.519 242.604 179.117 242.604 179.117Z" fill="#3E67F5"/>
<path d="M191.739 132.729C191.739 132.729 182.785 127.783 173.808 126.635C175.303 125.456 176.941 124.472 178.683 123.705C183.56 124.513 188.276 126.096 192.653 128.393L191.739 132.729Z" fill="#FAFAFA"/>
<path d="M269.724 293.984C269.724 293.984 252.754 313.381 254.629 340.372C254.887 344.111 255.074 349.326 255.531 353.053C258.391 376.212 262.821 397.706 262.821 397.706H264.438L323.613 383.092C323.613 383.092 314.694 331.723 312.643 324.902C306.091 303.067 283.624 291.054 283.624 291.054L269.724 293.984Z" fill="#3E67F5"/>
<path d="M203.002 551.321C203.002 551.321 203.002 551.028 203.002 550.453C203.002 549.879 203.002 549 203.002 547.875C203.002 545.601 203.002 542.273 203.002 537.971C203.002 529.334 203.002 516.875 203.072 501.264C203.178 470.101 203.33 426.737 203.506 377.829L203.881 378.122L181.379 383.982L159.275 389.713L159.497 389.42C159.802 413.939 159.72 437.074 159.603 457.982C159.486 478.891 159.369 497.561 159.275 513.172C159.181 528.783 159.275 541.3 159.275 549.973C159.275 554.286 159.275 557.626 159.275 559.911V562.49C159.275 563.064 159.275 563.357 159.275 563.357C159.275 563.357 159.275 563.064 159.275 562.49C159.275 561.915 159.275 561.036 159.275 559.911C159.275 557.567 159.193 554.286 159.122 549.973C159.017 541.335 158.947 528.783 158.958 513.172C158.97 497.561 159.087 478.879 159.158 457.982C159.228 437.086 159.298 413.939 158.982 389.432V389.186L159.216 389.127L181.308 383.396L203.823 377.536L204.209 377.431V377.829C203.951 426.737 203.729 470.113 203.576 501.264C203.471 516.829 203.377 529.334 203.319 537.971C203.319 542.273 203.248 545.601 203.225 547.875C203.225 549.047 203.225 549.856 203.225 550.453C203.225 551.051 203.002 551.321 203.002 551.321Z" fill="#263238"/>
<path d="M175.601 259.106C175.601 259.106 173.257 281.62 180.828 285.124C189.372 289.062 197.892 285.206 203.096 281.866C217.054 272.959 237.799 248.218 237.799 248.218L251.863 266.478C251.863 266.478 216.445 309.045 209.331 308.764C204.643 308.588 197.435 304.076 192.923 300.899C190.454 299.175 188.254 297.093 186.395 294.723L180.265 286.929C172.612 290.703 166.424 295.543 162.146 301.743C162.146 301.743 160.107 285.98 163.775 278.831C167.444 271.681 174.757 259.34 174.757 259.34L175.601 259.106Z" fill="#3E67F5"/>
<path d="M163.342 279.44C163.313 279.575 163.266 279.705 163.201 279.827C163.096 280.108 162.943 280.471 162.744 280.928C162.257 282.385 161.908 283.884 161.701 285.405C161.02 291.01 161.02 296.677 161.701 302.282L161.279 302.2C163.251 298.87 165.826 295.936 168.873 293.551C172.323 290.746 176.092 288.358 180.101 286.437L180.289 286.343L180.429 286.507C182.902 289.378 185.516 292.367 188.27 295.402C191.025 298.582 194.126 301.444 197.517 303.935C199.137 305.081 200.898 306.015 202.756 306.712C203.67 307.045 204.611 307.3 205.569 307.474C206.506 307.626 207.459 307.662 208.405 307.58C212.214 307.228 215.437 305.048 218.109 302.751L242.358 276.897L249.39 269.478L251.277 267.521L251.769 267.017L251.957 266.864L251.816 267.052L251.347 267.591L249.531 269.607L242.616 277.143L218.543 303.138C217.154 304.374 215.638 305.458 214.019 306.372C212.324 307.334 210.449 307.932 208.511 308.13C207.51 308.212 206.503 308.177 205.51 308.025C204.516 307.85 203.54 307.587 202.592 307.24C200.677 306.523 198.862 305.566 197.189 304.392C193.749 301.878 190.604 298.984 187.813 295.766C185.047 292.719 182.434 289.718 179.972 286.835L180.312 286.905C176.342 288.811 172.605 291.171 169.178 293.937C166.204 296.274 163.682 299.133 161.736 302.376L161.384 302.985L161.314 302.294C160.659 296.652 160.722 290.949 161.502 285.323C161.742 283.799 162.135 282.303 162.674 280.858C162.885 280.366 163.072 280.014 163.189 279.768C163.233 279.655 163.284 279.546 163.342 279.44Z" fill="#263238"/>
<g opacity="0.3">
<path d="M164.209 298.414C163.972 299.005 163.929 299.655 164.085 300.272C164.24 300.889 164.587 301.441 165.076 301.848C165.564 302.036 166.095 302.086 166.609 301.993C167.124 301.9 167.603 301.667 167.994 301.321C168.762 300.618 169.425 299.809 169.963 298.918C171.365 296.898 173.051 295.09 174.968 293.551C176.855 292.027 179.445 290.738 181.613 291.816C182.969 292.712 183.997 294.024 184.543 295.555C187.485 301.567 191.013 307.685 196.767 311.119C202.522 314.553 209.917 314.705 216.257 312.467C222.561 310.013 228.107 305.943 232.337 300.665C236.535 295.403 240.257 289.779 243.46 283.858C246.108 279.276 248.792 274.553 249.613 269.325C248.886 269.736 247.175 272.373 246.448 272.783C246.448 272.783 219.129 302.868 216.562 304.427C213.995 305.986 206.917 316.37 186.864 293.879L180.23 286.683C180.23 286.683 167.596 292.812 164.209 298.414Z" fill="black"/>
</g>
<path d="M237.379 363.323L207.341 358.716L205.949 367.786L235.988 372.394L237.379 363.323Z" fill="white"/>
<path d="M318.643 384.229L271.763 395.562L277.178 439.781L187.403 507.206C183.816 507.71 180.136 508.285 178.097 508.8C173.186 509.972 164.514 522.337 162.064 523.568L144.566 537.069C144.566 537.069 143.031 543.21 151.012 541.98C158.994 540.749 167.889 534.62 168.815 534.62C169.741 534.62 172.53 536.483 171.159 540.48C169.987 543.996 165.182 556.091 165.182 556.091L159.24 566.99C159.24 566.99 184.93 567.834 192.056 558.306C196.931 551.836 211.98 533.494 211.98 533.494C211.98 533.494 317.659 481.505 323.999 470.617C332.637 455.803 318.643 384.229 318.643 384.229Z" fill="#FFBE9D"/>
<path d="M297.032 458.838C297.095 457.225 297.024 455.61 296.821 454.009C296.253 450.143 294.358 446.595 291.461 443.973C288.563 441.351 284.844 439.82 280.94 439.641C279.326 439.596 277.711 439.687 276.112 439.91C276.512 439.719 276.938 439.589 277.377 439.523C278.556 439.274 279.76 439.167 280.964 439.207C285.003 439.274 288.881 440.806 291.875 443.518C294.87 446.23 296.777 449.938 297.243 453.951C297.388 455.146 297.388 456.354 297.243 457.549C297.236 457.987 297.165 458.421 297.032 458.838Z" fill="#EB996E"/>
<path d="M180.347 550.477C180.255 551.481 180.051 552.471 179.738 553.43C179.138 555.8 178.264 558.093 177.136 560.263C176.012 562.482 174.301 564.35 172.19 565.666C171.545 566.05 170.846 566.335 170.116 566.51C169.853 566.601 169.572 566.629 169.295 566.592C170.22 566.236 171.114 565.805 171.968 565.302C173.942 563.934 175.551 562.103 176.656 559.97C177.736 557.829 178.627 555.598 179.316 553.301C179.577 552.331 179.922 551.386 180.347 550.477Z" fill="#EB996E"/>
<path d="M192.794 546.386C192.617 547.371 192.313 548.328 191.892 549.234C191.01 551.478 189.984 553.662 188.821 555.774C187.654 557.886 186.354 559.921 184.93 561.869C184.389 562.727 183.744 563.514 183.008 564.213C183.46 563.323 183.985 562.472 184.578 561.669C185.586 560.134 186.922 557.978 188.282 555.528C189.641 553.079 190.731 550.84 191.493 549.117C191.847 548.171 192.282 547.257 192.794 546.386Z" fill="#EB996E"/>
<path d="M192.454 469.855C192.582 470.345 192.652 470.848 192.665 471.355C192.771 472.316 192.853 473.699 192.899 475.445C193.12 484.491 191.812 493.509 189.032 502.12C188.493 503.761 188.024 505.085 187.649 505.976C187.489 506.453 187.281 506.912 187.028 507.347C187.106 506.849 187.24 506.362 187.426 505.894C187.731 504.98 188.141 503.644 188.598 501.991C189.857 497.684 190.813 493.294 191.458 488.853C192.092 484.411 192.421 479.932 192.442 475.445C192.442 473.722 192.442 472.328 192.442 471.367C192.399 470.863 192.403 470.357 192.454 469.855Z" fill="#263238"/>
<path d="M167.057 483.93C167.627 485.128 168.12 486.362 168.534 487.622C169.401 489.966 170.608 493.084 172.05 496.541C173.491 499.999 174.827 503.104 175.823 505.343C176.41 506.533 176.923 507.758 177.359 509.011C176.603 507.906 175.959 506.728 175.437 505.495C174.335 503.292 172.917 500.209 171.487 496.74C170.057 493.271 168.92 490.072 168.159 487.728C167.675 486.499 167.306 485.227 167.057 483.93Z" fill="#263238"/>
<path d="M160.248 514.274C160.011 514.374 159.763 514.445 159.509 514.485L157.364 515C156.427 515.223 155.29 515.481 153.942 515.703C152.594 515.926 151.083 516.254 149.371 516.465C147.66 516.676 145.855 516.969 143.804 517.145C141.753 517.321 139.632 517.473 137.37 517.602C127.518 518.039 117.649 517.287 107.976 515.364C105.761 514.883 103.64 514.461 101.694 513.922C99.7489 513.383 97.9323 512.914 96.2915 512.41C94.6507 511.906 93.174 511.402 91.8848 510.969C90.5956 510.535 89.5408 510.113 88.6149 509.797L86.5639 508.976C86.322 508.884 86.087 508.774 85.8607 508.648C86.1191 508.684 86.3714 508.755 86.6108 508.859L88.697 509.574C89.5877 509.902 90.7011 510.3 91.9903 510.746C93.2795 511.191 94.7562 511.66 96.4087 512.094C98.0612 512.527 99.8544 513.078 101.812 513.523C103.769 513.969 105.867 514.449 108.082 514.906C112.901 515.806 117.764 516.455 122.65 516.852C127.54 517.203 132.446 517.297 137.347 517.133C139.609 517.016 141.753 516.934 143.758 516.735C145.762 516.536 147.613 516.348 149.313 516.137C151.012 515.926 152.536 515.668 153.884 515.457C155.231 515.246 156.38 515.047 157.318 514.86L159.486 514.461C159.732 514.37 159.987 514.307 160.248 514.274Z" fill="#263238"/>
<path d="M155.782 493.892C153.843 493.183 151.978 492.284 150.215 491.209C148.359 490.308 146.593 489.233 144.941 487.997C146.884 488.698 148.75 489.597 150.508 490.681C152.369 491.573 154.136 492.649 155.782 493.892Z" fill="#263238"/>
<path d="M323.613 383.092L323.32 383.185L322.452 383.42L319.101 384.275L306.49 387.393L262.891 397.941L262.575 398.011V397.695C261.344 389.643 259.657 380.958 258.028 371.911C256.961 365.875 256.035 359.956 255.402 354.213C254.769 348.471 254.488 342.88 254.406 337.559C254.277 332.523 254.571 327.486 255.285 322.499C255.92 318.136 257.216 313.896 259.129 309.924C260.766 306.669 262.955 303.722 265.599 301.216C267.588 299.32 269.872 297.761 272.361 296.598C273.945 295.89 275.604 295.367 277.307 295.039L278.643 294.875C278.795 294.859 278.948 294.859 279.1 294.875C278.952 294.924 278.798 294.955 278.643 294.969L277.33 295.203C275.653 295.565 274.021 296.116 272.467 296.844C270.022 298.046 267.783 299.629 265.833 301.532C263.251 304.035 261.115 306.96 259.516 310.181C257.656 314.124 256.4 318.324 255.789 322.64C255.101 327.605 254.826 332.619 254.969 337.63C255.062 342.927 255.367 348.482 256 354.213C256.633 359.945 257.571 365.851 258.637 371.875C260.254 380.912 261.93 389.608 263.161 397.659L262.798 397.413L306.455 387.041L319.101 384.088L322.476 383.326L323.355 383.138C323.439 383.115 323.525 383.099 323.613 383.092Z" fill="#263238"/>
</svg>
