<svg width="278" height="278" viewBox="0 0 278 278" fill="none" xmlns="http://www.w3.org/2000/svg">
<path d="M278 212.615H0V212.754H278V212.615Z" fill="#EBEBEB"/>
<path d="M250.144 221.561H231.73V221.7H250.144V221.561Z" fill="#EBEBEB"/>
<path d="M184.158 223.073H179.327V223.212H184.158V223.073Z" fill="#EBEBEB"/>
<path d="M231.174 216.401H220.504V216.54H231.174V216.401Z" fill="#EBEBEB"/>
<path d="M53.1814 217.335H29.1678V217.474H53.1814V217.335Z" fill="#EBEBEB"/>
<path d="M61.6548 217.335H58.1354V217.474H61.6548V217.335Z" fill="#EBEBEB"/>
<path d="M125.183 219.681H73.0973V219.82H125.183V219.681Z" fill="#EBEBEB"/>
<path d="M131.772 187.817H24.414C23.5729 187.815 22.7669 187.48 22.1727 186.885C21.5785 186.29 21.2448 185.483 21.2448 184.642V33.727C21.2521 32.8908 21.5891 32.0913 22.1824 31.502C22.7758 30.9128 23.5777 30.5815 24.414 30.5801H131.772C132.614 30.5801 133.422 30.9146 134.017 31.5099C134.612 32.1053 134.947 32.9128 134.947 33.7548V184.642C134.947 185.484 134.612 186.292 134.017 186.887C133.422 187.482 132.614 187.817 131.772 187.817ZM24.414 30.6913C23.6098 30.6928 22.8391 31.0132 22.271 31.5824C21.7029 32.1516 21.3838 32.9229 21.3838 33.727V184.642C21.3838 185.446 21.7029 186.218 22.271 186.787C22.8391 187.356 23.6098 187.676 24.414 187.678H131.772C132.577 187.676 133.348 187.356 133.917 186.787C134.486 186.218 134.806 185.447 134.808 184.642V33.727C134.806 32.9224 134.486 32.1511 133.917 31.5821C133.348 31.0131 132.577 30.6927 131.772 30.6913H24.414Z" fill="#EBEBEB"/>
<path d="M252.04 187.817H144.677C143.835 187.815 143.029 187.48 142.433 186.885C141.838 186.29 141.503 185.484 141.502 184.642V33.727C141.511 32.8903 141.849 32.0908 142.443 31.5017C143.038 30.9126 143.84 30.5815 144.677 30.5801H252.04C252.876 30.583 253.676 30.9149 254.268 31.504C254.861 32.0931 255.197 32.8918 255.204 33.727V184.642C255.204 185.482 254.871 186.288 254.278 186.883C253.685 187.478 252.88 187.814 252.04 187.817ZM144.677 30.6913C143.872 30.6927 143.101 31.0131 142.532 31.5821C141.963 32.1511 141.642 32.9224 141.641 33.727V184.642C141.642 185.447 141.963 186.218 142.532 186.787C143.101 187.356 143.872 187.676 144.677 187.678H252.04C252.845 187.676 253.616 187.356 254.185 186.787C254.754 186.218 255.075 185.447 255.076 184.642V33.727C255.075 32.9224 254.754 32.1511 254.185 31.5821C253.616 31.0131 252.845 30.6927 252.04 30.6913H144.677Z" fill="#EBEBEB"/>
<path d="M167.406 153.128H227.904V43.8072L167.406 43.8072V153.128Z" fill="#E6E6E6"/>
<path d="M164.62 153.128H226.603V43.8072L164.62 43.8072V153.128Z" fill="#F0F0F0"/>
<path d="M167.406 155.719H227.904V153.128H167.406V155.719Z" fill="#E6E6E6"/>
<path d="M163.614 155.719H225.597V153.128H163.614V155.719Z" fill="#F0F0F0"/>
<path d="M222.689 149.219V47.7158H168.524V149.219H222.689Z" fill="#FAFAFA"/>
<path d="M183.847 149.219L199.092 47.7158H209.923L194.672 149.219H183.847Z" fill="white"/>
<path d="M185.565 149.219L200.816 47.7158H211.641L196.39 149.219H185.565Z" fill="white"/>
<path d="M196.996 149.219L212.247 47.7158H216.467L201.222 149.219H196.996Z" fill="white"/>
<path d="M169.024 149.219V47.7158H168.529V149.219H169.024Z" fill="#E6E6E6"/>
<path opacity="0.6" d="M163.692 50.6628H224.19L224.546 49.2339H164.053L163.692 50.6628Z" fill="#EBEBEB"/>
<path opacity="0.6" d="M163.692 52.9976H224.19L224.546 51.5742H164.053L163.692 52.9976Z" fill="#EBEBEB"/>
<path opacity="0.6" d="M163.692 55.3384H224.19L224.546 53.915H164.053L163.692 55.3384Z" fill="#EBEBEB"/>
<path opacity="0.6" d="M163.692 57.6794H224.19L224.546 56.2505H164.053L163.692 57.6794Z" fill="#EBEBEB"/>
<path opacity="0.6" d="M163.692 60.0197H224.19L224.546 58.5908H164.053L163.692 60.0197Z" fill="#EBEBEB"/>
<path opacity="0.6" d="M163.692 62.3555H224.19L224.546 60.9321H164.053L163.692 62.3555Z" fill="#EBEBEB"/>
<path d="M239.886 37.252H152.639V39.3592H239.886V37.252Z" fill="#F0F0F0"/>
<path opacity="0.8" d="M238.307 35.4785H233.72V170.498H238.307V35.4785Z" fill="#FAFAFA"/>
<path opacity="0.8" d="M234.91 35.4785H233.72V170.498H234.91V35.4785Z" fill="#F0F0F0"/>
<path opacity="0.8" d="M233.72 35.4785H229.133V170.498H233.72V35.4785Z" fill="#FAFAFA"/>
<path opacity="0.8" d="M230.323 35.4785H229.133V170.498H230.323V35.4785Z" fill="#F0F0F0"/>
<path opacity="0.8" d="M229.133 35.4785H224.546V170.498H229.133V35.4785Z" fill="#FAFAFA"/>
<path opacity="0.8" d="M167.406 35.4785H162.819V170.498H167.406V35.4785Z" fill="#FAFAFA"/>
<path opacity="0.8" d="M164.009 35.4785H162.819V170.498H164.009V35.4785Z" fill="#F0F0F0"/>
<path opacity="0.8" d="M162.825 35.4785H158.238V170.498H162.825V35.4785Z" fill="#FAFAFA"/>
<path opacity="0.8" d="M159.427 35.4785H158.238V170.498H159.427V35.4785Z" fill="#F0F0F0"/>
<path opacity="0.8" d="M158.238 35.4785H153.651V170.498H158.238V35.4785Z" fill="#FAFAFA"/>
<path d="M47.4491 153.128H107.947L107.947 43.8072L47.4491 43.8072L47.4491 153.128Z" fill="#E6E6E6"/>
<path d="M44.6579 153.128H106.641L106.641 43.8072L44.6579 43.8072L44.6579 153.128Z" fill="#F0F0F0"/>
<path d="M47.4491 155.719H107.947V153.128H47.4491V155.719Z" fill="#E6E6E6"/>
<path d="M43.6516 155.719H105.634V153.128H43.6516V155.719Z" fill="#F0F0F0"/>
<path d="M102.732 149.219V47.7158H48.5666L48.5666 149.219H102.732Z" fill="#FAFAFA"/>
<path d="M63.89 149.219L79.1355 47.7158H89.9664L74.7153 149.219H63.89Z" fill="white"/>
<path d="M65.608 149.219L80.8535 47.7158H91.6844L76.4333 149.219H65.608Z" fill="white"/>
<path d="M77.0394 149.219L92.2904 47.7158H96.5105L81.265 149.219H77.0394Z" fill="white"/>
<path d="M49.067 149.214L49.067 47.7104H48.5722L48.5722 149.214H49.067Z" fill="#E6E6E6"/>
<path opacity="0.6" d="M43.735 50.6628H104.233L104.589 49.2339H44.0964L43.735 50.6628Z" fill="#EBEBEB"/>
<path opacity="0.6" d="M43.735 52.9976H104.233L104.589 51.5742H44.0964L43.735 52.9976Z" fill="#EBEBEB"/>
<path opacity="0.6" d="M43.735 55.3384H104.233L104.589 53.915H44.0964L43.735 55.3384Z" fill="#EBEBEB"/>
<path opacity="0.6" d="M43.735 57.6794H104.233L104.589 56.2505H44.0964L43.735 57.6794Z" fill="#EBEBEB"/>
<path opacity="0.6" d="M43.735 60.0197H104.233L104.589 58.5908H44.0964L43.735 60.0197Z" fill="#EBEBEB"/>
<path opacity="0.6" d="M43.735 62.3555H104.233L104.589 60.9321H44.0964L43.735 62.3555Z" fill="#EBEBEB"/>
<path d="M119.929 37.252H32.6817V39.3592H119.929V37.252Z" fill="#F0F0F0"/>
<path opacity="0.8" d="M118.35 35.4785H113.763V170.498H118.35V35.4785Z" fill="#FAFAFA"/>
<path opacity="0.8" d="M114.953 35.4785H113.763V170.498H114.953V35.4785Z" fill="#F0F0F0"/>
<path opacity="0.8" d="M113.763 35.4785H109.176V170.498H113.763V35.4785Z" fill="#FAFAFA"/>
<path opacity="0.8" d="M110.366 35.4785H109.176V170.498H110.366V35.4785Z" fill="#F0F0F0"/>
<path opacity="0.8" d="M109.176 35.4785H104.589V170.498H109.176V35.4785Z" fill="#FAFAFA"/>
<path opacity="0.8" d="M47.449 35.4785H42.862V170.498H47.449V35.4785Z" fill="#FAFAFA"/>
<path opacity="0.8" d="M44.0519 35.4785H42.862V170.498H44.0519V35.4785Z" fill="#F0F0F0"/>
<path opacity="0.8" d="M42.862 35.4785H38.275V170.498H42.862V35.4785Z" fill="#FAFAFA"/>
<path opacity="0.8" d="M39.4649 35.4785H38.275V170.498H39.4649V35.4785Z" fill="#F0F0F0"/>
<path opacity="0.8" d="M38.275 35.4785H33.688V170.498H38.275V35.4785Z" fill="#FAFAFA"/>
<path d="M208.928 208.839H218.274V162.135H208.928V208.839Z" fill="#F0F0F0"/>
<path d="M135.653 212.615H214.861V208.84H135.653V212.615Z" fill="#F0F0F0"/>
<path d="M208.928 162.135H132.245V208.839H208.928V162.135Z" fill="#F5F5F5"/>
<path d="M201.939 167.083H139.228V182.618H201.939V167.083Z" fill="#F0F0F0"/>
<path d="M201.939 186.177H139.228V201.711H201.939V186.177Z" fill="#F0F0F0"/>
<path d="M163.153 169.224H178.015C178.37 169.224 178.711 169.083 178.962 168.831C179.213 168.58 179.354 168.239 179.354 167.884C179.353 167.529 179.211 167.189 178.96 166.938C178.709 166.687 178.369 166.545 178.015 166.544H163.153C162.973 166.542 162.795 166.577 162.629 166.645C162.463 166.714 162.312 166.814 162.186 166.942C162.06 167.069 161.96 167.221 161.893 167.387C161.826 167.554 161.793 167.732 161.796 167.912C161.803 168.265 161.95 168.601 162.204 168.847C162.458 169.093 162.799 169.228 163.153 169.224Z" fill="#F5F5F5"/>
<path d="M163.153 188.323H178.015C178.369 188.321 178.709 188.179 178.96 187.929C179.211 187.678 179.353 187.338 179.354 186.983C179.354 186.807 179.32 186.632 179.252 186.47C179.185 186.307 179.086 186.16 178.962 186.035C178.838 185.911 178.69 185.812 178.527 185.745C178.365 185.677 178.19 185.643 178.015 185.643H163.153C162.975 185.64 162.799 185.673 162.635 185.74C162.47 185.806 162.321 185.905 162.194 186.029C162.068 186.154 161.968 186.302 161.9 186.466C161.831 186.63 161.796 186.805 161.796 186.983C161.797 187.16 161.832 187.335 161.901 187.498C161.97 187.662 162.07 187.81 162.196 187.934C162.322 188.059 162.471 188.157 162.636 188.224C162.8 188.291 162.975 188.324 163.153 188.323Z" fill="#F5F5F5"/>
<path d="M129.87 162.141H208.923V160.317H129.87V162.141Z" fill="#F0F0F0"/>
<path d="M220.754 160.312H208.923V162.135H220.754V160.312Z" fill="#E6E6E6"/>
<path d="M60.237 209.518C59.1718 209.515 58.151 209.09 57.3978 208.337C56.6446 207.584 56.2201 206.563 56.2172 205.498V166.155C56.2201 165.09 56.6446 164.069 57.3978 163.316C58.151 162.563 59.1718 162.138 60.237 162.135C61.3018 162.138 62.322 162.563 63.0743 163.316C63.8267 164.07 64.2499 165.09 64.2514 166.155V205.498C64.2499 206.562 63.8267 207.583 63.0743 208.337C62.322 209.09 61.3018 209.515 60.237 209.518Z" fill="#F5F5F5"/>
<path d="M62.5333 207.944C61.8146 207.941 61.1262 207.654 60.618 207.146C60.1098 206.638 59.823 205.949 59.82 205.231V166.433C59.823 165.714 60.1098 165.026 60.618 164.518C61.1262 164.009 61.8146 163.723 62.5333 163.72C63.253 163.721 63.9428 164.007 64.4523 164.516C64.9617 165.024 65.2492 165.713 65.2522 166.433V205.22C65.2522 205.941 64.9659 206.633 64.4562 207.144C63.9464 207.655 63.2549 207.943 62.5333 207.944Z" fill="#EBEBEB"/>
<path d="M66.0695 209.518C65.0048 209.515 63.9846 209.09 63.2322 208.337C62.4799 207.583 62.0566 206.562 62.0552 205.498V166.155C62.0566 165.09 62.4799 164.07 63.2322 163.316C63.9846 162.563 65.0048 162.138 66.0695 162.135C67.1347 162.138 68.1555 162.563 68.9087 163.316C69.662 164.069 70.0864 165.09 70.0894 166.155V205.498C70.0864 206.563 69.662 207.584 68.9087 208.337C68.1555 209.09 67.1347 209.515 66.0695 209.518Z" fill="#F5F5F5"/>
<path d="M68.388 207.944C67.6688 207.943 66.9796 207.656 66.471 207.148C65.9625 206.639 65.6762 205.95 65.6747 205.231V166.433C65.6762 165.714 65.9625 165.025 66.471 164.516C66.9796 164.008 67.6688 163.721 68.388 163.72C69.1071 163.721 69.7964 164.008 70.3049 164.516C70.8135 165.025 71.0998 165.714 71.1013 166.433V205.22C71.102 205.577 71.0324 205.93 70.8964 206.26C70.7605 206.591 70.5608 206.891 70.3089 207.144C70.0569 207.397 69.7576 207.598 69.428 207.735C69.0984 207.872 68.745 207.943 68.388 207.944Z" fill="#EBEBEB"/>
<path d="M75.9218 166.155C75.9218 163.935 74.1233 162.135 71.9047 162.135C69.6861 162.135 67.8876 163.935 67.8876 166.155V205.498C67.8876 207.718 69.6861 209.518 71.9047 209.518C74.1233 209.518 75.9218 207.718 75.9218 205.498V166.155Z" fill="#F5F5F5"/>
<path d="M74.2093 207.944C73.4902 207.943 72.8009 207.656 72.2924 207.148C71.7838 206.639 71.4975 205.95 71.496 205.231V166.433C71.4975 165.714 71.7838 165.025 72.2924 164.516C72.8009 164.008 73.4902 163.721 74.2093 163.72C74.9285 163.721 75.6177 164.008 76.1263 164.516C76.6348 165.025 76.9211 165.714 76.9226 166.433V205.22C76.9233 205.577 76.8537 205.93 76.7178 206.26C76.5818 206.591 76.3821 206.891 76.1302 207.144C75.8782 207.397 75.5789 207.598 75.2493 207.735C74.9198 207.872 74.5664 207.943 74.2093 207.944Z" fill="#EBEBEB"/>
<path d="M77.7455 209.518C76.6802 209.515 75.6595 209.09 74.9062 208.337C74.153 207.584 73.7285 206.563 73.7256 205.498V166.155C73.7285 165.09 74.153 164.069 74.9062 163.316C75.6595 162.563 76.6802 162.138 77.7455 162.135C78.8107 162.138 79.8315 162.563 80.5847 163.316C81.338 164.069 81.7624 165.09 81.7654 166.155V205.498C81.7624 206.563 81.338 207.584 80.5847 208.337C79.8315 209.09 78.8107 209.515 77.7455 209.518Z" fill="#F5F5F5"/>
<path d="M80.064 207.944C79.3443 207.943 78.6545 207.656 78.1451 207.148C77.6357 206.64 77.3481 205.95 77.3451 205.231V166.433C77.3481 165.713 77.6357 165.024 78.1451 164.516C78.6545 164.007 79.3443 163.721 80.064 163.72C80.7827 163.723 81.4711 164.009 81.9793 164.518C82.4875 165.026 82.7743 165.714 82.7773 166.433V205.22C82.7773 205.94 82.4918 206.631 81.9832 207.142C81.4747 207.653 80.7846 207.941 80.064 207.944Z" fill="#EBEBEB"/>
<path d="M83.5835 209.518C82.5182 209.515 81.4975 209.09 80.7442 208.337C79.991 207.584 79.5665 206.563 79.5636 205.498V166.155C79.5665 165.09 79.991 164.069 80.7442 163.316C81.4975 162.563 82.5182 162.138 83.5835 162.135C84.6487 162.138 85.6695 162.563 86.4227 163.316C87.176 164.069 87.6004 165.09 87.6034 166.155V205.498C87.6004 206.563 87.176 207.584 86.4227 208.337C85.6695 209.09 84.6487 209.515 83.5835 209.518Z" fill="#F5F5F5"/>
<path d="M85.8853 207.944C85.1657 207.943 84.4758 207.656 83.9664 207.148C83.457 206.64 83.1694 205.95 83.1665 205.231V166.433C83.1694 165.713 83.457 165.024 83.9664 164.516C84.4758 164.007 85.1657 163.721 85.8853 163.72C86.604 163.723 87.2925 164.009 87.8007 164.518C88.3089 165.026 88.5957 165.714 88.5986 166.433V205.22C88.5986 205.94 88.3131 206.631 87.8046 207.142C87.2961 207.653 86.606 207.941 85.8853 207.944Z" fill="#EBEBEB"/>
<path d="M89.4215 209.518C88.3562 209.515 87.3355 209.09 86.5822 208.337C85.829 207.584 85.4045 206.563 85.4016 205.498V166.155C85.4045 165.09 85.829 164.069 86.5822 163.316C87.3355 162.563 88.3562 162.138 89.4215 162.135C90.4862 162.138 91.5064 162.563 92.2587 163.316C93.0111 164.07 93.4343 165.09 93.4358 166.155V205.498C93.4343 206.562 93.0111 207.583 92.2587 208.337C91.5064 209.09 90.4862 209.515 89.4215 209.518Z" fill="#F5F5F5"/>
<path d="M91.74 207.944C91.0213 207.941 90.3329 207.654 89.8247 207.146C89.3164 206.638 89.0296 205.949 89.0267 205.231V166.433C89.0296 165.714 89.3164 165.026 89.8247 164.518C90.3329 164.009 91.0213 163.723 91.74 163.72C92.4597 163.721 93.1495 164.007 93.6589 164.516C94.1683 165.024 94.4559 165.713 94.4588 166.433V205.22C94.4588 205.941 94.1726 206.633 93.6628 207.144C93.1531 207.655 92.4616 207.943 91.74 207.944Z" fill="#EBEBEB"/>
<path d="M95.2595 209.518C94.1942 209.515 93.1735 209.09 92.4202 208.337C91.667 207.584 91.2425 206.563 91.2396 205.498V166.155C91.2425 165.09 91.667 164.069 92.4202 163.316C93.1735 162.563 94.1942 162.138 95.2595 162.135C96.3242 162.138 97.3444 162.563 98.0967 163.316C98.8491 164.07 99.2723 165.09 99.2738 166.155V205.498C99.2723 206.562 98.8491 207.583 98.0967 208.337C97.3444 209.09 96.3242 209.515 95.2595 209.518Z" fill="#F5F5F5"/>
<path d="M100.186 202.467H88.3984C87.9071 202.467 87.5088 202.866 87.5088 203.357C87.5088 203.848 87.9071 204.246 88.3984 204.246H100.186C100.677 204.246 101.075 203.848 101.075 203.357C101.075 202.866 100.677 202.467 100.186 202.467Z" fill="#F5F5F5"/>
<path d="M100.186 170.348H88.404C88.2872 170.348 88.1715 170.325 88.0636 170.28C87.9556 170.235 87.8576 170.17 87.775 170.087C87.6923 170.004 87.6268 169.906 87.5821 169.798C87.5374 169.69 87.5144 169.575 87.5144 169.458C87.5144 169.341 87.5374 169.225 87.5821 169.118C87.6268 169.01 87.6923 168.912 87.775 168.829C87.8576 168.746 87.9556 168.681 88.0636 168.636C88.1715 168.591 88.2872 168.568 88.404 168.568H100.191C100.308 168.568 100.424 168.591 100.532 168.636C100.64 168.681 100.738 168.746 100.82 168.829C100.903 168.912 100.968 169.01 101.013 169.118C101.058 169.225 101.081 169.341 101.081 169.458C101.081 169.575 101.058 169.691 101.013 169.8C100.968 169.908 100.901 170.006 100.818 170.089C100.735 170.172 100.636 170.237 100.528 170.281C100.419 170.326 100.303 170.348 100.186 170.348Z" fill="#F5F5F5"/>
<path d="M139 237.724C198.538 237.724 246.803 234.906 246.803 231.43C246.803 227.954 198.538 225.136 139 225.136C79.4621 225.136 31.1971 227.954 31.1971 231.43C31.1971 234.906 79.4621 237.724 139 237.724Z" fill="#F5F5F5"/>
<path d="M227.865 138.255H94.9815C94.2698 138.262 93.5643 138.122 92.9098 137.842C92.2552 137.563 91.6657 137.151 91.1786 136.632C90.6915 136.113 90.3175 135.499 90.0801 134.828C89.8427 134.157 89.7472 133.444 89.7996 132.734L94.6701 54.2935C94.7823 52.8066 95.4462 51.4153 96.5314 50.3928C97.6167 49.3703 99.045 48.7903 100.536 48.7668H233.42C234.132 48.7603 234.837 48.9015 235.492 49.1815C236.147 49.4615 236.736 49.8742 237.223 50.3936C237.71 50.913 238.084 51.5277 238.321 52.199C238.559 52.8702 238.654 53.5834 238.602 54.2935L233.731 132.734C233.618 134.22 232.953 135.61 231.868 136.631C230.783 137.652 229.356 138.232 227.865 138.255Z" fill="#3E67F5"/>
<path opacity="0.8" d="M227.865 138.255H94.9815C94.2698 138.262 93.5643 138.122 92.9098 137.842C92.2552 137.563 91.6657 137.151 91.1786 136.632C90.6915 136.113 90.3175 135.499 90.0801 134.828C89.8427 134.157 89.7472 133.444 89.7996 132.734L94.6701 54.2935C94.7823 52.8066 95.4462 51.4153 96.5314 50.3928C97.6167 49.3703 99.045 48.7903 100.536 48.7668H233.42C234.132 48.7603 234.837 48.9015 235.492 49.1815C236.147 49.4615 236.736 49.8742 237.223 50.3936C237.71 50.913 238.084 51.5277 238.321 52.199C238.559 52.8702 238.654 53.5834 238.602 54.2935L233.731 132.734C233.618 134.22 232.953 135.61 231.868 136.631C230.783 137.652 229.356 138.232 227.865 138.255Z" fill="white"/>
<path opacity="0.4" d="M112.012 71.368H96.188C95.9863 71.371 95.7862 71.3318 95.6005 71.253C95.4148 71.1743 95.2475 71.0577 95.1094 70.9107C94.9713 70.7637 94.8653 70.5895 94.7983 70.3992C94.7313 70.209 94.7047 70.0068 94.7201 69.8057L95.1705 62.5777C95.196 62.1529 95.383 61.7539 95.6931 61.4624C96.0032 61.1709 96.4129 61.009 96.8385 61.0098H112.662L112.012 71.368Z" fill="white"/>
<path d="M233.337 50.1509H117.472C116.352 50.1608 115.277 50.5929 114.462 51.3608C113.646 52.1286 113.151 53.1758 113.074 54.2931L111.962 72.2908H96.1324C95.7068 72.29 95.297 72.452 94.987 72.7435C94.6769 73.0349 94.4899 73.4339 94.4644 73.8587L94.0474 80.6419C94.0311 80.8435 94.0571 81.0462 94.1238 81.2372C94.1904 81.4281 94.2963 81.603 94.4345 81.7506C94.5727 81.8982 94.7402 82.0154 94.9263 82.0944C95.1124 82.1735 95.313 82.2128 95.5152 82.2099H111.339L108.203 132.734C108.162 133.267 108.233 133.803 108.41 134.307C108.588 134.812 108.869 135.273 109.235 135.663C109.602 136.053 110.045 136.362 110.537 136.571C111.03 136.78 111.56 136.884 112.095 136.876H227.96C229.08 136.866 230.155 136.434 230.97 135.666C231.785 134.898 232.281 133.851 232.358 132.734L237.229 54.2931C237.27 53.7596 237.2 53.2233 237.023 52.7185C236.846 52.2137 236.565 51.7515 236.198 51.3616C235.832 50.9716 235.388 50.6625 234.895 50.454C234.402 50.2455 233.872 50.1423 233.337 50.1509Z" fill="white"/>
<path opacity="0.4" d="M110.644 93.0523H94.8425C94.64 93.0553 94.4392 93.0159 94.2529 92.9369C94.0665 92.8579 93.8986 92.7409 93.76 92.5933C93.6213 92.4458 93.515 92.271 93.4477 92.0801C93.3804 91.8891 93.3536 91.6863 93.3691 91.4844L93.7916 84.7012C93.8172 84.2764 94.0041 83.8774 94.3142 83.5859C94.6243 83.2945 95.0341 83.1325 95.4596 83.1333H111.283L110.644 93.0523Z" fill="white"/>
<path opacity="0.4" d="M109.993 103.895H94.1697C93.9673 103.898 93.7665 103.858 93.5801 103.779C93.3937 103.7 93.2258 103.583 93.0872 103.436C92.9486 103.288 92.8422 103.113 92.7749 102.922C92.7076 102.731 92.6808 102.529 92.6963 102.327L93.1189 95.5379C93.1458 95.1141 93.3333 94.7165 93.6432 94.4262C93.9532 94.1359 94.3622 93.9747 94.7869 93.9756H110.611L109.993 103.895Z" fill="white"/>
<path opacity="0.4" d="M109.321 114.736H93.497C93.2948 114.738 93.0944 114.698 92.9084 114.619C92.7224 114.539 92.5549 114.422 92.4164 114.275C92.2779 114.127 92.1715 113.953 92.1039 113.762C92.0363 113.572 92.0089 113.369 92.0235 113.168L92.4461 106.379C92.478 105.956 92.6669 105.561 92.9756 105.271C93.2843 104.981 93.6905 104.817 94.1141 104.811H109.938L109.321 114.736Z" fill="white"/>
<path opacity="0.4" d="M108.648 125.572H92.852C92.6457 125.58 92.4403 125.543 92.2493 125.464C92.0584 125.386 91.8862 125.268 91.7443 125.118C91.6024 124.969 91.4939 124.79 91.426 124.595C91.3582 124.401 91.3325 124.193 91.3508 123.988L91.7733 117.205C91.7989 116.78 91.9858 116.381 92.2959 116.089C92.606 115.798 93.0158 115.636 93.4413 115.637H109.271L108.648 125.572Z" fill="white"/>
<path opacity="0.2" d="M95.9823 80.9477C95.8939 80.9496 95.8062 80.9329 95.7248 80.8986C95.6433 80.8643 95.5701 80.8132 95.5097 80.7486C95.4494 80.6841 95.4033 80.6076 95.3746 80.524C95.3458 80.4405 95.335 80.3518 95.3429 80.2638L95.7098 74.309C95.7263 74.1063 95.8172 73.9169 95.965 73.7773C96.1128 73.6377 96.3072 73.5577 96.5105 73.5529H109.921C110.01 73.551 110.097 73.5677 110.179 73.602C110.26 73.6363 110.333 73.6874 110.394 73.7519C110.454 73.8165 110.5 73.893 110.529 73.9765C110.558 74.0601 110.568 74.1488 110.561 74.2368L110.194 80.1971C110.176 80.3988 110.084 80.5869 109.937 80.7253C109.789 80.8638 109.595 80.943 109.393 80.9477H95.9823Z" fill="#3E67F5"/>
<path opacity="0.3" d="M140.668 59.4919H121.525C121.182 59.4943 120.842 59.4258 120.527 59.2906C120.212 59.1554 119.929 58.9565 119.694 58.7064C119.46 58.4562 119.28 58.1603 119.165 57.8371C119.05 57.514 119.004 57.1707 119.028 56.8287C119.083 56.1131 119.402 55.4435 119.925 54.9518C120.448 54.46 121.135 54.1815 121.853 54.171H140.985C141.328 54.1678 141.667 54.2356 141.982 54.3702C142.297 54.5048 142.581 54.7032 142.815 54.9529C143.05 55.2026 143.23 55.4982 143.345 55.821C143.459 56.1439 143.506 56.487 143.481 56.8287C143.426 57.5425 143.108 58.2104 142.588 58.7026C142.068 59.1948 141.384 59.4761 140.668 59.4919Z" fill="#3E67F5"/>
<path d="M231.852 56.8341C231.799 57.5507 231.48 58.2216 230.957 58.7146C230.434 59.2075 229.746 59.4868 229.028 59.4974C228.684 59.5006 228.344 59.4326 228.029 59.2977C227.713 59.1628 227.429 58.9639 227.195 58.7136C226.96 58.4633 226.78 58.167 226.666 57.8435C226.552 57.52 226.506 57.1763 226.531 56.8341C226.584 56.118 226.903 55.4478 227.426 54.9557C227.949 54.4637 228.638 54.1856 229.356 54.1764C229.698 54.1724 230.038 54.2397 230.354 54.374C230.669 54.5082 230.953 54.7066 231.188 54.9565C231.423 55.2064 231.603 55.5023 231.717 55.8256C231.832 56.1488 231.877 56.4922 231.852 56.8341Z" fill="#3E67F5"/>
<path opacity="0.4" d="M177.659 104.995H121.208C120.528 105.002 119.854 104.868 119.228 104.601C118.603 104.334 118.039 103.94 117.574 103.444C117.109 102.948 116.752 102.361 116.526 101.72C116.299 101.078 116.209 100.397 116.26 99.7186L117.955 72.28C118.06 70.8601 118.693 69.531 119.729 68.5551C120.766 67.5792 122.131 67.0276 123.554 67.0091H180.022C180.701 67.001 181.375 67.1344 182 67.4007C182.626 67.6671 183.189 68.0607 183.653 68.5565C184.118 69.0522 184.475 69.6393 184.701 70.2803C184.926 70.9214 185.016 71.6024 184.965 72.28L183.263 99.7131C183.158 101.134 182.524 102.465 181.487 103.443C180.449 104.42 179.084 104.974 177.659 104.995ZM123.538 67.2427C122.176 67.2612 120.871 67.7894 119.88 68.723C118.889 69.6565 118.283 70.9276 118.183 72.2856L116.482 99.7186C116.433 100.367 116.519 101.019 116.735 101.632C116.951 102.246 117.292 102.808 117.737 103.282C118.182 103.756 118.721 104.133 119.32 104.387C119.918 104.642 120.563 104.77 121.214 104.762H177.675C179.037 104.743 180.342 104.215 181.333 103.281C182.324 102.348 182.93 101.077 183.03 99.7186L184.737 72.28C184.785 71.6317 184.698 70.9803 184.482 70.3672C184.266 69.7541 183.924 69.1927 183.479 68.7186C183.034 68.2444 182.496 67.8679 181.898 67.6129C181.3 67.3579 180.655 67.2299 180.005 67.2371L123.538 67.2427Z" fill="#3E67F5"/>
<path d="M128.063 85.2574L136.164 90.5005C137.788 88.1301 139.946 86.1743 142.464 84.7904L138.11 76.1724C134.099 78.3763 130.659 81.4874 128.063 85.2574Z" fill="#3E67F5"/>
<path opacity="0.8" d="M128.063 85.2574L136.164 90.5005C137.788 88.1301 139.946 86.1743 142.464 84.7904L138.11 76.1724C134.099 78.3763 130.659 81.4874 128.063 85.2574Z" fill="white"/>
<path d="M123.182 99.3014H133.101C133.309 96.1448 134.367 93.1034 136.164 90.4999L128.063 85.2568C125.198 89.4119 123.511 94.265 123.182 99.3014Z" fill="#263238"/>
<path d="M151.432 72.7026C146.764 72.7125 142.174 73.9021 138.088 76.161L142.442 84.7901C144.996 83.3817 147.864 82.638 150.782 82.6272C152.933 82.6 155.066 83.0211 157.045 83.8636C159.024 84.7061 160.806 85.9516 162.277 87.5208C163.749 89.09 164.877 90.9484 165.591 92.9776C166.304 95.0069 166.587 97.1625 166.422 99.3072H176.341C177.297 84.6122 166.127 72.7026 151.432 72.7026Z" fill="#3E67F5"/>
<path d="M144.994 115.092H115.915C115.85 115.092 115.786 115.079 115.726 115.053C115.666 115.027 115.613 114.989 115.568 114.942C115.524 114.894 115.49 114.838 115.468 114.777C115.447 114.716 115.438 114.651 115.442 114.586L115.57 112.54C115.583 112.401 115.647 112.272 115.75 112.178C115.853 112.085 115.987 112.033 116.126 112.034H145.205L144.994 115.092Z" fill="#3E67F5"/>
<path opacity="0.2" d="M144.994 115.092H181.69C181.829 115.092 181.963 115.041 182.066 114.947C182.169 114.853 182.233 114.724 182.246 114.586L182.374 112.54C182.378 112.475 182.369 112.41 182.348 112.349C182.326 112.287 182.292 112.231 182.248 112.184C182.203 112.136 182.149 112.098 182.09 112.073C182.03 112.047 181.966 112.034 181.901 112.034H145.205L144.994 115.092Z" fill="#3E67F5"/>
<path d="M164.743 123.16H115.414C115.349 123.161 115.285 123.148 115.225 123.123C115.164 123.097 115.11 123.059 115.066 123.012C115.021 122.964 114.987 122.908 114.966 122.846C114.945 122.784 114.936 122.719 114.942 122.654L115.07 120.613C115.082 120.475 115.146 120.346 115.249 120.252C115.352 120.159 115.487 120.107 115.626 120.107H164.954L164.743 123.16Z" fill="#3E67F5"/>
<path opacity="0.2" d="M164.743 123.159H181.189C181.328 123.16 181.463 123.108 181.566 123.015C181.669 122.921 181.733 122.792 181.745 122.653L181.873 120.613C181.879 120.548 181.87 120.483 181.849 120.421C181.828 120.359 181.794 120.303 181.749 120.255C181.705 120.208 181.651 120.17 181.591 120.144C181.53 120.119 181.466 120.106 181.401 120.107H164.932L164.743 123.159Z" fill="#3E67F5"/>
<path d="M120.708 131.216H114.914C114.849 131.216 114.785 131.203 114.725 131.177C114.666 131.151 114.612 131.113 114.568 131.066C114.523 131.018 114.489 130.962 114.467 130.901C114.446 130.84 114.437 130.775 114.441 130.71L114.569 128.664C114.582 128.525 114.646 128.396 114.749 128.302C114.852 128.209 114.986 128.157 115.125 128.158H120.919L120.708 131.216Z" fill="#3E67F5"/>
<path opacity="0.2" d="M120.708 131.216H180.7C180.839 131.216 180.974 131.165 181.076 131.071C181.179 130.977 181.243 130.848 181.256 130.71L181.384 128.664C181.389 128.598 181.38 128.533 181.357 128.471C181.335 128.41 181.301 128.353 181.256 128.306C181.211 128.258 181.157 128.22 181.096 128.195C181.036 128.169 180.971 128.157 180.906 128.158H120.897L120.708 131.216Z" fill="#3E67F5"/>
<path d="M193.916 131.466C193.886 131.467 193.857 131.462 193.829 131.45C193.802 131.439 193.777 131.422 193.757 131.401C193.736 131.379 193.721 131.354 193.711 131.326C193.701 131.298 193.697 131.268 193.699 131.238L197.68 67.1259C197.684 67.064 197.712 67.0059 197.758 66.9636C197.803 66.9213 197.863 66.8978 197.925 66.898C197.954 66.8979 197.983 66.9038 198.01 66.9155C198.037 66.9271 198.061 66.9442 198.08 66.9656C198.1 66.987 198.116 67.0123 198.125 67.0399C198.135 67.0675 198.138 67.0968 198.136 67.1259L194.155 131.216C194.156 131.248 194.15 131.28 194.139 131.31C194.127 131.34 194.11 131.367 194.087 131.391C194.065 131.414 194.039 131.433 194.009 131.445C193.98 131.458 193.948 131.466 193.916 131.466Z" fill="#3E67F5"/>
<path d="M198.397 83.9224C198.364 84.3346 198.18 84.7199 197.878 85.0035C197.577 85.287 197.182 85.4487 196.768 85.457C196.571 85.4591 196.374 85.42 196.193 85.3424C196.011 85.2648 195.847 85.1502 195.711 85.0059C195.576 84.8617 195.472 84.6909 195.406 84.5044C195.34 84.3179 195.314 84.1197 195.328 83.9224C195.361 83.5093 195.547 83.1232 195.849 82.8395C196.152 82.5558 196.549 82.3948 196.963 82.3879C197.161 82.3849 197.357 82.4233 197.539 82.5007C197.721 82.5781 197.885 82.6928 198.02 82.8373C198.155 82.9818 198.259 83.1531 198.324 83.3399C198.389 83.5268 198.414 83.7252 198.397 83.9224Z" fill="white"/>
<path d="M196.757 85.6849C196.53 85.6853 196.305 85.6392 196.096 85.5495C195.888 85.4599 195.699 85.3285 195.543 85.1634C195.387 84.9984 195.266 84.8032 195.188 84.5898C195.11 84.3764 195.076 84.1492 195.089 83.9224C195.124 83.4468 195.336 83.0014 195.682 82.6741C196.029 82.3468 196.486 82.1614 196.963 82.1543C197.191 82.1539 197.416 82.2001 197.625 82.2901C197.834 82.3801 198.023 82.512 198.179 82.6777C198.336 82.8433 198.456 83.0392 198.534 83.2533C198.612 83.4674 198.645 83.6951 198.631 83.9224C198.596 84.3975 198.384 84.8422 198.037 85.1686C197.69 85.4949 197.234 85.6792 196.757 85.6849ZM196.946 82.6158C196.594 82.6205 196.256 82.7573 195.999 82.9993C195.743 83.2413 195.587 83.5707 195.562 83.9224C195.55 84.0898 195.572 84.258 195.628 84.4162C195.684 84.5745 195.773 84.7194 195.888 84.8417C196.003 84.964 196.142 85.0611 196.296 85.1268C196.451 85.1925 196.617 85.2254 196.785 85.2234C197.137 85.2189 197.474 85.0827 197.73 84.8419C197.986 84.6011 198.143 84.273 198.17 83.9224C198.183 83.7545 198.161 83.5857 198.105 83.4268C198.049 83.2679 197.961 83.1223 197.846 82.9994C197.731 82.8765 197.591 82.7789 197.437 82.7128C197.282 82.6468 197.115 82.6137 196.946 82.6158Z" fill="#3E67F5"/>
<path d="M197.541 97.7338C197.508 98.1461 197.323 98.5313 197.022 98.8149C196.721 99.0984 196.326 99.2601 195.912 99.2684C195.714 99.2705 195.518 99.2315 195.336 99.1538C195.154 99.0762 194.991 98.9616 194.855 98.8174C194.72 98.6731 194.616 98.5023 194.55 98.3158C194.484 98.1293 194.457 97.9311 194.472 97.7338C194.502 97.3196 194.686 96.9316 194.988 96.6458C195.289 96.3599 195.686 96.1967 196.101 96.1882C196.3 96.1851 196.498 96.2238 196.681 96.3018C196.864 96.3799 197.029 96.4954 197.165 96.6411C197.3 96.7868 197.404 96.9593 197.469 97.1475C197.534 97.3357 197.558 97.5355 197.541 97.7338Z" fill="white"/>
<path d="M195.901 99.5238C195.674 99.5241 195.449 99.4781 195.24 99.3884C195.031 99.2987 194.843 99.1673 194.687 99.0023C194.531 98.8372 194.41 98.642 194.332 98.4286C194.254 98.2152 194.22 97.9881 194.233 97.7613C194.268 97.2856 194.479 96.8403 194.826 96.513C195.173 96.1857 195.63 96.0002 196.107 95.9932C196.334 95.9928 196.56 96.039 196.769 96.129C196.978 96.219 197.167 96.3509 197.323 96.5166C197.479 96.6822 197.6 96.8781 197.678 97.0922C197.755 97.3062 197.788 97.5339 197.775 97.7613C197.74 98.2363 197.528 98.6811 197.181 99.0074C196.834 99.3338 196.377 99.5181 195.901 99.5238ZM196.09 96.4546C195.738 96.4593 195.4 96.5962 195.143 96.8382C194.887 97.0802 194.731 97.4096 194.706 97.7613C194.692 97.9289 194.714 98.0974 194.77 98.256C194.826 98.4147 194.914 98.5599 195.029 98.6824C195.145 98.8049 195.284 98.902 195.439 98.9674C195.594 99.0328 195.761 99.0651 195.929 99.0623C196.28 99.0577 196.618 98.9216 196.874 98.6808C197.13 98.44 197.287 98.1119 197.313 97.7613C197.331 97.5912 197.312 97.4194 197.258 97.2571C197.204 97.0948 197.116 96.9458 197.001 96.8198C196.885 96.6938 196.744 96.5936 196.588 96.5259C196.431 96.4582 196.261 96.4244 196.09 96.4268V96.4546Z" fill="#3E67F5"/>
<path d="M195.59 104.45L193.56 107.625H197.23L195.59 104.45Z" fill="white"/>
<path d="M197.213 107.864H193.544C193.505 107.864 193.467 107.853 193.434 107.834C193.401 107.814 193.373 107.786 193.355 107.752C193.334 107.717 193.323 107.677 193.323 107.636C193.323 107.595 193.334 107.554 193.355 107.519L195.39 104.344C195.411 104.311 195.44 104.283 195.474 104.264C195.509 104.245 195.547 104.235 195.587 104.235C195.626 104.235 195.665 104.245 195.7 104.264C195.734 104.283 195.763 104.311 195.784 104.344L197.452 107.519C197.469 107.556 197.476 107.597 197.473 107.637C197.47 107.678 197.457 107.717 197.435 107.752C197.413 107.786 197.382 107.814 197.346 107.834C197.311 107.853 197.271 107.863 197.23 107.864H197.213ZM193.972 107.408H196.824L195.545 104.917L193.972 107.408Z" fill="#3E67F5"/>
<path d="M221.538 131.466C221.509 131.467 221.479 131.462 221.452 131.451C221.424 131.439 221.399 131.422 221.379 131.401C221.358 131.379 221.343 131.354 221.333 131.326C221.323 131.298 221.319 131.268 221.321 131.238L225.302 67.126C225.307 67.0641 225.334 67.006 225.38 66.9637C225.425 66.9214 225.485 66.8979 225.547 66.898C225.577 66.8972 225.606 66.9026 225.634 66.9139C225.661 66.9251 225.686 66.9421 225.706 66.9636C225.727 66.9851 225.742 67.0107 225.752 67.0387C225.762 67.0667 225.766 67.0964 225.764 67.126L221.783 131.216C221.783 131.282 221.757 131.344 221.712 131.391C221.666 131.438 221.604 131.465 221.538 131.466Z" fill="#3E67F5"/>
<path d="M224.441 109.371C224.456 109.174 224.43 108.976 224.365 108.79C224.3 108.603 224.196 108.432 224.061 108.288C223.926 108.143 223.763 108.029 223.581 107.951C223.399 107.873 223.204 107.834 223.006 107.837C222.592 107.843 222.195 108.004 221.892 108.288C221.59 108.572 221.404 108.958 221.371 109.371C221.357 109.568 221.383 109.767 221.449 109.953C221.515 110.14 221.619 110.31 221.754 110.455C221.89 110.599 222.054 110.713 222.236 110.791C222.418 110.869 222.614 110.908 222.811 110.906C223.225 110.897 223.621 110.736 223.922 110.452C224.223 110.169 224.408 109.783 224.441 109.371Z" fill="white"/>
<path d="M222.8 111.133C222.573 111.133 222.348 111.087 222.139 110.998C221.931 110.908 221.742 110.777 221.586 110.611C221.43 110.446 221.309 110.251 221.231 110.038C221.153 109.824 221.119 109.597 221.132 109.37C221.167 108.895 221.379 108.451 221.726 108.124C222.073 107.798 222.53 107.614 223.006 107.608C223.233 107.608 223.458 107.654 223.667 107.743C223.876 107.833 224.064 107.964 224.22 108.129C224.376 108.294 224.497 108.49 224.575 108.703C224.653 108.916 224.687 109.144 224.674 109.37C224.639 109.846 224.427 110.29 224.08 110.617C223.733 110.943 223.277 111.127 222.8 111.133ZM222.989 108.064C222.637 108.07 222.3 108.207 222.044 108.449C221.788 108.691 221.631 109.019 221.605 109.37C221.593 109.538 221.615 109.707 221.671 109.865C221.727 110.024 221.815 110.169 221.93 110.292C222.045 110.414 222.184 110.512 222.339 110.578C222.493 110.645 222.66 110.678 222.828 110.677C223.18 110.671 223.517 110.534 223.774 110.292C224.03 110.05 224.186 109.722 224.213 109.37C224.225 109.203 224.202 109.034 224.146 108.876C224.09 108.717 224.002 108.572 223.887 108.449C223.772 108.327 223.633 108.229 223.479 108.163C223.324 108.096 223.157 108.063 222.989 108.064Z" fill="#3E67F5"/>
<path d="M226.587 74.8375C226.602 74.64 226.576 74.4415 226.511 74.2546C226.445 74.0677 226.341 73.8965 226.206 73.7521C226.07 73.6077 225.906 73.4931 225.724 73.4158C225.541 73.3384 225.345 73.3 225.147 73.3029C224.732 73.3099 224.335 73.4709 224.033 73.7546C223.731 74.0383 223.545 74.4243 223.512 74.8375C223.497 75.0347 223.524 75.2329 223.59 75.4194C223.656 75.6059 223.76 75.7767 223.895 75.921C224.03 76.0652 224.194 76.1798 224.376 76.2574C224.558 76.3351 224.754 76.3741 224.952 76.372C225.366 76.365 225.763 76.204 226.066 75.9203C226.368 75.6366 226.554 75.2506 226.587 74.8375Z" fill="white"/>
<path d="M224.941 76.5999C224.712 76.6053 224.485 76.5626 224.274 76.4747C224.063 76.3867 223.872 76.2555 223.715 76.0893C223.558 75.9232 223.437 75.726 223.361 75.5103C223.285 75.2947 223.255 75.0654 223.273 74.8374C223.308 74.3618 223.519 73.9164 223.866 73.5892C224.213 73.2619 224.67 73.0764 225.147 73.0693C225.374 73.0689 225.6 73.1152 225.809 73.2052C226.018 73.2952 226.207 73.4271 226.363 73.5927C226.519 73.7584 226.64 73.9543 226.718 74.1683C226.795 74.3824 226.828 74.6101 226.815 74.8374C226.779 75.312 226.566 75.756 226.22 76.0822C225.873 76.4083 225.417 76.593 224.941 76.5999ZM225.136 73.5308C224.783 73.5355 224.445 73.6724 224.189 73.9144C223.932 74.1563 223.776 74.4858 223.751 74.8374C223.738 75.005 223.76 75.1736 223.816 75.3322C223.871 75.4908 223.96 75.6361 224.075 75.7586C224.19 75.8811 224.33 75.9781 224.484 76.0436C224.639 76.109 224.806 76.1413 224.974 76.1385C225.326 76.1339 225.663 75.9978 225.919 75.757C226.176 75.5161 226.332 75.1881 226.359 74.8374C226.372 74.6695 226.35 74.5008 226.294 74.3419C226.238 74.1829 226.15 74.0374 226.035 73.9144C225.92 73.7915 225.781 73.6939 225.626 73.6279C225.471 73.5618 225.304 73.5288 225.136 73.5308Z" fill="#3E67F5"/>
<path d="M223.868 93.9191L222.233 90.7388H225.897L223.868 93.9191Z" fill="white"/>
<path d="M223.851 94.1475C223.812 94.1475 223.773 94.1366 223.74 94.116C223.707 94.0953 223.68 94.0658 223.662 94.0307L222.022 90.856C222.003 90.821 221.993 90.7818 221.993 90.742C221.993 90.7022 222.003 90.663 222.022 90.628C222.044 90.5927 222.074 90.5635 222.11 90.5431C222.146 90.5227 222.186 90.5117 222.228 90.5112H225.897C225.937 90.5108 225.977 90.5215 226.011 90.5421C226.045 90.5627 226.073 90.5925 226.092 90.628C226.111 90.663 226.121 90.7022 226.121 90.742C226.121 90.7818 226.111 90.821 226.092 90.856L224.068 94.0307C224.044 94.0665 224.012 94.0959 223.974 94.1162C223.936 94.1366 223.894 94.1473 223.851 94.1475ZM222.617 90.9727L223.896 93.458L225.486 90.9727H222.617Z" fill="#3E67F5"/>
<path d="M207.727 131.466C207.697 131.467 207.668 131.462 207.641 131.451C207.613 131.439 207.588 131.422 207.568 131.401C207.547 131.379 207.532 131.354 207.522 131.326C207.512 131.298 207.508 131.268 207.51 131.238L211.491 67.126C211.496 67.0641 211.523 67.0061 211.569 66.9637C211.614 66.9214 211.674 66.8979 211.736 66.8981C211.765 66.8971 211.795 66.9025 211.822 66.9138C211.849 66.9252 211.874 66.9422 211.894 66.9638C211.914 66.9854 211.929 67.0111 211.938 67.0391C211.947 67.0671 211.95 67.0967 211.947 67.126L207.972 131.216C207.972 131.282 207.946 131.344 207.9 131.391C207.855 131.438 207.793 131.465 207.727 131.466Z" fill="#3E67F5"/>
<path d="M211.969 87.8481C211.936 88.2613 211.751 88.6473 211.448 88.931C211.146 89.2147 210.749 89.3757 210.335 89.3827C210.137 89.3857 209.941 89.3472 209.759 89.2698C209.577 89.1924 209.413 89.0778 209.278 88.9332C209.142 88.7887 209.039 88.6175 208.974 88.4306C208.909 88.2437 208.884 88.0453 208.9 87.8481C208.933 87.4359 209.118 87.0506 209.419 86.7671C209.72 86.4835 210.116 86.3219 210.529 86.3136C210.727 86.3115 210.923 86.3505 211.105 86.4281C211.287 86.5058 211.451 86.6203 211.586 86.7646C211.722 86.9088 211.826 87.0796 211.892 87.2662C211.958 87.4527 211.984 87.6508 211.969 87.8481Z" fill="white"/>
<path d="M210.324 89.6273C210.096 89.6277 209.871 89.5815 209.661 89.4914C209.452 89.4014 209.264 89.2695 209.107 89.1039C208.951 88.9382 208.83 88.7424 208.753 88.5283C208.675 88.3142 208.642 88.0865 208.656 87.8592C208.69 87.3841 208.902 86.9394 209.249 86.613C209.596 86.2866 210.053 86.1024 210.529 86.0967C210.757 86.0963 210.982 86.1424 211.19 86.2321C211.399 86.3217 211.587 86.4531 211.744 86.6182C211.9 86.7832 212.021 86.9784 212.099 87.1918C212.177 87.4052 212.21 87.6323 212.197 87.8592C212.163 88.3348 211.951 88.7802 211.604 89.1075C211.257 89.4347 210.801 89.6202 210.324 89.6273ZM210.513 86.5526C210.161 86.5585 209.823 86.6959 209.567 86.9376C209.311 87.1793 209.155 87.508 209.128 87.8592C209.116 88.0269 209.139 88.1953 209.195 88.3539C209.251 88.5124 209.339 88.6576 209.454 88.7804C209.569 88.9031 209.708 89.0007 209.862 89.0671C210.017 89.1334 210.183 89.167 210.351 89.1658C210.704 89.1598 211.041 89.0225 211.297 88.7808C211.553 88.5391 211.71 88.2104 211.736 87.8592C211.749 87.6913 211.727 87.5225 211.671 87.3636C211.616 87.2047 211.527 87.0592 211.412 86.9362C211.297 86.8133 211.158 86.7157 211.003 86.6496C210.848 86.5836 210.681 86.5505 210.513 86.5526Z" fill="#3E67F5"/>
<path d="M210.062 118.573C210.029 118.985 209.844 119.37 209.543 119.654C209.242 119.937 208.847 120.099 208.433 120.107C208.235 120.11 208.039 120.072 207.856 119.994C207.674 119.917 207.51 119.803 207.374 119.658C207.239 119.514 207.135 119.342 207.069 119.156C207.004 118.969 206.978 118.77 206.993 118.573C207.026 118.16 207.211 117.775 207.512 117.492C207.813 117.208 208.209 117.046 208.622 117.038C208.82 117.036 209.016 117.075 209.198 117.153C209.38 117.23 209.544 117.345 209.679 117.489C209.815 117.633 209.919 117.804 209.985 117.991C210.051 118.177 210.077 118.375 210.062 118.573Z" fill="white"/>
<path d="M208.417 120.335C208.189 120.336 207.964 120.29 207.756 120.2C207.547 120.11 207.359 119.979 207.202 119.814C207.046 119.649 206.925 119.454 206.847 119.24C206.769 119.027 206.736 118.8 206.749 118.573C206.783 118.097 206.995 117.652 207.342 117.325C207.689 116.997 208.145 116.812 208.622 116.805C208.85 116.804 209.075 116.851 209.285 116.941C209.494 117.031 209.682 117.162 209.839 117.328C209.995 117.494 210.116 117.69 210.193 117.904C210.271 118.118 210.304 118.345 210.29 118.573C210.256 119.048 210.044 119.493 209.697 119.819C209.35 120.145 208.893 120.33 208.417 120.335ZM208.606 117.266C208.253 117.271 207.915 117.408 207.659 117.65C207.402 117.892 207.246 118.221 207.221 118.573C207.209 118.74 207.231 118.908 207.288 119.067C207.344 119.225 207.432 119.37 207.547 119.492C207.662 119.614 207.801 119.711 207.956 119.777C208.11 119.843 208.277 119.876 208.444 119.874C208.796 119.869 209.133 119.733 209.389 119.492C209.646 119.251 209.802 118.923 209.829 118.573C209.842 118.405 209.82 118.236 209.764 118.077C209.709 117.918 209.62 117.773 209.505 117.65C209.39 117.527 209.251 117.429 209.096 117.363C208.941 117.297 208.774 117.264 208.606 117.266Z" fill="#3E67F5"/>
<path d="M211.536 70.1226L209.501 73.3029H213.17L211.536 70.1226Z" fill="white"/>
<path d="M213.154 73.5306H209.49C209.45 73.5311 209.41 73.5204 209.376 73.4998C209.342 73.4791 209.314 73.4494 209.295 73.4139C209.276 73.3789 209.266 73.3397 209.266 73.2999C209.266 73.2601 209.276 73.2209 209.295 73.1859L211.324 70.0112C211.346 69.9779 211.376 69.9506 211.411 69.9317C211.446 69.9127 211.485 69.9028 211.525 69.9028C211.564 69.9028 211.603 69.9127 211.638 69.9317C211.673 69.9506 211.703 69.9779 211.725 70.0112L213.359 73.1859C213.38 73.2204 213.391 73.2598 213.391 73.2999C213.391 73.34 213.38 73.3794 213.359 73.4139C213.337 73.4481 213.306 73.4766 213.271 73.4969C213.235 73.5172 213.195 73.5287 213.154 73.5306ZM209.918 73.0692H212.787L211.502 70.6116L209.918 73.0692Z" fill="#3E67F5"/>
<path d="M62.0163 86.6304L61.4603 89.3382L60.9043 92.1182C60.5373 93.9641 60.2259 95.81 59.9424 97.6226C59.7978 98.5288 59.6866 99.424 59.5921 100.308C59.4976 101.192 59.4142 102.048 59.3697 102.877C59.3311 103.632 59.3311 104.39 59.3697 105.145C59.3697 105.796 59.5143 106.352 59.4865 106.413L59.114 105.774C58.9472 105.607 58.6413 105.451 58.5913 105.523C58.5413 105.596 58.7359 105.723 59.0917 105.818C59.5498 105.926 60.017 105.992 60.4873 106.013C61.0844 106.03 61.6821 106.015 62.2776 105.968C63.6268 105.857 64.9688 105.672 66.2975 105.412C66.9925 105.279 67.6986 105.14 68.3991 104.984L70.4786 104.534L70.7566 104.472C71.4076 104.333 72.0867 104.421 72.6812 104.72C73.2758 105.02 73.7499 105.514 74.0251 106.12C74.3004 106.727 74.36 107.409 74.1943 108.053C74.0286 108.698 73.6474 109.267 73.114 109.666L72.0743 110.433L71.0513 111.133C70.3507 111.578 69.6446 112.012 68.9107 112.412C67.4043 113.243 65.8309 113.946 64.2069 114.514C63.3201 114.812 62.4158 115.055 61.4992 115.242C60.4586 115.456 59.3978 115.557 58.3355 115.542C57.0043 115.527 55.6863 115.275 54.4435 114.797C52.8412 114.157 51.4531 113.075 50.4404 111.678C50.3335 111.525 50.2369 111.366 50.1512 111.2L50.0678 111.039C49.3743 109.636 48.8964 108.136 48.65 106.591C48.445 105.374 48.3261 104.144 48.2942 102.91C48.2534 101.75 48.2534 100.619 48.2942 99.5185C48.335 98.4176 48.4109 97.3334 48.5221 96.2659C48.7112 94.1309 49.0281 92.0514 49.3895 89.9887C49.5786 88.9601 49.7676 87.937 50.0011 86.9196C50.1123 86.408 50.2235 85.8965 50.3514 85.385L50.7628 83.8115C51.1473 82.346 52.0879 81.0881 53.385 80.3051C54.682 79.522 56.2332 79.2755 57.7091 79.6179C59.185 79.9603 60.4693 80.8646 61.2891 82.1387C62.1089 83.4128 62.3997 84.9563 62.0997 86.4414L62.0163 86.6304Z" fill="#3E67F5"/>
<path opacity="0.2" d="M62.0163 86.6304L61.4603 89.3382L60.9043 92.1182C60.5373 93.9641 60.2259 95.81 59.9424 97.6226C59.7978 98.5288 59.6866 99.424 59.5921 100.308C59.4976 101.192 59.4142 102.048 59.3697 102.877C59.3311 103.632 59.3311 104.39 59.3697 105.145C59.3697 105.796 59.5143 106.352 59.4865 106.413L59.114 105.774C58.9472 105.607 58.6413 105.451 58.5913 105.523C58.5413 105.596 58.7359 105.723 59.0917 105.818C59.5498 105.926 60.017 105.992 60.4873 106.013C61.0844 106.03 61.6821 106.015 62.2776 105.968C63.6268 105.857 64.9688 105.672 66.2975 105.412C66.9925 105.279 67.6986 105.14 68.3991 104.984L70.4786 104.534L70.7566 104.472C71.4076 104.333 72.0867 104.421 72.6812 104.72C73.2758 105.02 73.7499 105.514 74.0251 106.12C74.3004 106.727 74.36 107.409 74.1943 108.053C74.0286 108.698 73.6474 109.267 73.114 109.666L72.0743 110.433L71.0513 111.133C70.3507 111.578 69.6446 112.012 68.9107 112.412C67.4043 113.243 65.8309 113.946 64.2069 114.514C63.3201 114.812 62.4158 115.055 61.4992 115.242C60.4586 115.456 59.3978 115.557 58.3355 115.542C57.0043 115.527 55.6863 115.275 54.4435 114.797C52.8412 114.157 51.4531 113.075 50.4404 111.678C50.3335 111.525 50.2369 111.366 50.1512 111.2L50.0678 111.039C49.3743 109.636 48.8964 108.136 48.65 106.591C48.445 105.374 48.3261 104.144 48.2942 102.91C48.2534 101.75 48.2534 100.619 48.2942 99.5185C48.335 98.4176 48.4109 97.3334 48.5221 96.2659C48.7112 94.1309 49.0281 92.0514 49.3895 89.9887C49.5786 88.9601 49.7676 87.937 50.0011 86.9196C50.1123 86.408 50.2235 85.8965 50.3514 85.385L50.7628 83.8115C51.1473 82.346 52.0879 81.0881 53.385 80.3051C54.682 79.522 56.2332 79.2755 57.7091 79.6179C59.185 79.9603 60.4693 80.8646 61.2891 82.1387C62.1089 83.4128 62.3997 84.9563 62.0997 86.4414L62.0163 86.6304Z" fill="black"/>
<path d="M47.9439 228.838C47.9439 228.838 42.6841 224.068 42.812 222.556L38.4419 220.332L35.8398 224.824L38.2528 226.175L38.92 225.958L39.3593 226.72C41.5388 227.832 46.2981 230.006 47.9606 229.945C48.0592 229.776 48.1097 229.584 48.1068 229.389C48.1039 229.194 48.0475 229.004 47.9439 228.838Z" fill="#263238"/>
<path d="M48.322 172.704C51.5023 149.908 50.4626 136.081 53.8041 124.855L74.4873 123.187C74.4873 123.187 65.3189 159.327 61.1433 174.372C56.9678 189.418 43.7795 223.534 43.7795 223.534L38.0249 220.587C38.0249 220.587 42.7231 190.33 48.322 172.704Z" fill="#263238"/>
<path opacity="0.2" d="M65.191 140.04C63.7843 143.292 61.0377 164.181 61.0488 174.612C61.0488 174.539 61.0933 174.456 61.1155 174.378C62.5889 169.091 64.6851 161.19 66.7756 153.178L65.191 140.04Z" fill="black"/>
<path d="M81.176 229.583C81.176 229.583 72.597 227.637 72.2022 226.247H66.759L66.3086 231.435H69.3332L69.8892 230.956L70.5676 231.435C73.014 231.435 80.0863 231.435 81.6097 230.545C81.6208 229.755 81.176 229.583 81.176 229.583Z" fill="#263238"/>
<path d="M66.6477 173.344C62.1052 142.48 62.1052 123.371 62.1052 123.371L82.3436 123.042C82.3436 123.042 79.9139 159.85 79.0688 175.268C78.1959 191.297 73.1919 226.581 73.1919 226.581H66.164C66.164 226.581 64.496 193.165 66.6477 173.344Z" fill="#263238"/>
<path d="M64.4516 65.4243C63.4897 71.4792 61.7438 74.7262 60.5596 77.7342C62.6001 79.6357 66.9702 81.9876 71.3793 81.9264C75.7884 81.8652 74.9878 78.8795 73.8035 77.3394C70.6398 75.7437 70.5175 74.1313 71.2904 72.719L64.4516 65.4243Z" fill="#7F3E3B"/>
<path d="M56.89 78.5906C56.89 78.5906 59.7033 75.2824 60.8153 74.7264C61.9273 74.1704 70.3396 75.2824 72.3245 75.6827C74.3094 76.083 76.728 79.0187 76.728 79.0187L56.89 78.5906Z" fill="#263238"/>
<path d="M78.396 64.9184C78.3071 65.3187 78.4461 65.6856 78.7074 65.7412C78.9687 65.7968 79.2634 65.5188 79.3412 65.1185C79.4191 64.7182 79.2912 64.3512 79.0299 64.2956C78.7686 64.24 78.4739 64.4958 78.396 64.9184Z" fill="#263238"/>
<path d="M78.2348 65.4688C78.4388 66.7887 78.8243 68.0741 79.3802 69.2885C78.5239 69.7944 77.3897 69.2329 77.3897 69.2329L78.2348 65.4688Z" fill="#630F0F"/>
<path d="M79.7638 62.6223C79.7298 62.6413 79.6915 62.6513 79.6526 62.6513C79.6137 62.6513 79.5754 62.6413 79.5414 62.6223C79.2697 62.4928 78.9709 62.4303 78.67 62.44C78.3692 62.4497 78.0751 62.5312 77.8122 62.6779C77.7864 62.6955 77.7574 62.7077 77.7268 62.7139C77.6962 62.72 77.6647 62.72 77.6341 62.7138C77.6035 62.7076 77.5745 62.6953 77.5488 62.6777C77.523 62.66 77.5011 62.6374 77.4842 62.6112C77.4665 62.585 77.4541 62.5555 77.4479 62.5244C77.4417 62.4934 77.4416 62.4615 77.4479 62.4304C77.4541 62.3994 77.4664 62.3699 77.4841 62.3437C77.5017 62.3174 77.5245 62.295 77.5509 62.2776C77.8791 62.0861 78.2488 61.9769 78.6284 61.9595C79.0079 61.9421 79.3861 62.0169 79.7304 62.1775C79.7594 62.1902 79.7855 62.2084 79.8073 62.2312C79.8292 62.2541 79.8463 62.281 79.8577 62.3105C79.869 62.3399 79.8745 62.3714 79.8736 62.4029C79.8728 62.4345 79.8657 62.4656 79.8527 62.4944C79.8405 62.5468 79.8087 62.5926 79.7638 62.6223Z" fill="#263238"/>
<path d="M65.1521 60.8594C64.357 65.819 63.6342 68.6824 65.5524 71.7292C68.4325 76.3107 75.0044 75.3766 77.2673 70.7396C79.3134 66.5696 80.2753 59.1581 75.9051 56.1779C74.9373 55.5177 73.8179 55.1137 72.6515 55.0037C71.4851 54.8938 70.3099 55.0814 69.2357 55.549C68.1616 56.0167 67.2235 56.7491 66.5094 57.6778C65.7952 58.6065 65.3282 59.7012 65.1521 60.8594Z" fill="#7F3E3B"/>
<path d="M74.1649 65.6079C78.1792 66.4753 77.0116 61.5157 76.0497 61.0209C78.4628 62.4665 80.064 60.7874 79.9417 59.2751C81.7876 58.9693 81.6931 55.9391 80.4254 55.8445C79.6248 53.7484 75.8829 51.9859 75.1879 53.2814C73.1696 50.9351 67.7653 51.3354 68.5493 53.0367C66.4976 52.6364 62.1275 52.8199 63.5898 55.9113C60.4706 56.3116 60.6207 61.6492 62.6557 62.2052C60.5262 63.3839 62.589 67.4093 63.5064 69.9336C64.4238 72.4578 73.5644 70.2116 74.1649 65.6079Z" fill="#263238"/>
<path d="M71.8797 65.1019C71.7071 66.1586 71.9416 67.2414 72.5358 68.1321C73.3198 69.2441 74.5318 68.5491 75.0044 67.2092C75.427 66.0082 75.5271 63.9844 74.4095 63.3783C73.292 62.7723 72.0854 63.7453 71.8797 65.1019Z" fill="#7F3E3B"/>
<path d="M57.1735 78.0346C64.0123 77.1951 73.7145 77.2674 80.153 78.3905C81.7495 78.6721 83.2075 79.4757 84.2982 80.6751C85.3889 81.8745 86.0508 83.402 86.18 85.018C86.9807 94.8425 84.8067 112.012 82.9274 129.298C67.7764 134.38 52.3975 129.226 52.3975 129.226C52.0583 125.739 53.9376 114.314 55.1107 108.214C54.2489 101.92 52.0639 94.7091 50.8351 86.3413C50.6953 85.3782 50.7491 84.3969 50.9935 83.4549C51.2378 82.5129 51.6678 81.6292 52.2581 80.8555C52.8485 80.0819 53.5873 79.4339 54.4314 78.9495C55.2754 78.4651 56.2077 78.154 57.1735 78.0346Z" fill="#3E67F5"/>
<path opacity="0.2" d="M77.7511 91.79C78.7852 97.7059 82.0601 104.756 85.0569 109.421C85.4683 105.334 85.8131 101.442 86.0299 97.8504L77.7511 91.79Z" fill="black"/>
<path d="M127.841 78.0844C125.629 76.6791 122.95 76.21 120.392 76.7804C117.834 77.3507 115.608 78.9138 114.202 81.1257C112.797 83.3376 112.328 86.0172 112.898 88.5749C113.469 91.1327 115.032 93.3591 117.244 94.7644C116.254 96.0988 113.352 100.019 112.468 101.531C111.356 103.36 110.8 105.006 111.567 105.462C112.334 105.918 113.502 104.622 114.586 102.793C115.487 101.286 117.555 96.8716 118.25 95.3593C120.534 96.5533 123.194 96.8076 125.663 96.068C128.132 95.3284 130.214 93.6535 131.465 91.4005C132.716 89.1475 133.038 86.4947 132.361 84.0081C131.684 81.5214 130.062 79.3977 127.841 78.0899V78.0844ZM130.215 91.0002C129.341 92.4682 128.051 93.6439 126.509 94.3788C124.966 95.1138 123.24 95.3749 121.55 95.1292C119.859 94.8836 118.279 94.1421 117.009 92.9986C115.74 91.8551 114.838 90.3609 114.417 88.7049C113.997 87.0488 114.077 85.3053 114.647 83.6947C115.218 82.0842 116.253 80.6788 117.622 79.6564C118.99 78.6339 120.632 78.0403 122.338 77.9505C124.044 77.8607 125.739 78.2788 127.207 79.1519C128.184 79.7315 129.036 80.498 129.716 81.4075C130.396 82.317 130.889 83.3516 131.169 84.4522C131.448 85.5527 131.508 86.6976 131.344 87.8212C131.181 88.9448 130.797 90.0251 130.215 91.0002Z" fill="#3E67F5"/>
<path opacity="0.2" d="M130.621 91.2394C129.7 92.7889 128.34 94.0305 126.714 94.8071C125.087 95.5838 123.267 95.8606 121.483 95.6025C119.699 95.3445 118.032 94.5632 116.692 93.3575C115.352 92.1518 114.4 90.5758 113.956 88.8289C113.511 87.0819 113.595 85.2425 114.197 83.5433C114.798 81.8441 115.89 80.3614 117.334 79.2827C118.778 78.204 120.51 77.5778 122.31 77.4832C124.11 77.3887 125.897 77.8301 127.446 78.7517C128.475 79.3628 129.373 80.1707 130.09 81.1292C130.806 82.0877 131.327 83.1779 131.622 84.3376C131.916 85.4974 131.98 86.7038 131.808 87.8881C131.636 89.0723 131.233 90.2112 130.621 91.2394Z" fill="#3E67F5"/>
<path d="M116.443 99.8906L115.237 98.823C115.013 98.6241 114.744 98.4818 114.454 98.4083C114.164 98.3347 113.86 98.3321 113.569 98.4005L110.789 99.0343C110.245 99.1588 109.74 99.4115 109.314 99.7713C108.889 100.131 108.555 100.588 108.342 101.103L108.075 101.748C109.949 103.655 113.38 104.339 113.38 104.339L114.341 104.639C114.536 104.707 114.742 104.735 114.948 104.723C115.153 104.71 115.354 104.657 115.539 104.566C115.724 104.475 115.889 104.348 116.024 104.192C116.159 104.037 116.262 103.856 116.326 103.66L116.955 101.775C117.058 101.445 117.064 101.092 116.973 100.758C116.883 100.425 116.699 100.124 116.443 99.8906Z" fill="#7F3E3B"/>
<path d="M85.8853 83.0047L86.9973 85.4456L88.1705 87.9365C88.9545 89.6045 89.7829 91.2113 90.6113 92.7848C91.0302 93.5706 91.4602 94.3323 91.9013 95.0699C92.3294 95.8094 92.7686 96.5211 93.2134 97.1772C93.6196 97.777 94.0557 98.3559 94.52 98.9119C94.9092 99.3901 95.3095 99.7348 95.3207 99.7904L94.6312 99.5068C95.3935 99.8616 96.216 100.069 97.0554 100.118C98.2332 100.221 99.417 100.236 100.597 100.163C101.865 100.107 103.171 99.9739 104.489 99.8182C105.151 99.7348 105.824 99.6569 106.496 99.5569L108.487 99.29L108.759 99.2511C109.415 99.1634 110.081 99.3007 110.649 99.6408C111.217 99.9808 111.653 100.503 111.885 101.123C112.117 101.743 112.133 102.423 111.929 103.052C111.724 103.682 111.313 104.223 110.761 104.589L109.749 105.256L108.754 105.856C108.081 106.24 107.403 106.613 106.702 106.968C106.001 107.324 105.295 107.641 104.567 107.941C103.839 108.242 103.088 108.497 102.343 108.77C100.734 109.303 99.0768 109.676 97.3945 109.882C95.377 110.152 93.3264 110.027 91.3564 109.515C91.2133 109.475 91.0738 109.423 90.9394 109.359L90.6725 109.231C89.2709 108.558 87.9838 107.669 86.8583 106.596C85.9664 105.762 85.134 104.866 84.3675 103.916C82.9932 102.22 81.741 100.429 80.62 98.5561C79.508 96.7602 78.5406 94.9365 77.6232 93.1073C77.1728 92.1843 76.7225 91.2669 76.311 90.3273C76.1053 89.8602 75.894 89.3876 75.6994 88.915L75.0989 87.4305C74.5239 86.02 74.5247 84.4403 75.101 83.0304C75.6773 81.6204 76.7833 80.4925 78.1816 79.8887C79.58 79.2848 81.1594 79.253 82.5809 79.8003C84.0024 80.3475 85.1528 81.43 85.7853 82.8157L85.8853 83.0047Z" fill="#3E67F5"/>
</svg>
